<ttFont>
<head>
        <!-- Most of this table will be recalculated by the compiler -->
        <tableVersion value="1.0"/>
        <fontRevision value="1.002"/>
        <checkSumAdjustment value="0x7cd3cddf"/>
        <magicNumber value="0x5f0f3cf5"/>
        <flags value="00000000 00000011"/>
        <unitsPerEm value="1000"/>
        <created value="Fri Jan 15 16:09:29 2016"/>
        <modified value="Fri Jan 15 21:09:30 2016"/>
        <xMin value="-1787"/>
        <yMin value="-333"/>
        <xMax value="783"/>
        <yMax value="1282"/>
        <macStyle value="00000000 00000000"/>
        <lowestRecPPEM value="3"/>
        <fontDirectionHint value="2"/>
        <indexToLocFormat value="0"/>
        <glyphDataFormat value="0"/>
    </head>
                    <CharString index="0">
                        rmoveto
169 138 125 209 180 -113 110 -154 50 callgsubr
-180 112 -111 156 hvcurveto
13 497 rmoveto
76 53 -69 -125 -116 -40 -59 -75 -77 -52 69 125 116 39 59 76 hvcurveto
endchar
                    </CharString>
                    <CharString index="1">
                        61 -52 53 -155 18 vhcurveto
4 56 182 -1 10 105 rlineto
-290 hlineto
-16 -241 rlineto
143 -13 60 -15 -26 vvcurveto
-28 -55 -10 -159 -8 vhcurveto
7 -110 rlineto
return
                    </CharString>
                    <CharString index="2">
                        rmoveto
99 81 64 94 125 -137 34 -100 -68 hvcurveto
14 52 47 27 127 39 -38 101 rcurveline
-184 -54 -87 -101 -127 vvcurveto
-121 72 -65 106 vhcurveto
10 95 rmoveto
-40 -32 29 67 -1 hvcurveto
77 28 53 -18 -51 vvcurveto
-36 -22 -19 -35 vhcurveto
endchar
                    </CharString>
                    <CharString index="3">
                        rmoveto
3 163 rlineto
-157 hlineto
-3 -163 rlineto
-79 hmoveto
3 163 rlineto
-157 hlineto
-3 -163 rlineto
return
                    </CharString>
                    <CharString index="4">
                        rmoveto
hintmask 00111110
163 8 -57 198 -61 196 -65 199 rlinecurve
-213 hlineto
hintmask 01011110
-65 -199 -59 -200 -57 -198 rrcurveto
158 hlineto
12 46 12 45 11 46 rrcurveto
184 hlineto
hintmask 10011110
12 -47 13 -47 12 -47 rrcurveto
hintmask 00111110
-134 467 rmoveto
10 hlineto
19 -71 19 -72 20 -72 rrcurveto
-126 hlineto
19 72 19 72 20 71 rrcurveto
endchar
                    </CharString>
                    <CharString index="5">
                        rmoveto
-61 44 -112 94 -66 61 -97 -127 rcurveline
84 -53 129 -62 84 -27 rrcurveto
return
                    </CharString>
                    <CharString index="6">
                        rmoveto
-106 callsubr
-55 callsubr
endchar
                    </CharString>
                    <CharString index="7">
                        82 callsubr
-120 -101 -124 102 -92 -93 197 -153 rlineto
return
                    </CharString>
                    <CharString index="8">
                        rmoveto
185 55 87 101 127 vvcurveto
121 -73 64 -106 -98 -81 -63 -95 -125 136 -34 100 69 vhcurveto
-14 -53 -46 -26 -127 -39 rrcurveto
64 216 rmoveto
36 22 19 35 40 31 -30 -67 1 vhcurveto
-76 -27 -53 18 51 vvcurveto
endchar
                    </CharString>
                    <CharString index="9">
                        rmoveto
157 137 128 185 178 -103 104 -144 -157 -138 -128 -185 -178 104 -104 144 hvcurveto
29 132 rmoveto
-71 -46 63 116 105 40 47 66 71 46 -62 -116 -106 -39 -47 -67 hvcurveto
endchar
                    </CharString>
                    <CharString index="10">
                        rmoveto
77 -1 91 122 vvcurveto
-147 hlineto
1 -57 3 -77 2 -55 rrcurveto
-140 8 -63 66 119 vvcurveto
123 40 48 272 -12 vhcurveto
-10 146 rlineto
-353 -2 -112 -150 -174 vvcurveto
-214 177 -122 331 63 vhcurveto
return
                    </CharString>
                    <CharString index="11">
                        rmoveto
122 77 99 139 137 -66 86 -119 -120 -77 -100 -139 -136 64 -86 119 hvcurveto
5 360 rmoveto
49 25 -52 -87 -76 -20 -45 -48 -50 -24 52 88 75 20 45 48 hvcurveto
endchar
                    </CharString>
                    <CharString index="12">
                        -247 122 200 102 -200 118 241 128 -402 -597 397 hlineto
endchar
                    </CharString>
                    <CharString index="13">
                        77 -73 61 -233 vhcurveto
-8 -110 rlineto
146 -6 45 -17 -39 vvcurveto
-50 -74 -52 -132 -81 vhcurveto
11 -95 rlineto
return
                    </CharString>
                    <CharString index="14">
                        rmoveto
176 112 119 187 hvcurveto
398 -164 -418 vlineto
-106 -33 -36 -78 -74 -47 50 120 vhcurveto
390 -164 -413 vlineto
-186 101 -105 171 vhcurveto
endchar
                    </CharString>
                    <CharString index="15">
                        146 8 rlineto
-6 75 -6 99 100 vvcurveto
224 -79 72 -350 1 vhcurveto
-14 -136 228 -6 52 -19 7 -83 rlinecurve
-220 4 -94 -93 -109 vvcurveto
return
                    </CharString>
                    <CharString index="16">
                        -72 callgsubr
hintmask 11011000
52 26 29 34 46 vvcurveto
58 callsubr
hintmask 11100100
-35 callsubr
hintmask 11011000
-94 callgsubr
hintmask 11100100
-96 callgsubr
                    </CharString>
                    <CharString index="17">
                        rmoveto
7 100 -51 -1 1 134 -112 -11 1 -123 -98 1 69 262 -128 8 -43 callsubr
rlinecurve
200 2 -54 callsubr
return
                    </CharString>
                    <CharString index="18">
                        72 -9 125 -95 -21 251 99 131 125 74 callsubr
203 159 hintmask 10110110
603 310 rmoveto
hintmask 01101110
233 -157 96 -363 -42 vhcurveto
-247 -59 -99 59 -251 vlineto
hintmask 10110110
341 -45 179 129 226 vvcurveto
-362 -191 rmoveto
132 96 vlineto
6 99 rlineto
-102 131 hlineto
150 12 53 -70 -132 vvcurveto
-135 -55 -54 -148 17 vhcurveto
endchar
                    </CharString>
                    <CharString index="19">
                        rmoveto
hintmask 0010101110000000
147 8 rlineto
-8 127 -3 173 259 vvcurveto
-159 hlineto
hintmask 1000011110000000
-165 1 -142 3 -106 vhcurveto
-16 -28 -32 -10 -37 hhcurveto
-51 -33 25 88 hvcurveto
331 vlineto
hintmask 1001001110000000
-159 -9 rlineto
-382 vlineto
-136 65 -57 103 80 58 34 41 44 vhcurveto
endchar
                    </CharString>
                    <CharString index="20">
                        167 597 -147 hlineto
2 -344 rlineto
-7 hlineto
-188 344 rlineto
-174 -597 146 hlineto
-2 362 rlineto
6 hlineto
return
                    </CharString>
                    <CharString index="21">
                        rmoveto
71 -46 64 56 69 82 44 66 rlinecurve
-140 70 -24 -67 -45 -97 -39 -64 rlinecurve
222 -3 rmoveto
73 -44 65 56 69 79 44 68 rlinecurve
-147 61 -24 -70 -40 -84 -40 -66 rlinecurve
return
                    </CharString>
                    <CharString index="22">
                        -135 vlineto
305 -9 116 95 105 143 -253 48 62 vvcurveto
36 42 12 171 -13 vhcurveto
return
                    </CharString>
                    <CharString index="23">
                        -203 -76 45 139 116 35 43 238 -3 hvcurveto
-8 145 rlineto
-322 -10 -109 -143 -167 vvcurveto
return
                    </CharString>
                    <CharString index="24">
                        235 3 85 65 76 vvcurveto
50 -44 42 -110 21 vhcurveto
return
                    </CharString>
                    <CharString index="25">
                        -72 -228 -66 -231 -61 -229 rrcurveto
161 hlineto
14 55 14 56 14 55 rrcurveto
209 hlineto
return
                    </CharString>
                    <CharString index="26">
                        -153 550 rmoveto
10 hlineto
23 -86 23 -85 22 -86 rrcurveto
-146 hlineto
22 86 23 86 23 85 rrcurveto
endchar
                    </CharString>
                    <CharString index="27">
                        10 132 -280 -2 270 338 rlineto
129 -438 vlineto
-9 -133 272 2 -272 -337 rlineto
-129 vlineto
endchar
                    </CharString>
                    <CharString index="28">
                        rmoveto
-44 -28 23 40 48 25 26 139 -14 hvcurveto
-36 1 -32 1 -27 vhcurveto
-18 -31 -33 -10 -30 hhcurveto
return
                    </CharString>
                    <CharString index="29">
                        198 vlineto
hintmask 10101000
205 399 55 callgsubr
-116 -263 rlineto
hintmask 10011000
-121 266 rlineto
hintmask 11001000
-173 -7 207 -396 rlineto
-197 vlineto
endchar
                    </CharString>
                    <CharString index="30">
                        52 26 29 34 46 vvcurveto
70 -71 45 -93 -116 -59 -67 -60 return
                    </CharString>
                    <CharString index="31">
                        54 callsubr
-21 callgsubr
-94 callsubr
return
                    </CharString>
                    <CharString index="32">
                        -86 callgsubr
67 50 callsubr
23 577 hintmask 0011110010000000
390 34 callsubr
hintmask 0011101110000000
-74 callgsubr
hintmask 0011110010000000
20 callsubr
hintmask 1001101010000000
47 -668 rmoveto
hintmask 0011101010000000
163 8 -57 198 -61 196 -65 199 rlinecurve
-213 hlineto
hintmask 0101101010000000
-65 -199 -59 -200 -57 -198 rrcurveto
158 hlineto
12 46 12 45 11 46 rrcurveto
184 hlineto
hintmask 1001101010000000
12 -47 13 -47 12 -47 rrcurveto
hintmask 0011101010000000
-134 467 rmoveto
10 hlineto
19 -71 19 -72 20 -72 rrcurveto
-126 hlineto
19 72 19 72 20 71 rrcurveto
endchar
                    </CharString>
                    <CharString index="33">
                        rmoveto
62 55 71 92 37 hvcurveto
-79 38 rlineto
-55 -27 -20 -17 -14 return
                    </CharString>
                    <CharString index="34">
                        131 -131 135 344 136 -131 131 hstemhm
60 173 return
                    </CharString>
                    <CharString index="35">
                        rmoveto
-223 -1 -85 53 168 vvcurveto
137 36 53 266 -3 vhcurveto
-9 159 rlineto
-345 -12 -118 -164 -192 vvcurveto
-208 108 -153 357 22 vhcurveto
return
                    </CharString>
                    <CharString index="36">
                        -79 callgsubr
endchar
                    </CharString>
                    <CharString index="37">
                        rmoveto
hintmask 01011100
233 -157 95 -363 -41 vhcurveto
-597 vlineto
hintmask 10101100
341 -43 179 127 226 vvcurveto
-160 -19 rmoveto
-133 -53 -54 -148 17 vhcurveto
358 vlineto
149 12 52 -70 -130 vvcurveto
endchar
                    </CharString>
                    <CharString index="38">
                        115 -108 120 107 112 -112 121 return
                    </CharString>
                    <CharString index="39">
                        93 -14 128 369 78 callgsubr
return
                    </CharString>
                    <CharString index="40">
                        hintmask 10011100
443 -8 rmoveto
hintmask 00111100
172 16 -195 298 178 291 rlineto
-170 hlineto
-134 -232 rlineto
-50 232 -161 hlineto
hintmask 01011100
-597 161 239 45 vlineto
return
                    </CharString>
                    <CharString index="41">
                        rmoveto
73 -18 53 87 32 86 2 107 rlinecurve
-159 -1 11 -88 -1 -85 -11 -88 rlinecurve
return
                    </CharString>
                    <CharString index="42">
                        rmoveto
-379 -137 379 hlineto
return
                    </CharString>
                    <CharString index="43">
                        rmoveto
215 14 62 54 85 251 rrcurveto
hintmask 11011000
50 148 50 173 33 120 rrcurveto
-152 hlineto
-96 -378 rlineto
-12 hlineto
hintmask 10111000
-38 100 -53 185 -34 99 -162 -11 rcurveline
28 -82 125 -345 37 -89 33 -16 rcurveline
-27 -57 -38 -6 -118 -15 rrcurveto
endchar
                    </CharString>
                    <CharString index="44">
                        18 -14 122 -91 -21 29 -21 230 97 108 136 return
                    </CharString>
                    <CharString index="45">
                        176 688 -153 hlineto
2 -413 rlineto
-7 hlineto
-214 413 rlineto
-188 -688 153 hlineto
-3 439 rlineto
8 hlineto
return
                    </CharString>
                    <CharString index="46">
                        453 472 rmoveto
33 callsubr
350 hlineto
-92 callgsubr
-64 12 callsubr
return
                    </CharString>
                    <CharString index="47">
                        24 -9 123 -93 -21 248 95 136 127 74 callsubr
139 156 -138 160 hintmask 10110101
558 180 rmoveto
77 -39 37 -74 23 vhcurveto
hintmask 01101110
57 31 34 46 60 vvcurveto
141 -181 29 -272 -27 vhcurveto
-597 vlineto
hintmask 10110101
270 -32 205 51 161 vvcurveto
-317 299 rmoveto
hintmask 10110110
90 9 49 -21 -53 vvcurveto
-54 -30 -21 -109 4 vhcurveto
hintmask 10110101
-224 vmoveto
129 vlineto
102 7 55 -10 -60 vvcurveto
-62 -41 -20 -116 16 vhcurveto
endchar
                    </CharString>
                    <CharString index="48">
                        23 21 -21 593 7 -3 -20 23 -20 96 163 hstemhm
109.5 157 -44.5 162 -38.5 157 hintmask 10011101
501 676 -104 callsubr
hintmask 10101010
276 -676 rmoveto
198 vlineto
205 399 55 callgsubr
-116 -263 rlineto
hintmask 10011010
-121 266 rlineto
hintmask 11001010
-173 -7 207 -396 rlineto
-197 vlineto
endchar
                    </CharString>
                    <CharString index="49">
                        142 -9 135 -105 -21 292 109 161 136 -10 -20 hstemhm
108 160 240 161 hintmask 10101110
669 66 callgsubr
-287 -66 -109 66 vlineto
hintmask 01101110
-292 vlineto
hintmask 10101110
361 -48 200 145 260 vvcurveto
-401 -227 rmoveto
162 120 vlineto
7 109 rlineto
-127 hlineto
hintmask 10110110
161 vlineto
176 15 64 -85 -157 vvcurveto
hintmask 10101110
-160 -63 -66 -177 21 vhcurveto
endchar
                    </CharString>
                    <CharString index="50">
                        70 -16 140 -107 -27 callsubr
return
                    </CharString>
                    <CharString index="51">
                        450 -14 callsubr
return
                    </CharString>
                    <CharString index="52">
                        223 11 98 64 84 vvcurveto
return
                    </CharString>
                    <CharString index="53">
                        -1 -76 rlineto
112 hlineto
-1 75 rlineto
return
                    </CharString>
                    <CharString index="54">
                        90 11 -21 607 -20 hstemhm
76 161 -22 133 86 161 hintmask 11011000
459 -257 85 callgsubr
-84 11 -40 12 29 vvcurveto
18 18 22 61 33 vhcurveto
96 51 72 69 140 vvcurveto
347 -161 -364 vlineto
-87 -28 -29 -66 vhcurveto
hintmask 11101000
-64 -39 41 97 hvcurveto
342 -161 -362 vlineto
-141 74 -86 127 -18 vhcurveto
hintmask 11011000
-43 -37 -19 -37 -37 vvcurveto
-66 57 -56 187 -14 vhcurveto
endchar
                    </CharString>
                    <CharString index="55">
                        rmoveto
193 170 return
                    </CharString>
                    <CharString index="56">
                        hstem
76 161 197 161 vstem
return
                    </CharString>
                    <CharString index="57">
                        -75 callgsubr
75 163 hstemhm
83 161 -160.5 -29 callgsubr
hintmask 11111010
475 63 callsubr
hintmask 11110110
-79 hmoveto
3 163 rlineto
-157 hlineto
-3 -163 rlineto
409 -545 rmoveto
hintmask 11111010
-95 callsubr
                    </CharString>
                    <CharString index="58">
                        7 0 138 151 113 148 138 return
                    </CharString>
                    <CharString index="59">
                        11 143 -271 -5 260 290 rlineto
135 -434 vlineto
-12 -143 264 5 -262 -289 rlineto
-136 vlineto
endchar
                    </CharString>
                    <CharString index="60">
                        -6 -140 rlineto
312 -5 87 90 91 140 -240 46 58 vvcurveto
32 60 9 150 -15 vhcurveto
return
                    </CharString>
                    <CharString index="61">
                        -688 162 220 vlineto
92 2 rlineto
-92 339 rmoveto
119 10 61 -36 -79 vvcurveto
-49 -26 -41 -44 -28 vhcurveto
-110 -2 rlineto
return
                    </CharString>
                    <CharString index="62">
                        -58 callgsubr
hstemhm
122 133 -67 161 hintmask 11010000
383 -135 rmoveto
hintmask 11100000
-87 11 -41 12 31 vvcurveto
20 20 25 72 36 vhcurveto
123 hlineto
9 117 rlineto
hintmask 11010000
-130 362 126 118 -414 -118 127 -362 hlineto
hintmask 11100000
-127 -117 138 hlineto
-54 -39 -23 -40 -40 35 callgsubr
                    </CharString>
                    <CharString index="63">
                        90 -14 131 480 -20 return
                    </CharString>
                    <CharString index="64">
                        -32 -125 -17 -145 6 -100 return
                    </CharString>
                    <CharString index="65">
                        -75 callgsubr
hstemhm
83 161 -33 134 hintmask 11110000
469 -135 rmoveto
hintmask 11101000
-23 callgsubr
11 127 rlineto
hintmask 11110000
-247 122 200 102 -200 118 241 128 -402 -597 231 hlineto
hintmask 11101000
-73 -42 -30 -43 -44 13 callgsubr
endchar
                    </CharString>
                    <CharString index="66">
                        153 0 199 -178 57 callsubr
return
                    </CharString>
                    <CharString index="67">
                        220 21 -21 376 221 0 -20 hstemhm
83 145.5 341 149.5 hintmask 10111000
354 45 rmoveto
89 hlineto
hintmask 11011000
123 331 rlineto
7 hlineto
-7 -376 rlineto
153 597 -191 hlineto
-118 -326 rlineto
-7 hlineto
-117 326 rlineto
-203 -597 149 hlineto
-7 376 rlineto
6 hlineto
endchar
                    </CharString>
                    <CharString index="68">
                        11 128 rlineto
-243 469 -163 -597 hlineto
return
                    </CharString>
                    <CharString index="69">
                        103 vstem
845 349 rmoveto
233 -178 148 -217 -213 -168 -159 -231 -234 154 -148 218 215 189 160 231 vhcurveto
-673 -5 rmoveto
180 115 111 159 154 142 -115 -176 -179 -136 -112 -160 -154 -120 115 176 vhcurveto
return
                    </CharString>
                    <CharString index="70">
                        rmoveto
443 101 -443 hlineto
return
                    </CharString>
                    <CharString index="71">
                        19 0 278 -257 -21 479 127 -9 -20 hstemhm
83 160 158 159 hintmask 01101100
243 hmoveto
157 vlineto
183 25 134 75 148 vvcurveto
hintmask 01011100
160 -151 67 -326 -35 vhcurveto
-597 vlineto
hintmask 10101100
318 374 rmoveto
-83 -51 -24 -107 15 vhcurveto
197 vlineto
105 8 53 -36 -77 vvcurveto
endchar
                    </CharString>
                    <CharString index="72">
                        -56 -25 -31 -35 -50 vvcurveto
-68 64 -49 105 vhcurveto
return
                    </CharString>
                    <CharString index="73">
                        -25 21 -21 468 129 hstemhm
197 168 -167 163 hintmask 11010000
361 468 -44 callgsubr
-179 -300 rmoveto
79 -25 rlineto
hintmask 11100000
67 60 36 102 1 94 rrcurveto
hintmask 11010000
-181 -8 18 -70 -2 -84 -18 -69 rlinecurve
endchar
                    </CharString>
                    <CharString index="74">
                        90 -14 131 480 87 callgsubr
return
                    </CharString>
                    <CharString index="75">
                        61 callsubr
658 -283 hlineto
-11 -116 135 -9 rlineto
-533 85 callsubr
return
                    </CharString>
                    <CharString index="76">
                        93 -14 125 -81 -21 477 124 -27 -20 47 -20 hstemhm
49 163 250 162 hintmask 10100110
return
                    </CharString>
                    <CharString index="77">
                        -70 callgsubr
hstem
return
                    </CharString>
                    <CharString index="78">
                        -16 631 63 callgsubr
-45 -20 hstemhm
59 451 hintmask 10110000
356 631 -74 callsubr
hhcurveto
hintmask 01010000
-35 -56 79 -67 hhcurveto
-74 callgsubr
hintmask 10110000
20 callsubr
endchar
                    </CharString>
                    <CharString index="79">
                        145 -145 149 414 149 -144 144 hstemhm
61 176 return
                    </CharString>
                    <CharString index="80">
                        -21 29 -21 555 -20 24 -20 25 -20 return
                    </CharString>
                    <CharString index="81">
                        rmoveto
113 103 -211 206 216 199 -111 106 -223 -234 -8 -152 rlineto
return
                    </CharString>
                    <CharString index="82">
                        rmoveto
107 41 48 67 22 19 -6 -11 17 vhcurveto
-156 -221 rlineto
-7 24 -3 27 32 vvcurveto
120 -182 rmoveto
-22 -20 6 12 -17 hvcurveto
156 221 rlineto
7 -24 3 -27 -32 vvcurveto
-108 -40 -48 -67 vhcurveto
-30 -129 rmoveto
157 137 128 185 hvcurveto
return
                    </CharString>
                    <CharString index="83">
                        rmoveto
223 233 8 152 -224 229 -113 return
                    </CharString>
                    <CharString index="84">
                        557 8 -97 callsubr
return
                    </CharString>
                    <CharString index="85">
                        280 0 127 8 110 4 73 callgsubr
397 157 hintmask 10111000
return
                    </CharString>
                    <CharString index="86">
                        hintmask 1001100110000000
419 -10 rmoveto
170 20 -172 294 56 81 52 87 47 83 rlinecurve
hintmask 0011010110000000
-163 11 -37 -76 -39 -71 -46 -68 rlinecurve
-49 -1 rlineto
443 vlineto
hintmask 0101011010000000
-159 -13 rlineto
-780 159 224 vlineto
51 2 rlineto
return
                    </CharString>
                    <CharString index="87">
                        rmoveto
51 33 -25 -89 hvcurveto
-326 159 386 vlineto
return
                    </CharString>
                    <CharString index="88">
                        -18 4 callgsubr
return
                    </CharString>
                    <CharString index="89">
                        rmoveto
33 callsubr
350 hlineto
-92 callgsubr
endchar
                    </CharString>
                    <CharString index="90">
                        -26 callsubr
571 -228 rmoveto
112 103 -210 206 215 199 -111 106 -222 -233 -8 -152 rlineto
endchar
                    </CharString>
                    <CharString index="91">
                        37 callsubr
198 hlineto
119 58 -24 100 -95 -47 rlineto
160 -163 -240 vlineto
-80 -39 24 -100 56 28 rlineto
-246 vlineto
endchar
                    </CharString>
                    <CharString index="92">
                        70 callsubr
-141 hlineto
-2 107 -1 77 -2 71 60 22 67 13 74 3 return
                    </CharString>
                    <CharString index="93">
                        618 rmoveto
-106 callsubr
-55 callsubr
return
                    </CharString>
                    <CharString index="94">
                        57 13 -21 29 -21 29 -21 231 126 232 -20 hstemhm
83 161 return
                    </CharString>
                    <CharString index="95">
                        -56 0 128 469 -20 hstem
83 163 vstem
return
                    </CharString>
                    <CharString index="96">
                        102 21 -21 240 121 236 -20 hstem
82 164 190 164 vstem
436 hmoveto
164 597 -164 -236 -190 236 -164 -597 164 240 190 hlineto
endchar
                    </CharString>
                    <CharString index="97">
                        rmoveto
-199 -206 -74 -161 -162 vvcurveto
-159 73 -158 196 -205 vhcurveto
109 96 rlineto
-170 173 -54 128 131 vvcurveto
129 51 123 175 177 vhcurveto
endchar
                    </CharString>
                    <CharString index="98">
                        -138 236 -31 -59 vvcurveto
-37 -55 -9 -167 10 vhcurveto
return
                    </CharString>
                    <CharString index="99">
                        57 21 -21 685 7 -4 -20 24 -20 hstemhm
238 165 hintmask 10011000
return
                    </CharString>
                    <CharString index="100">
                        -4 callgsubr
-6 callgsubr
return
                    </CharString>
                    <CharString index="101">
                        163 hlineto
23 110 28 237 10 216 rrcurveto
return
                    </CharString>
                    <CharString index="102">
                        64 -16 132 331 132 return
                    </CharString>
                    <CharString index="103">
                        hstemhm
57 152 164 154 return
                    </CharString>
                    <CharString index="104">
                        -48 21 -21 224 116 127 130 hstem
83 163 vstem
442 224 rmoveto
116 -196 127 236 130 -399 -597 163 224 vlineto
endchar
                    </CharString>
                    <CharString index="105">
                        161 47 callgsubr
hstem
91 151.5 256.5 152 vstem
return
                    </CharString>
                    <CharString index="106">
                        -18 6 callgsubr
return
                    </CharString>
                    <CharString index="107">
                        hstem
188 161 vstem
return
                    </CharString>
                    <CharString index="108">
                        -17 0 131 334 132 return
                    </CharString>
                    <CharString index="109">
                        73 -54 -107 28 -197 hhcurveto
-14 -136 228 -6 52 -19 7 -83 rlinecurve
-221 -4 -93 -84 -110 vvcurveto
-91 66 -56 95 95 66 42 46 50 vhcurveto
return
                    </CharString>
                    <CharString index="110">
                        30 0 143.5 402 142.5 return
                    </CharString>
                    <CharString index="111">
                        553 -120 rmoveto
14 133 -244 3 -73 24 -5 92 rlinecurve
334 6 rlineto
206 20 -74 128 -156 hhcurveto
-76 -71 -40 -65 -47 hvcurveto
return
                    </CharString>
                    <CharString index="112">
                        rmoveto
179 140 -519 hlineto
-11 -140 rlineto
185 -548 166 hlineto
return
                    </CharString>
                    <CharString index="113">
                        140 0 185 -164 -21 563 -20 return
                    </CharString>
                    <CharString index="114">
                        120 142 120 vstem
return
                    </CharString>
                    <CharString index="115">
                        113 129 116 vstem
return
                    </CharString>
                    <CharString index="116">
                        430 hmoveto
-87 callsubr
return
                    </CharString>
                    <CharString index="117">
                        -46 callgsubr
endchar
                    </CharString>
                    <CharString index="118">
                        hstem
51 155 181 154 vstem
return
                    </CharString>
                    <CharString index="119">
                        -184 -37 callsubr
return
                    </CharString>
                    <CharString index="120">
                        23 11 -21 31 -21 31 -21 215 125.5 204.5 -20 31 -20 234 -20 33 -20 hstemhm
79 159 return
                    </CharString>
                    <CharString index="121">
                        205 rmoveto
-83 callsubr
return
                    </CharString>
                    <CharString index="122">
                        136 -136 140 313 133 return
                    </CharString>
                    <CharString index="123">
                        485 -10 rmoveto
177 20 -217 344 198 334 rlineto
-174 hlineto
-152 -270 rlineto
-62 270 -164 hlineto
return
                    </CharString>
                    <CharString index="124">
                        rmoveto
-64 -54 56 116 102 42 49 73 22 25 -4 -8 27 hvcurveto
1 -114 1 -99 2 -75 rrcurveto
-15 -25 -26 -8 -24 hhcurveto
return
                    </CharString>
                    <CharString index="125">
                        201 47 callgsubr
hstem
59 164 vstem
return
                    </CharString>
                    <CharString index="126">
                        -158 -13 rlineto
-193 vlineto
-195 -151 -119 -210 -162 93 -104 117 62 50 29 37 37 hvcurveto
endchar
                    </CharString>
                    <CharString index="127">
                        35 56 -79 68 hhcurveto
return
                    </CharString>
                    <CharString index="128">
                        hmoveto
33 callsubr
350 hlineto
-92 callgsubr
endchar
                    </CharString>
                    <CharString index="129">
                        218 rmoveto
33 callsubr
hlineto
return
                    </CharString>
                    <CharString index="130">
                        -15 0 140 548 -20 hstem
91 166 return
                    </CharString>
                    <CharString index="131">
                        69 30 callgsubr
return
                    </CharString>
                    <CharString index="132">
                        14 -176 -21 760 -20 26 -20 return
                    </CharString>
                    <CharString index="133">
                        133 -112 -21 434 152 return
                    </CharString>
                    <CharString index="134">
                        -113 -142 vvcurveto
-5 -110 vlineto
-12 -122 rlineto
122 -284 -117 -120 404 hlineto
endchar
                    </CharString>
                    <CharString index="135">
                        104 236 110 return
                    </CharString>
                    <CharString index="136">
                        -16 653 137 hstem
93 379 vstem
472 790 -65 callsubr
endchar
                    </CharString>
                    <CharString index="137">
                        28 callsubr
hstem
return
                    </CharString>
                    <CharString index="138">
                        15 -32 -36 8 -40 hhcurveto
-157 -138 -128 -185 -80 21 -65 36 -47 hvcurveto
-45 -64 rlineto
return
                    </CharString>
                    <CharString index="139">
                        108 146 -20 113 104 return
                    </CharString>
                    <CharString index="140">
                        8 102 rlineto
-104 return
                    </CharString>
                    <CharString index="141">
                        664 -74 callsubr
-35 -56 79 -67 hhcurveto
return
                    </CharString>
                    <CharString index="142">
                        hstemhm
23 577 return
                    </CharString>
                    <CharString index="143">
                        1062 hstemhm
95 150 -149 155 -74 150 -143 140 hintmask 10100000
400 return
                    </CharString>
                    <CharString index="144">
                        -12 callsubr
478 hmoveto
11 128 rlineto
-243 return
                    </CharString>
                    <CharString index="145">
                        -102 callgsubr
85 return
                    </CharString>
                    <CharString index="146">
                        -44 callgsubr
endchar
                    </CharString>
                    <CharString index="147">
                        21 -21 440 139 return
                    </CharString>
                    <CharString index="148">
                        rmoveto
-79 25 -67 -59 -36 -103 -1 -93 rlinecurve
182 7 -18 71 1 83 18 69 rlinecurve
return
                    </CharString>
                    <CharString index="149">
                        hstemhm
156 149 -146 140 -67 155 -149 150 hintmask 10001000
79 return
                    </CharString>
                    <CharString index="150">
                        0 -12 3 -4 5 5 3 4 0 hflex1
return
                    </CharString>
                    <CharString index="151">
                        83 callsubr
240 117 return
                    </CharString>
                    <CharString index="152">
                        -78 -8 132 311 128 146 -20 return
                    </CharString>
                    <CharString index="153">
                        100 260 101 hstem
return
                    </CharString>
                    <CharString index="154">
                        108 239 104 return
                    </CharString>
                    <CharString index="155">
                        104 91 114 return
                    </CharString>
                    <CharString index="156">
                        97 -10 128 422 160 return
                    </CharString>
                    <CharString index="157">
                        129 -82 -20 52 129 hstemhm
return
                    </CharString>
                    <CharString index="158">
                        hstem
210 158 vstem
return
                    </CharString>
                    <CharString index="159">
                        -70 -211 rlineto
-5 hlineto
-71 211 rlineto
-169 -411 114 hlineto
return
                    </CharString>
                    <CharString index="160">
                        0 173.5 -98.5 16 callgsubr
hstemhm
return
                    </CharString>
                    <CharString index="161">
                        104 -173 vlineto
return
                    </CharString>
                    <CharString index="162">
                        102 182 93 return
                    </CharString>
                    <CharString index="163">
                        rmoveto
-247 122 200 102 -200 118 241 128 return
                    </CharString>
                    <CharString index="164">
                        -21 597 -20 return
                    </CharString>
                    <CharString index="165">
                        70 -71 45 -93 -116 -59 -67 -60 -26 callgsubr
return
                    </CharString>
                    <CharString index="166">
                        -20 68 callsubr
return
                    </CharString>
                    <CharString index="167">
                        128 726 128 hstem
return
                    </CharString>
                    <CharString index="168">
                        70 callsubr
-133 return
                    </CharString>
                    <CharString index="169">
                        -273 14 -99 -101 -95 return
                    </CharString>
                    <CharString index="170">
                        672 rmoveto
3 163 rlineto
-157 hlineto
-3 -163 rlineto
return
                    </CharString>
                    <CharString index="171">
                        hstemhm
49 166 return
                    </CharString>
                    <CharString index="172">
                        47 27 24 136 -4 vhcurveto
-34 4 -31 10 -29 vhcurveto
return
                    </CharString>
                    <CharString index="173">
                        218 rmoveto
54 callsubr
-21 callgsubr
return
                    </CharString>
                    <CharString index="174">
                        rmoveto
82 hlineto
77 224 rlineto
6 hlineto
-5 -262 rlineto
return
                    </CharString>
                    <CharString index="175">
                        hstemhm
81 -18 callgsubr
return
                    </CharString>
                    <CharString index="176">
                        -18 -246 47 callsubr
return
                    </CharString>
                    <CharString index="177">
                        12 120 rlineto
return
                    </CharString>
                    <CharString index="178">
                        hstemhm
57 152 163 154 183 154 return
                    </CharString>
                    <CharString index="179">
                        56 -174 -21 179 140 322 133 return
                    </CharString>
                    <CharString index="180">
                        539 -11 88 -75 -21 return
                    </CharString>
                    <CharString index="181">
                        -9 -20 hstemhm
83 158 return
                    </CharString>
                    <CharString index="182">
                        hstemhm
59 170 return
                    </CharString>
                    <CharString index="183">
                        -20 hstemhm
62 175 268 155 hintmask 01111100
return
                    </CharString>
                    <CharString index="184">
                        0 127 122 102 118 128 hstem
return
                    </CharString>
                    <CharString index="185">
                        152 110 7 -20 hstemhm
283 123 return
                    </CharString>
                    <CharString index="186">
                        hhcurveto
64 54 -55 -117 -103 -41 -47 -72 hvcurveto
return
                    </CharString>
                    <CharString index="187">
                        hintmask 000000001000000000000000000000000000000000000000
return
                    </CharString>
                    <CharString index="188">
                        -20 hstemhm
22 547 hintmask 10111000
return
                    </CharString>
                    <CharString index="189">
                        -52 callsubr
-70 75 return
                    </CharString>
                    <CharString index="190">
                        101 83 55 callsubr
hstemhm
return
                    </CharString>
                    <CharString index="191">
                        hstem
76 473 vstem
549 return
                    </CharString>
                    <CharString index="192">
                        -132 -120 vlineto
return
                    </CharString>
                    <CharString index="193">
                        141 407 159 hstem
55 170 return
                    </CharString>
                    <CharString index="194">
                        -29 -9 131 -107 -21 468 145 return
                    </CharString>
                    <CharString index="195">
                        1052 hstem
260 154 vstem
140 return
                    </CharString>
                    <CharString index="196">
                        95 109 79 return
                    </CharString>
                <CharString name=".notdef">
                    -81 -200 50 900 50 hstem
0 50 400 50 vstem
-200 vmoveto
500 1000 -500 hlineto
71 -50 rmoveto
358 hlineto
-179 -390 rlineto
200 316 rmoveto
-752 vlineto
-172 376 rlineto
-228 -376 rmoveto
752 vlineto
172 -376 rlineto
28 -60 rmoveto
179 -390 rlineto
-358 hlineto
endchar
                </CharString>
                <CharString name="A">
                    -62 callgsubr
76 callgsubr
hintmask 10011100
479 -5 -91 callgsubr
                </CharString>
                <CharString name="A.sc">
                    -86 callgsubr
hstemhm
23 577 hintmask 10011100
437 -4 -103 callgsubr
                </CharString>
                <CharString name="AE">
                    34 callgsubr
418 550 -40 callgsubr
                </CharString>
                <CharString name="AE.sc">
                    -22 callsubr
388 472 -83 callgsubr
                </CharString>
                <CharString name="AEacute">
                    34 callgsubr
399 817 -107 callgsubr
19 -267 -40 callgsubr
                </CharString>
                <CharString name="AEacute.sc">
                    -22 callsubr
360 725 -107 callgsubr
28 -253 -83 callgsubr
                </CharString>
                <CharString name="Aacute">
                    -62 callgsubr
76 callgsubr
hintmask 00111100
190 817 -107 callgsubr
hintmask 10011100
289 -822 -91 callgsubr
                </CharString>
                <CharString name="Aacute.sc">
                    -86 callgsubr
hstemhm
23 577 hintmask 00111100
168 725 -107 callgsubr
hintmask 10011100
269 -729 -103 callgsubr
                </CharString>
                <CharString name="Abreve">
                    -62 callgsubr
63 127 76 callgsubr
hintmask 00111110
333 751 -106 callgsubr
hintmask 10011110
146 -756 rmoveto
hintmask 00111110
166 10 -62 229 -67 226 -72 228 rlinecurve
-221 hlineto
hintmask 01011110
-82 callsubr
hintmask 10011110
15 -57 14 -57 14 -57 rrcurveto
hintmask 00111110
-81 callsubr
                </CharString>
                <CharString name="Abreve.sc">
                    -86 callgsubr
62 127 35 callsubr
hintmask 00111110
311 659 -106 callgsubr
hintmask 10011110
126 -663 -103 callsubr
                </CharString>
                <CharString name="Acircumflex">
                    -62 callgsubr
76 callgsubr
hintmask 00111100
450 747 -102 callgsubr
hintmask 10011100
154 -854 -91 callgsubr
                </CharString>
                <CharString name="Acircumflex.sc">
                    -86 callgsubr
hstemhm
23 577 hintmask 00111100
427 655 -102 callgsubr
hintmask 10011100
135 -761 -103 callgsubr
                </CharString>
                <CharString name="Adieresis">
                    -62 callgsubr
75 callgsubr
135.5 -29 callgsubr
hintmask 00111111
527 -15 callgsubr
hintmask 10011111
345 -769 rmoveto
hintmask 00111111
166 10 -62 229 -67 226 -72 228 rlinecurve
-221 hlineto
hintmask 01011111
-82 callsubr
hintmask 10011111
15 -57 14 -57 14 -57 rrcurveto
hintmask 00111111
-81 callsubr
                </CharString>
                <CharString name="Adieresis.sc">
                    -69 callgsubr
                </CharString>
                <CharString name="Agrave">
                    -62 callgsubr
76 callgsubr
hintmask 00111100
465 815 -102 callsubr
hintmask 10011100
53 -750 -91 callgsubr
                </CharString>
                <CharString name="Agrave.sc">
                    -86 callgsubr
198 -20 35 callsubr
hintmask 00111110
443 723 -102 callsubr
hintmask 10011110
33 -657 -103 callsubr
                </CharString>
                <CharString name="Amacron">
                    -62 callgsubr
90 137 76 callgsubr
hintmask 00111110
520 915 -65 callsubr
hintmask 10011110
-41 -783 rmoveto
hintmask 00111110
166 10 -62 229 -67 226 -72 228 rlinecurve
-221 hlineto
hintmask 01011110
-82 callsubr
hintmask 10011110
15 -57 14 -57 14 -57 rrcurveto
hintmask 00111110
-81 callsubr
                </CharString>
                <CharString name="Amacron.sc">
                    -86 callgsubr
89 137 35 callsubr
hintmask 00111110
498 823 -65 callsubr
hintmask 10011110
-61 -690 -103 callsubr
                </CharString>
                <CharString name="Aogonek">
                    88 21 -21 26 -21 25 -21 157 122 257 143 76 callgsubr
-268 133 hintmask 01011010
622 -252 rmoveto
12 122 rlineto
-84 9 -40 12 25 vvcurveto
22 28 27 107 40 vhcurveto
-62 229 -67 226 -72 228 rrcurveto
-221 hlineto
hintmask 10011010
-82 callsubr
hintmask 00111010
13 -52 13 -53 13 -52 rrcurveto
-70 -43 -28 -44 -43 vvcurveto
hintmask 01011010
-62 57 -56 188 -13 vhcurveto
-296 797 rmoveto
10 hlineto
hintmask 00111100
23 -86 23 -85 22 -86 rrcurveto
-146 hlineto
hintmask 01011010
22 86 23 86 23 85 rrcurveto
endchar
                </CharString>
                <CharString name="Aogonek.sc">
                    -68 callgsubr
                </CharString>
                <CharString name="Aring">
                    -62 callgsubr
53 250 76 callgsubr
hintmask 00111110
330 991 -80 callgsubr
hintmask 10011110
149 -996 rmoveto
hintmask 00111110
166 10 -62 229 -67 226 -72 228 rlinecurve
-221 hlineto
hintmask 01011110
-82 callsubr
hintmask 10011110
15 -57 14 -57 14 -57 rrcurveto
hintmask 00111110
-81 callsubr
                </CharString>
                <CharString name="Aring.sc">
                    -86 callgsubr
52 250 35 callsubr
hintmask 00111110
307 899 -80 callgsubr
hintmask 10011110
130 -903 -103 callsubr
                </CharString>
                <CharString name="Aringacute">
                    -62 callgsubr
76 callgsubr
hintmask 00111100
190 1092 -107 callgsubr
140 -101 -80 callgsubr
hintmask 10011100
149 -996 -91 callgsubr
                </CharString>
                <CharString name="Aringacute.sc">
                    -86 callgsubr
hstemhm
23 577 hintmask 00111100
168 1000 -107 callgsubr
139 -101 -80 callgsubr
hintmask 10011100
130 -903 -103 callgsubr
                </CharString>
                <CharString name="Atilde">
                    -62 callgsubr
68 63 callgsubr
76 callgsubr
hintmask 00111101
412 756 -74 callsubr
hhcurveto
hintmask 00111011
-35 -56 79 -67 hhcurveto
-74 callgsubr
hintmask 00111101
20 callsubr
hintmask 10011101
67 -761 rmoveto
hintmask 00111101
166 10 -62 229 -67 226 -72 228 rlinecurve
-221 hlineto
hintmask 01011101
-82 callsubr
hintmask 10011101
15 -57 14 -57 14 -57 rrcurveto
hintmask 00111101
-81 callsubr
                </CharString>
                <CharString name="Atilde.sc">
                    -75 callsubr
                </CharString>
                <CharString name="B">
                    67 -10 130 -99 -21 287 110 167 134 -10 -20 hstemhm
91 161 165 157 -138 162 hintmask 10101101
598 209 rmoveto
80 -38 50 -85 28 vhcurveto
hintmask 01101110
62 36 37 53 68 vvcurveto
162 -194 32 -289 -30 vhcurveto
-688 vlineto
hintmask 10101101
287 -35 220 57 187 vvcurveto
hintmask 10110110
-346 355 rmoveto
109 11 56 -27 -65 vvcurveto
-66 -37 -25 -128 5 vhcurveto
hintmask 10101101
-272 vmoveto
162 vlineto
119 8 65 -13 -75 vvcurveto
-75 -51 -24 -133 17 vhcurveto
endchar
                </CharString>
                <CharString name="B.sc">
                    -60 callsubr
                </CharString>
                <CharString name="C">
                    13 -8 86 callsubr
vstem
533 133 -72 callsubr
endchar
                </CharString>
                <CharString name="C.sc">
                    -33 callgsubr
10 callgsubr
hintmask 01110000
-181 97 -136 336 24 vhcurveto
endchar
                </CharString>
                <CharString name="Cacute">
                    44 callgsubr
hstemhm
55 170 hintmask 01110000
192 823 -107 callgsubr
hintmask 10110000
341 -690 -72 callsubr
endchar
                </CharString>
                <CharString name="Cacute.sc">
                    -33 callgsubr
163 731 -107 callgsubr
331 -609 rmoveto
-84 callsubr
hintmask 01110000
-181 97 -136 336 24 vhcurveto
endchar
                </CharString>
                <CharString name="Ccaron">
                    44 callgsubr
hstemhm
55 170 hintmask 01110000
347 748 -100 callsubr
hintmask 10110000
202 -615 -72 callsubr
endchar
                </CharString>
                <CharString name="Ccaron.sc">
                    -33 callgsubr
318 657 -100 callsubr
192 -535 rmoveto
-84 callsubr
hintmask 01110000
-181 97 -136 336 24 vhcurveto
endchar
                </CharString>
                <CharString name="Ccedilla">
                    13 -282 115 159 86 callsubr
114 111 vstem
533 133 -72 callsubr
-276 -94 -88 callgsubr
                </CharString>
                <CharString name="Ccedilla.sc">
                    -56 callgsubr
                </CharString>
                <CharString name="Cdotaccent">
                    44 callgsubr
73 163 hstemhm
55 170 31.5 164 hintmask 01111100
418 772 -81 callgsubr
hintmask 10111100
279 -639 -72 callsubr
endchar
                </CharString>
                <CharString name="Cdotaccent.sc">
                    -48 callgsubr
                </CharString>
                <CharString name="D">
                    29 callgsubr
652 357 -19 callgsubr
                </CharString>
                <CharString name="D.sc">
                    -24 callgsubr
603 310 -70 callsubr
                </CharString>
                <CharString name="Dcaron">
                    29 callgsubr
348 750 -100 callsubr
320 -393 -19 callgsubr
                </CharString>
                <CharString name="Dcaron.sc">
                    -24 callgsubr
322 658 -100 callsubr
297 -348 -70 callsubr
                </CharString>
                <CharString name="Dcroat">
                    -58 callsubr
                </CharString>
                <CharString name="Dcroat.sc">
                    -89 callsubr
                </CharString>
                <CharString name="E">
                    -49 callsubr
hstem
91 164 vstem
529 138 rmoveto
-76 callgsubr
                </CharString>
                <CharString name="E.sc">
                    -30 77 callsubr
83 161 vstem
491 127 rmoveto
-95 callsubr
                </CharString>
                <CharString name="Eacute">
                    -49 callsubr
hstem
91 164 vstem
162 817 -107 callgsubr
367 -679 rmoveto
-76 callgsubr
                </CharString>
                <CharString name="Eacute.sc">
                    -30 77 callsubr
83 161 vstem
139 725 -107 callgsubr
352 -598 rmoveto
-95 callsubr
                </CharString>
                <CharString name="Ebreve">
                    -49 callsubr
63 127 hstem
91 164 vstem
304 751 -106 callgsubr
225 -613 rmoveto
-76 callgsubr
                </CharString>
                <CharString name="Ebreve.sc">
                    -75 callgsubr
62 127 20 callgsubr
282 659 -106 callgsubr
209 -532 rmoveto
-95 callsubr
                </CharString>
                <CharString name="Ecaron">
                    -49 callsubr
hstem
91 164 vstem
316 740 -100 callsubr
229 -602 rmoveto
-76 callgsubr
                </CharString>
                <CharString name="Ecaron.sc">
                    -75 callgsubr
195 -20 20 callgsubr
294 648 -100 callsubr
213 -521 rmoveto
-95 callsubr
                </CharString>
                <CharString name="Ecircumflex">
                    -49 callsubr
hstem
91 164 vstem
421 747 -102 callgsubr
233 -711 rmoveto
-76 callgsubr
                </CharString>
                <CharString name="Ecircumflex.sc">
                    -30 77 callsubr
83 161 vstem
398 655 -102 callgsubr
218 -630 rmoveto
-95 callsubr
                </CharString>
                <CharString name="Edieresis">
                    -49 callsubr
75 callgsubr
91 164 -148.5 -29 callgsubr
hintmask 11111010
498 764 rmoveto
3 163 rlineto
-157 hlineto
-3 -163 rlineto
hintmask 11110110
-79 hmoveto
3 163 rlineto
-157 hlineto
-3 -163 rlineto
424 -626 rmoveto
hintmask 11111010
-76 callgsubr
                </CharString>
                <CharString name="Edieresis.sc">
                    -50 callsubr
                </CharString>
                <CharString name="Edotaccent">
                    -49 callsubr
75 callgsubr
91 164 -29.5 164 hintmask 11110100
387 764 -81 callgsubr
306 -626 rmoveto
hintmask 11111000
-76 callgsubr
                </CharString>
                <CharString name="Edotaccent.sc">
                    -75 callgsubr
75 163 hstemhm
83 161 -41.5 164 hintmask 11110100
364 672 -81 callgsubr
291 -545 rmoveto
hintmask 11111000
-95 callsubr
                </CharString>
                <CharString name="Egrave">
                    -49 callsubr
hstem
91 164 vstem
436 815 -102 callsubr
132 -607 rmoveto
-76 callgsubr
                </CharString>
                <CharString name="Egrave.sc">
                    -75 callgsubr
198 -20 20 callgsubr
413 723 -102 callsubr
117 -526 rmoveto
-95 callsubr
                </CharString>
                <CharString name="Emacron">
                    -49 callsubr
90 137 hstem
91 164 vstem
491 915 -65 callsubr
38 -640 rmoveto
-76 callgsubr
                </CharString>
                <CharString name="Emacron.sc">
                    -75 callgsubr
89 137 20 callgsubr
468 823 -65 callsubr
23 -559 rmoveto
-95 callsubr
                </CharString>
                <CharString name="Eogonek">
                    -49 callsubr
hstemhm
91 164 -7 134 hintmask 11110000
506 -135 rmoveto
hintmask 11101000
-23 callgsubr
12 138 rlineto
hintmask 11110000
-274 151 223 113 -223 148 266 138 -430 -688 260 hlineto
hintmask 11101000
-73 -42 -30 -43 -44 13 callgsubr
endchar
                </CharString>
                <CharString name="Eogonek.sc">
                    -42 callsubr
                </CharString>
                <CharString name="Eth">
                    -58 callsubr
                </CharString>
                <CharString name="Eth.sc">
                    -89 callsubr
                </CharString>
                <CharString name="Euro">
                    43 -3 -21 216 109 -93 95 64 96 hstemhm
121 146 hintmask 10111000
551 107 rmoveto
-157 21 -71 29 -31 51 rrcurveto
197 hlineto
5 95 rlineto
-226 hlineto
-1 15 0 15 17 6 0 6 5 vvcurveto
232 hlineto
5 96 rlineto
-223 hlineto
25 57 66 21 170 22 -23 152 rcurveline
-249 -42 -98 -85 -35 -112 rrcurveto
-79 -109 63 hlineto
hintmask 11011000
-7 0 -7 -7 vvcurveto
-15 0 -16 1 -14 vhcurveto
-63 -109 81 hlineto
38 -124 105 -73 249 -19 rrcurveto
endchar
                </CharString>
                <CharString name="F">
                    -6 21 -21 266 124 158 140 hstem
91 166 vstem
477 266 rmoveto
124 -220 158 263 140 -429 -688 166 266 vlineto
endchar
                </CharString>
                <CharString name="F.sc">
                    -3 callsubr
                </CharString>
                <CharString name="G">
                    49 callsubr
hstem
55 167 229 153 vstem
605 10 -73 callgsubr
endchar
                </CharString>
                <CharString name="G.sc">
                    2 callgsubr
hstem
49 163 197 147 vstem
-23 callsubr
endchar
                </CharString>
                <CharString name="Gbreve">
                    49 callsubr
59 127 hstem
55 167 229 153 vstem
363 759 -106 callgsubr
242 -749 -73 callgsubr
endchar
                </CharString>
                <CharString name="Gbreve.sc">
                    2 callgsubr
61 127 hstem
49 163 197 147 vstem
333 668 -106 callgsubr
224 -660 -97 callsubr
endchar
                </CharString>
                <CharString name="Gcommaaccent">
                    49 callsubr
hstemhm
55 167 62 168 -1 153 hintmask 11101000
605 10 -73 callgsubr
hintmask 11110000
-336 -320 -100 callgsubr
                </CharString>
                <CharString name="Gcommaaccent.sc">
                    -57 callgsubr
                </CharString>
                <CharString name="Gdotaccent">
                    49 callsubr
72 163 hstemhm
55 167 62.5 164 2.5 153 hintmask 11111000
446 772 -81 callgsubr
hintmask 11110100
323 -762 -73 callgsubr
endchar
                </CharString>
                <CharString name="Gdotaccent.sc">
                    2 callgsubr
90 callgsubr
49 163 42.5 164 -9.5 147 hintmask 11111000
416 681 -81 callgsubr
hintmask 11110100
305 -673 -97 callsubr
endchar
                </CharString>
                <CharString name="H">
                    157 21 -21 282 128 278 -20 hstem
91 166 223 167 vstem
480 hmoveto
167 688 -167 -278 -223 278 -166 -688 166 282 223 hlineto
endchar
                </CharString>
                <CharString name="H.sc">
                    -11 callsubr
                </CharString>
                <CharString name="Hbar">
                    196 21 -21 253 127 96 109 -104 98 -98 207 hstemhm
110 166 224 166 hintmask 11010110
500 380 rmoveto
-224 101 224 hlineto
-481 vmoveto
166 hlineto
hintmask 11100110
476 67 109 -67 vlineto
hintmask 11001110
103 -166 vlineto
hintmask 11010110
-109 -224 vlineto
hintmask 11001110
109 -166 vlineto
hintmask 11100110
-103 -65 -109 65 -476 166 253 224 vlineto
endchar
                </CharString>
                <CharString name="Hbar.sc">
                    -42 callgsubr
                </CharString>
                <CharString name="I">
                    -5 callgsubr
hstem
211 164 vstem
375 560 -77 callgsubr
                </CharString>
                <CharString name="I.sc">
                    -58 callgsubr
0 callsubr
349 479 -97 callgsubr
                </CharString>
                <CharString name="Iacute">
                    -5 callgsubr
hstem
211 164 vstem
155 817 31 callgsubr
-257 -77 callgsubr
                </CharString>
                <CharString name="Iacute.sc">
                    -58 callgsubr
0 callsubr
130 725 -107 callgsubr
219 -246 -97 callgsubr
                </CharString>
                <CharString name="Ibreve">
                    -5 callgsubr
63 127 hstem
211 164 vstem
297 751 -106 callgsubr
78 -191 -77 callgsubr
                </CharString>
                <CharString name="Ibreve.sc">
                    -58 callgsubr
62 127 0 callsubr
272 659 -106 callgsubr
77 -180 -97 callgsubr
                </CharString>
                <CharString name="Icircumflex">
                    -5 callgsubr
hstem
211 164 vstem
414 747 -102 callgsubr
86 -289 -77 callgsubr
                </CharString>
                <CharString name="Icircumflex.sc">
                    -58 callgsubr
0 callsubr
389 655 38 callsubr
-278 -97 callgsubr
                </CharString>
                <CharString name="Idieresis">
                    -5 callgsubr
75 callgsubr
99.5 157 -45.5 164 -39.5 157 hintmask 11110100
491 -15 callgsubr
hintmask 11101000
277 -204 -77 callgsubr
                </CharString>
                <CharString name="Idieresis.sc">
                    -58 callgsubr
75 163 hstemhm
74.5 157 -43.5 161 -38.5 157 hintmask 11110100
466 672 -104 callsubr
hintmask 11101000
276 -193 -97 callgsubr
                </CharString>
                <CharString name="Idotaccent">
                    -5 callgsubr
75 callgsubr
211 164 -156.5 164 hintmask 11101000
380 764 -81 callgsubr
hintmask 11110000
159 -204 -77 callgsubr
                </CharString>
                <CharString name="Idotaccent.sc">
                    -58 callgsubr
75 163 hstemhm
188 161 -155.5 164 hintmask 11101000
355 672 -81 callgsubr
hintmask 11110000
158 -193 -97 callgsubr
                </CharString>
                <CharString name="Igrave">
                    -5 callgsubr
hstem
211 164 vstem
429 815 -102 callsubr
-15 -185 -77 callgsubr
                </CharString>
                <CharString name="Igrave.sc">
                    -58 callgsubr
198 -20 0 callsubr
404 723 38 callgsubr
-174 -97 callgsubr
                </CharString>
                <CharString name="Imacron">
                    -5 callgsubr
90 137 hstem
211 164 vstem
484 915 -65 callsubr
-109 -218 -77 callgsubr
                </CharString>
                <CharString name="Imacron.sc">
                    -58 callgsubr
89 137 0 callsubr
459 823 -65 callsubr
-110 -207 -97 callgsubr
                </CharString>
                <CharString name="Iogonek">
                    -5 callgsubr
hstemhm
145 133 -67 164 hintmask 11010000
406 -135 rmoveto
hintmask 11100000
-87 11 -41 12 31 vvcurveto
20 20 25 72 36 vhcurveto
139 hlineto
11 128 rlineto
hintmask 11010000
-145 432 139 128 -442 -128 139 -432 hlineto
hintmask 11100000
-139 -128 156 hlineto
-59 -39 -24 -39 -41 35 callgsubr
                </CharString>
                <CharString name="Iogonek.sc">
                    -45 callsubr
                </CharString>
                <CharString name="J">
                    -59 -10 140 -140 143 422 133 hstemhm
275 166 hintmask 10110000
88 688 rmoveto
-133 187 -313 vlineto
hintmask 01110000
-104 -9 -16 -210 11 vhcurveto
hintmask 10110000
-143 vlineto
288 -8 97 100 163 vvcurveto
443 vlineto
endchar
                </CharString>
                <CharString name="J.sc">
                    -13 callgsubr
                </CharString>
                <CharString name="K">
                    105 11 -21 31 -21 279 139 270 -20 hstemhm
91 164 hintmask 10111000
16 callsubr
hintmask 01111000
-688 164 279 55 vlineto
endchar
                </CharString>
                <CharString name="K.sc">
                    -13 callsubr
-67 callsubr
endchar
                </CharString>
                <CharString name="Kcommaaccent">
                    105 11 -21 31 -21 31 -21 269 139 270 -20 hstemhm
91 164 15 168 hintmask 10011100
16 callsubr
hintmask 01011100
-688 164 279 55 vlineto
hintmask 00111110
-55 -589 -100 callgsubr
                </CharString>
                <CharString name="Kcommaaccent.sc">
                    -13 callsubr
-2 168 -67 callsubr
hintmask 00111010
-62 -547 -100 callgsubr
                </CharString>
                <CharString name="L">
                    23 callsubr
vstem
57 callgsubr
endchar
                </CharString>
                <CharString name="L.sc">
                    37 callsubr
469 -163 -597 hlineto
endchar
                </CharString>
                <CharString name="Lacute">
                    23 callsubr
vstem
157 817 -107 callgsubr
358 -817 rmoveto
11 callgsubr
endchar
                </CharString>
                <CharString name="Lacute.sc">
                    -12 callsubr
132 725 -107 callgsubr
346 -725 rmoveto
-39 callsubr
endchar
                </CharString>
                <CharString name="Lcaron">
                    23 callsubr
118 151 vstem
366 504 -66 callsubr
149 -504 rmoveto
11 callgsubr
endchar
                </CharString>
                <CharString name="Lcaron.sc">
                    -56 0 128 469 -20 134 -20 hstem
83 163 97 151 vstem
334 449 -66 callsubr
144 -449 rmoveto
-39 callsubr
endchar
                </CharString>
                <CharString name="Lcommaaccent">
                    -15 0 140 548 -20 hstemhm
91 166 -37 168 hintmask 11100000
57 callgsubr
hintmask 11010000
114 -300 -100 callgsubr
                </CharString>
                <CharString name="Lcommaaccent.sc">
                    -22 callgsubr
                </CharString>
                <CharString name="Ldot">
                    -15 0 140 143 165 240 -20 hstem
91 166 120.5 146.5 vstem
57 callgsubr
428 283 rmoveto
10 165 rlineto
-147 hlineto
-9 -165 rlineto
endchar
                </CharString>
                <CharString name="Ldot.sc">
                    -20 callgsubr
                </CharString>
                <CharString name="Lslash">
                    23 callsubr
vstem
515 hmoveto
12 140 rlineto
-270 232 hlineto
124 61 -23 105 -101 -50 rlineto
200 -166 -282 vlineto
-80 -39 23 -105 57 28 rlineto
-290 vlineto
endchar
                </CharString>
                <CharString name="Lslash.sc">
                    -16 callsubr
                </CharString>
                <CharString name="M">
                    293 21 -21 454 234 0 -20 hstemhm
91 148.5 388 155.5 hintmask 10111000
581 688 rmoveto
-135 -393 rlineto
-8 hlineto
-133 393 rlineto
-214 -688 152 hlineto
hintmask 11011000
-7 454 rlineto
7 hlineto
141 -402 rlineto
99 hlineto
140 402 rlineto
8 hlineto
-7 -454 rlineto
159 688 hlineto
endchar
                </CharString>
                <CharString name="M.sc">
                    -40 callsubr
                </CharString>
                <CharString name="N">
                    -2 callsubr
475 hmoveto
-62 callsubr
endchar
                </CharString>
                <CharString name="N.sc">
                    98 21 -21 597 1 callgsubr
9 callsubr
endchar
                </CharString>
                <CharString name="NUL">
                    -581 endchar
                </CharString>
                <CharString name="Nacute">
                    -2 callsubr
231 817 -107 callgsubr
244 -817 rmoveto
-62 callsubr
endchar
                </CharString>
                <CharString name="Nacute.sc">
                    98 21 -21 597 1 callgsubr
200 725 -107 callgsubr
230 -725 rmoveto
-87 callsubr
endchar
                </CharString>
                <CharString name="Ncaron">
                    -2 callsubr
386 740 -100 callsubr
105 -740 rmoveto
-62 callsubr
endchar
                </CharString>
                <CharString name="Ncaron.sc">
                    74 callgsubr
215 1 callgsubr
354 648 -100 callsubr
92 -648 rmoveto
-87 callsubr
endchar
                </CharString>
                <CharString name="Ncommaaccent">
                    161 47 callgsubr
hstem
91 151.5 52.5 168 36 152 vstem
475 hmoveto
-62 callsubr
31 -739 -100 callgsubr
                </CharString>
                <CharString name="Ncommaaccent.sc">
                    -39 callgsubr
                </CharString>
                <CharString name="Ntilde">
                    161 47 callgsubr
88 63 callgsubr
hstemhm
91 151.5 256.5 152 hintmask 11101100
453 756 -74 callsubr
hhcurveto
hintmask 11011100
-35 -56 79 -67 hhcurveto
-74 callgsubr
hintmask 11101100
20 callsubr
22 -756 rmoveto
-62 callsubr
endchar
                </CharString>
                <CharString name="Ntilde.sc">
                    74 callgsubr
87 50 callsubr
83 145 223 146 hintmask 11100110
421 34 callsubr
hintmask 11011110
-74 callgsubr
hintmask 11100110
20 callsubr
hintmask 11011110
9 -664 rmoveto
-87 callsubr
endchar
                </CharString>
                <CharString name="O">
                    -27 callgsubr
343 -16 -99 callgsubr
                </CharString>
                <CharString name="O.sc">
                    -68 callsubr
317 -14 -107 callsubr
                </CharString>
                <CharString name="OE">
                    366 0 138 151 113 148 138 hstem
55 163 236 160 vstem
218 353 rmoveto
154 64 40 172 2 vhcurveto
-411 vlineto
-166 3 -70 58 154 vvcurveto
670 -215 rmoveto
-274 151 223 113 -223 148 266 138 -359 hlineto
-298 -168 -126 -230 -244 150 -88 310 hvcurveto
361 hlineto
endchar
                </CharString>
                <CharString name="OE.sc">
                    -51 callgsubr
                </CharString>
                <CharString name="Oacute">
                    -27 callgsubr
231 831 -107 callgsubr
112 -847 -99 callgsubr
                </CharString>
                <CharString name="Oacute.sc">
                    -68 callsubr
203 737 -107 callgsubr
114 -751 -107 callsubr
                </CharString>
                <CharString name="Obreve">
                    148 -16 139 443 138 61 127 hstem
55 168 284 168 vstem
374 765 -106 callgsubr
-31 -781 -99 callgsubr
                </CharString>
                <CharString name="Obreve.sc">
                    93 -14 128 369 127 61 78 callgsubr
345 671 -106 callgsubr
-28 -685 -107 callsubr
                </CharString>
                <CharString name="Ocircumflex">
                    -27 callgsubr
490 761 -102 callgsubr
-22 -879 -99 callgsubr
                </CharString>
                <CharString name="Ocircumflex.sc">
                    -68 callsubr
462 667 -102 callgsubr
-20 -783 -107 callsubr
                </CharString>
                <CharString name="Odieresis">
                    148 -16 139 443 138 90 callgsubr
55 168 -46.5 -29 callgsubr
-62.5 168 hintmask 11101100
568 778 -55 callgsubr
168 -794 -99 callgsubr
                </CharString>
                <CharString name="Odieresis.sc">
                    -67 callgsubr
                </CharString>
                <CharString name="Ograve">
                    -27 callgsubr
506 829 -102 callsubr
-124 -775 -99 callgsubr
                </CharString>
                <CharString name="Ograve.sc">
                    -68 callsubr
477 735 -102 callsubr
-121 -679 -107 callsubr
                </CharString>
                <CharString name="Ohungarumlaut">
                    -27 callgsubr
186 814 -86 callsubr
-65 -827 -99 callgsubr
                </CharString>
                <CharString name="Ohungarumlaut.sc">
                    -68 callsubr
158 720 -86 callsubr
-63 -731 -107 callsubr
                </CharString>
                <CharString name="Omacron">
                    148 -16 139 443 138 88 137 hstem
55 168 284 168 vstem
561 929 -65 callsubr
-218 -808 -99 callgsubr
                </CharString>
                <CharString name="Omacron.sc">
                    93 -14 128 369 127 88 137 -50 callgsubr
532 835 -65 callsubr
-215 -712 -107 callsubr
                </CharString>
                <CharString name="Omega">
                    131 0 140 417 148 hstem
85 150 243 150 vstem
315 7 rmoveto
-54 156 -26 132 87 vvcurveto
118 49 57 72 73 49 -57 -119 -86 -27 -132 -54 -156 vhcurveto
4 -7 rlineto
259 140 -113 hlineto
50 100 31 101 87 vvcurveto
170 -108 107 -153 -155 -127 -107 -176 -82 27 -100 50 -100 vhcurveto
-109 -140 258 hlineto
endchar
                </CharString>
                <CharString name="Oslash">
                    36 callgsubr
219 356 -61 callgsubr
                </CharString>
                <CharString name="Oslash.sc">
                    -31 callsubr
212 308 -95 callgsubr
                </CharString>
                <CharString name="Oslashacute">
                    36 callgsubr
226 832 -107 callgsubr
-7 -476 -61 callgsubr
                </CharString>
                <CharString name="Oslashacute.sc">
                    -31 callsubr
198 739 -107 callgsubr
14 -431 -95 callgsubr
                </CharString>
                <CharString name="Otilde">
                    148 -16 139 443 138 66 63 callgsubr
hstemhm
55 168 284 168 hintmask 11101100
452 770 -74 callsubr
hhcurveto
hintmask 11011100
-35 -56 79 -67 hhcurveto
-74 callgsubr
hintmask 11101100
20 callsubr
-109 -786 -99 callgsubr
                </CharString>
                <CharString name="Otilde.sc">
                    93 -14 128 369 127 66 63 callgsubr
64 callsubr
244 165 hintmask 11101100
424 676 -74 callsubr
hhcurveto
hintmask 11011100
-35 -56 79 -67 hhcurveto
-74 callgsubr
hintmask 11101100
20 callsubr
-107 -690 -107 callsubr
                </CharString>
                <CharString name="P">
                    60 21 -21 559 140 -11 -20 hstemhm
91 163 187 160 hintmask 11011000
254 hmoveto
186 vlineto
201 27 146 84 171 vvcurveto
hintmask 10111000
183 -165 78 -345 -41 vhcurveto
-688 vlineto
hintmask 11011000
350 434 rmoveto
-99 -61 -29 -126 17 vhcurveto
236 vlineto
124 10 63 -42 -93 vvcurveto
endchar
                </CharString>
                <CharString name="P.sc">
                    -36 callsubr
                </CharString>
                <CharString name="Q">
                    148 -3 -21 31 -21 580 138 hstemhm
55 168 284 168 hintmask 01111000
594 -172 rmoveto
hintmask 10111000
37 148 -153 35 rlineto
2 vlineto
116 53 81 125 178 vvcurveto
207 -121 128 -168 -183 -148 -143 -241 vhcurveto
hintmask 01111000
-192 103 -124 148 -18 vhcurveto
-26 -85 rlineto
76 665 rmoveto
90 61 -84 -150 -138 -46 -71 -88 -90 -60 83 150 138 45 72 88 hvcurveto
endchar
                </CharString>
                <CharString name="Q.sc">
                    -54 callgsubr
                </CharString>
                <CharString name="R">
                    86 11 -21 31 -21 221 116 224 137 -10 -20 hstemhm
91 162 180 161 hintmask 10101110
476 -10 -30 callgsubr
hintmask 01110110
-46 callsubr
endchar
                </CharString>
                <CharString name="R.sc">
                    -66 callgsubr
152 159 hintmask 10011010
432 -8 -89 callgsubr
                </CharString>
                <CharString name="R_p">
                    479 -174 -21 202 -21 24 -21 32 -21 224 112 113 129 -12 132 -131 -20 31 -20 130 -20 hstemhm
84 149 134 149 65 146 139 145 hintmask 1010110001111100
27 callgsubr
hintmask 1001101000111100
19 callgsubr
348 -530 rmoveto
146 13 rlineto
hintmask 1100110001111100
168 vlineto
169 3 115 116 208 vvcurveto
162 -67 103 -105 -53 -42 -26 -33 -31 vhcurveto
hintmask 1001100101111100
-6 48 rlineto
hintmask 1001100011111100
-135 -8 rlineto
7 -106 2 -151 -308 vvcurveto
197 123 rmoveto
-17 -16 3 5 -18 hvcurveto
hintmask 1001110001111100
-1 132 -1 101 -2 72 rrcurveto
12 18 19 7 17 hhcurveto
54 35 -56 -120 hvcurveto
hintmask 1001100011111100
-108 -31 -48 -57 vhcurveto
endchar
                </CharString>
                <CharString name="Racute">
                    -1 callgsubr
180 161 hintmask 00111010
173 826 -107 callgsubr
hintmask 10010111
303 -836 -30 callgsubr
hintmask 01011011
-46 callsubr
endchar
                </CharString>
                <CharString name="Racute.sc">
                    -66 callgsubr
152 159 hintmask 00111010
152 734 -107 callgsubr
hintmask 10011010
280 -742 -89 callgsubr
                </CharString>
                <CharString name="Rcaron">
                    -1 callgsubr
180 161 hintmask 00111010
328 749 -100 callsubr
hintmask 10010111
164 -759 -30 callgsubr
hintmask 01011011
-46 callsubr
endchar
                </CharString>
                <CharString name="Rcaron.sc">
                    -66 callgsubr
152 159 hintmask 00111010
307 657 -100 callsubr
hintmask 10011010
141 -665 -89 callgsubr
                </CharString>
                <CharString name="Rcommaaccent">
                    -1 callgsubr
21 168 -9 161 hintmask 1001011010000000
476 -10 -30 callgsubr
hintmask 0101101010000000
-46 callsubr
hintmask 0011101100000000
6 -646 -100 callgsubr
                </CharString>
                <CharString name="Rcommaaccent.sc">
                    -66 callgsubr
7 168 -23 159 hintmask 1001101000000000
432 -8 rmoveto
hintmask 0011011010000000
173 16 -158 256 rlineto
62 40 44 50 74 vvcurveto
125 -112 79 -358 -35 vhcurveto
hintmask 0101101010000000
-597 159 187 vlineto
76 2 rlineto
-76 291 rmoveto
103 8 49 -29 -66 vvcurveto
-42 -21 -33 -37 -24 vhcurveto
-94 -2 rlineto
hintmask 0011100100000000
-8 -600 -100 callgsubr
                </CharString>
                <CharString name="S">
                    -12 -12 -28 callsubr
106 177 hintmask 01011100
67 137 -60 callgsubr
                </CharString>
                <CharString name="S.sc">
                    -46 -9 -73 callsubr
78 175 hintmask 01011100
65 126 -87 callgsubr
                </CharString>
                <CharString name="Sacute">
                    -12 -12 -28 callsubr
106 177 hintmask 10011100
155 826 -107 callgsubr
hintmask 01011100
-88 -689 -60 callgsubr
                </CharString>
                <CharString name="Sacute.sc">
                    -46 -9 -73 callsubr
78 175 hintmask 10011100
137 733 -107 callgsubr
hintmask 01011100
-72 -607 -87 callgsubr
                </CharString>
                <CharString name="Scaron">
                    -12 -12 -28 callsubr
106 177 hintmask 10011100
310 752 -100 callsubr
hintmask 01011100
-227 -615 -60 callgsubr
                </CharString>
                <CharString name="Scaron.sc">
                    -46 -9 -73 callsubr
78 175 hintmask 10011100
292 659 -100 callsubr
hintmask 01011100
-211 -533 -87 callgsubr
                </CharString>
                <CharString name="Scedilla">
                    -12 -286 115 159 -28 callsubr
49 111 -54 177 hintmask 10101101
67 137 rmoveto
hintmask 11010101
-149 vlineto
328 -10 125 111 120 165 -283 55 77 vvcurveto
44 46 16 194 -15 vhcurveto
hintmask 10101101
-9 149 rlineto
-302 14 -105 -111 -115 -164 282 -44 -86 vvcurveto
-49 -72 -22 -204 14 vhcurveto
hintmask 11001110
124 -243 -88 callgsubr
                </CharString>
                <CharString name="Scedilla.sc">
                    -46 -279 115 155 -73 callsubr
29 111 -62 175 hintmask 10101101
65 126 rmoveto
hintmask 11010101
-85 callsubr
hintmask 10101101
-8 136 rlineto
-281 13 -97 -95 -101 -143 251 -37 -71 vvcurveto
-40 -64 -18 -182 12 vhcurveto
hintmask 11001110
102 -225 -88 callgsubr
                </CharString>
                <CharString name="Scommaaccent">
                    -12 -12 -28 callsubr
-38 168 -24 177 hintmask 01010010
67 137 rmoveto
hintmask 10101010
-149 vlineto
328 -10 125 111 120 165 -283 55 77 vvcurveto
44 46 16 194 -15 vhcurveto
hintmask 01011010
-9 149 rlineto
-302 14 -105 -111 -115 -164 282 -44 -86 vvcurveto
hintmask 01010010
-49 -72 -22 -204 14 vhcurveto
hintmask 10010100
117 -449 -100 callgsubr
                </CharString>
                <CharString name="Scommaaccent.sc">
                    -46 -9 -73 callsubr
-55 168 -35 175 hintmask 01010010
65 126 rmoveto
hintmask 10101010
-85 callsubr
hintmask 01011010
-8 136 rlineto
-281 13 -97 -95 -101 -143 251 -37 -71 vvcurveto
hintmask 01010010
-40 -64 -18 -182 12 vhcurveto
hintmask 10010100
98 -433 -100 callgsubr
                </CharString>
                <CharString name="T">
                    32 callgsubr
386 548 5 callsubr
endchar
                </CharString>
                <CharString name="T.sc">
                    -25 21 -21 468 129 hstem
198 163 vstem
361 468 39 callsubr
                </CharString>
                <CharString name="Tcaron">
                    32 callgsubr
312 740 -100 callsubr
90 -192 5 callsubr
endchar
                </CharString>
                <CharString name="Tcaron.sc">
                    -25 callgsubr
                </CharString>
                <CharString name="Tcommaaccent">
                    32 callgsubr
386 548 5 callsubr
-181 -300 -100 callgsubr
                </CharString>
                <CharString name="Tcommaaccent.sc">
                    -34 callsubr
                </CharString>
                <CharString name="Thorn">
                    59 0 233 223 138 94 -20 hstem
91 163 187 160 vstem
254 hmoveto
100 vlineto
201 26 146 82 166 vvcurveto
147 -115 76 -232 -3 vhcurveto
94 -163 -688 vlineto
350 341 rmoveto
-92 -61 -27 -126 15 vhcurveto
219 vlineto
124 9 63 -38 -86 vvcurveto
endchar
                </CharString>
                <CharString name="Thorn.sc">
                    -31 callgsubr
                </CharString>
                <CharString name="U">
                    -7 callsubr
353 -16 -93 callsubr
                </CharString>
                <CharString name="U.sc">
                    -33 callsubr
329 -14 -105 callgsubr
                </CharString>
                <CharString name="Uacute">
                    -7 callsubr
221 817 -107 callgsubr
132 -833 -93 callsubr
                </CharString>
                <CharString name="Uacute.sc">
                    -33 callsubr
195 725 -107 callgsubr
134 -739 -105 callgsubr
                </CharString>
                <CharString name="Ubreve">
                    -4 callgsubr
83 127 -6 callgsubr
364 751 -106 callgsubr
-11 -767 -93 callsubr
                </CharString>
                <CharString name="Ubreve.sc">
                    -44 callsubr
82 127 -51 callsubr
338 659 -106 callgsubr
-9 -673 -105 callgsubr
                </CharString>
                <CharString name="Ucircumflex">
                    -7 callsubr
480 747 -102 callgsubr
-2 -865 -93 callsubr
                </CharString>
                <CharString name="Ucircumflex.sc">
                    -33 callsubr
455 655 -102 callgsubr
-1 -771 -105 callgsubr
                </CharString>
                <CharString name="Udieresis">
                    -4 callgsubr
96 163 hstemhm
81 164 -78.5 -29 callgsubr
-82.5 164 hintmask 11101100
558 764 -55 callgsubr
188 -780 -93 callsubr
                </CharString>
                <CharString name="Udieresis.sc">
                    -44 callsubr
95 163 hstemhm
76 161 -96.5 -29 callgsubr
-99.5 161 hintmask 11101100
532 672 -55 callgsubr
190 -686 -105 callgsubr
                </CharString>
                <CharString name="Ugrave">
                    -7 callsubr
496 815 -102 callsubr
-104 -761 -93 callsubr
                </CharString>
                <CharString name="Ugrave.sc">
                    -44 callsubr
218 87 callgsubr
470 723 -102 callsubr
-102 -667 -105 callgsubr
                </CharString>
                <CharString name="Uhungarumlaut">
                    -4 callgsubr
129 -20 -6 callgsubr
176 800 -86 callsubr
-45 -813 -93 callsubr
                </CharString>
                <CharString name="Uhungarumlaut.sc">
                    -44 callsubr
128 -20 23 -20 hstemhm
76 161 197 161 hintmask 11011100
151 708 rmoveto
71 -46 64 56 69 82 44 66 rlinecurve
-140 70 -24 -67 -45 -97 -39 -64 rlinecurve
hintmask 11101100
222 -3 rmoveto
73 -44 65 56 69 79 44 68 rlinecurve
-147 61 -24 -70 -40 -84 -40 -66 rlinecurve
-44 -719 -105 callgsubr
                </CharString>
                <CharString name="Umacron">
                    -4 callgsubr
110 137 -6 callgsubr
551 915 -65 callsubr
-198 -794 -93 callsubr
                </CharString>
                <CharString name="Umacron.sc">
                    -44 callsubr
109 137 -51 callsubr
525 823 -65 callsubr
-196 -700 -105 callgsubr
                </CharString>
                <CharString name="Uogonek">
                    142 9 -21 700 -20 hstemhm
81 164 -2 133 101 164 hintmask 11011000
488 -257 rmoveto
12 122 rlineto
-84 11 -40 12 31 vvcurveto
22 18 25 72 37 vhcurveto
123 62 52 80 145 vvcurveto
398 -164 -418 vlineto
-106 -33 -36 -78 vhcurveto
hintmask 11101000
-74 -47 50 120 hvcurveto
390 -164 -413 vlineto
-166 81 -102 140 -19 vhcurveto
hintmask 11011000
-42 -35 -17 -36 -36 vvcurveto
-67 57 -57 188 -14 vhcurveto
endchar
                </CharString>
                <CharString name="Uogonek.sc">
                    -53 callsubr
                </CharString>
                <CharString name="Uring">
                    -4 callgsubr
73 250 -6 callgsubr
360 991 -80 callgsubr
-7 -1007 -93 callsubr
                </CharString>
                <CharString name="Uring.sc">
                    -44 callsubr
72 250 -51 callsubr
335 899 -80 callgsubr
-6 -913 -105 callgsubr
                </CharString>
                <CharString name="V">
                    69 0 165 523 -20 25 -20 hstemhm
24 602 hintmask 10110000
439 hmoveto
hintmask 11010000
70 229 62 231 55 228 rrcurveto
-163 hlineto
-38 -173 -43 -176 -47 -174 rrcurveto
-12 hlineto
hintmask 10110000
-47 176 -44 178 -39 174 -169 -10 rcurveline
54 -229 64 -225 69 -229 rrcurveto
endchar
                </CharString>
                <CharString name="V.sc">
                    -35 callgsubr
                </CharString>
                <CharString name="W">
                    18 callsubr
480 hmoveto
-78 callgsubr
                </CharString>
                <CharString name="W.sc">
                    -41 callsubr
75 callsubr
hintmask 01110000
444 hmoveto
-65 callgsubr
hintmask 10110000
-98 callgsubr
                </CharString>
                <CharString name="Wacute">
                    18 callsubr
258 817 -107 callgsubr
222 -817 rmoveto
-78 callgsubr
                </CharString>
                <CharString name="Wacute.sc">
                    -41 callsubr
75 callsubr
hintmask 01110000
233 725 -107 callgsubr
211 -725 -7 callgsubr
hintmask 10110000
-98 callgsubr
                </CharString>
                <CharString name="Wcircumflex">
                    18 callsubr
517 747 -102 callgsubr
88 -849 rmoveto
-78 callgsubr
                </CharString>
                <CharString name="Wcircumflex.sc">
                    -41 callsubr
75 callsubr
hintmask 01110000
493 655 -102 callgsubr
76 -757 -7 callgsubr
hintmask 10110000
-98 callgsubr
                </CharString>
                <CharString name="Wdieresis">
                    201 47 callgsubr
96 163 hstemhm
59 164 -19.5 -29 callgsubr
hintmask 11101100
595 -15 callgsubr
278 -764 rmoveto
172 hlineto
23 130 31 262 18 296 rrcurveto
-156 hlineto
-28 -472 rlineto
-5 hlineto
-30 100 -32 101 -33 99 rrcurveto
-88 hlineto
hintmask 11110100
-33 -99 -31 -100 -30 -102 rrcurveto
-7 hlineto
-28 473 55 callgsubr
18 -296 30 -262 24 -130 rrcurveto
167 hlineto
89 260 rlineto
endchar
                </CharString>
                <CharString name="Wdieresis.sc">
                    -41 callsubr
95 163 75 callsubr
-50.5 -29 callgsubr
hintmask 01110110
570 672 -104 callsubr
267 -672 -7 callgsubr
hintmask 10111010
-98 callgsubr
                </CharString>
                <CharString name="Wgrave">
                    18 callsubr
533 815 -102 callsubr
-14 -745 rmoveto
-78 callgsubr
                </CharString>
                <CharString name="Wgrave.sc">
                    -41 callsubr
218 -20 75 callsubr
hintmask 01111000
508 723 -102 callsubr
-25 -653 -7 callgsubr
hintmask 10111000
-98 callgsubr
                </CharString>
                <CharString name="X">
                    82 17 -21 25 -21 25 -21 681 7 -4 -20 24 -20 hstemhm
25 617 hintmask 10000110
459 -4 rmoveto
hintmask 00101010
181 8 -205 339 207 345 rlineto
-177 hlineto
-125 -236 rlineto
hintmask 00100110
-134 240 rlineto
hintmask 01010010
-181 -7 207 -342 -205 -343 rlineto
175 hlineto
124 233 rlineto
endchar
                </CharString>
                <CharString name="X.sc">
                    -36 callgsubr
                </CharString>
                <CharString name="Y">
                    -8 callsubr
403 hmoveto
-59 callgsubr
                </CharString>
                <CharString name="Y.sc">
                    -37 callgsubr
384 hmoveto
-78 callsubr
                </CharString>
                <CharString name="Yacute">
                    -8 callsubr
182 821 -107 callgsubr
221 -821 rmoveto
-59 callgsubr
                </CharString>
                <CharString name="Yacute.sc">
                    -37 callgsubr
164 729 31 callgsubr
-729 rmoveto
-78 callsubr
                </CharString>
                <CharString name="Ycircumflex">
                    -8 callsubr
441 751 -102 callgsubr
87 -853 rmoveto
-59 callgsubr
                </CharString>
                <CharString name="Ycircumflex.sc">
                    -37 callgsubr
424 659 38 callsubr
-761 rmoveto
-78 callsubr
                </CharString>
                <CharString name="Ydieresis">
                    57 21 -21 685 7 -4 -20 24 -20 96 163 hstemhm
127.5 157 -46.5 165 -39.5 157 hintmask 10011101
519 768 -104 callsubr
hintmask 10101010
277 -768 rmoveto
233 vlineto
225 455 rlineto
-168 hlineto
-133 -310 rlineto
hintmask 10011010
-140 314 rlineto
hintmask 11001010
-177 -7 228 -456 rlineto
-229 vlineto
endchar
                </CharString>
                <CharString name="Ydieresis.sc">
                    -59 callsubr
                </CharString>
                <CharString name="Ygrave">
                    -8 callsubr
457 819 -102 callsubr
-15 -749 rmoveto
-59 callgsubr
                </CharString>
                <CharString name="Ygrave.sc">
                    -45 callgsubr
                </CharString>
                <CharString name="Z">
                    3 callsubr
hstem
65 491 vstem
545 hmoveto
-47 callgsubr
                </CharString>
                <CharString name="Z.sc">
                    1 callsubr
hstem
57 457 vstem
504 hmoveto
-80 callsubr
                </CharString>
                <CharString name="Zacute">
                    3 callsubr
hstem
65 491 vstem
179 817 -107 callgsubr
366 -817 rmoveto
-47 callgsubr
                </CharString>
                <CharString name="Zacute.sc">
                    1 callsubr
hstem
57 457 vstem
144 725 -107 callgsubr
360 -725 rmoveto
-80 callsubr
                </CharString>
                <CharString name="Zcaron">
                    3 callsubr
hstem
65 491 vstem
334 740 -100 callsubr
227 -740 rmoveto
-47 callgsubr
                </CharString>
                <CharString name="Zcaron.sc">
                    1 callsubr
195 -20 hstem
57 457 vstem
299 648 -100 callsubr
221 -648 rmoveto
-80 callsubr
                </CharString>
                <CharString name="Zdotaccent">
                    3 callsubr
76 163 hstem
243.5 164 vstem
405 764 -81 callgsubr
304 -764 rmoveto
-47 callgsubr
                </CharString>
                <CharString name="Zdotaccent.sc">
                    1 callsubr
75 163 hstem
208.5 164 vstem
370 672 -81 callgsubr
298 -672 rmoveto
-80 callsubr
                </CharString>
                <CharString name="a">
                    -63 callsubr
-4 callsubr
hintmask 10011110
281 108 -79 callsubr
hintmask 01011110
112 -112 rmoveto
hintmask 00111110
-92 callsubr
hintmask 10011110
-41 callgsubr
                </CharString>
                <CharString name="a.sc">
                    -86 callgsubr
hstemhm
23 577 hintmask 10011100
437 -4 -103 callgsubr
                </CharString>
                <CharString name="aacute">
                    -63 callsubr
204 -20 -4 callsubr
hintmask 00111111
152 704 -107 callgsubr
hintmask 10011111
129 -596 -93 callgsubr
                </CharString>
                <CharString name="aacute.sc">
                    -86 callgsubr
hstemhm
23 577 hintmask 00111100
168 725 -107 callgsubr
hintmask 10011100
269 -729 -103 callgsubr
                </CharString>
                <CharString name="abreve">
                    -63 callsubr
62 127 -4 callsubr
hintmask 00111111
295 637 -106 callgsubr
hintmask 10011111
-14 -529 -93 callgsubr
                </CharString>
                <CharString name="abreve.sc">
                    -86 callgsubr
62 127 35 callsubr
hintmask 00111110
311 659 -106 callgsubr
hintmask 10011110
126 -663 -103 callsubr
                </CharString>
                <CharString name="acircumflex">
                    -63 callsubr
135 -20 -4 callsubr
hintmask 00111111
411 634 -102 callgsubr
hintmask 10011111
-5 -628 -93 callgsubr
                </CharString>
                <CharString name="acircumflex.sc">
                    -86 callgsubr
hstemhm
23 577 hintmask 00111100
427 655 -102 callgsubr
hintmask 10011100
135 -761 -103 callgsubr
                </CharString>
                <CharString name="acute">
                    -16 621 266 hstem
122 337 vstem
122 692 -107 callgsubr
endchar
                </CharString>
                <CharString name="acute.cap">
                    -16 621 266 hstem
122 337 vstem
122 692 -107 callgsubr
endchar
                </CharString>
                <CharString name="adieresis">
                    -63 callsubr
75 callgsubr
57 152 -111.5 -29 callgsubr
-117.5 154 hintmask 0011110110000000
489 651 -104 callsubr
hintmask 1001111001000000
185 -543 -79 callsubr
hintmask 0101110101000000
112 -112 rmoveto
hintmask 0011111001000000
-92 callsubr
hintmask 1001111010000000
-41 callgsubr
                </CharString>
                <CharString name="adieresis.sc">
                    -69 callgsubr
                </CharString>
                <CharString name="ae">
                    37 callgsubr
71 callsubr
hintmask 1001011110000000
621 447 17 callgsubr
hintmask 1010101110000000
65 callsubr
hintmask 1001011110000000
-23 -37 -36 -14 -32 hhcurveto
hintmask 0101011110000000
4 callsubr
hintmask 1010101110000000
2 callsubr
hintmask 0101011110000000
80 callgsubr
                </CharString>
                <CharString name="ae.sc">
                    -22 callsubr
388 472 -83 callgsubr
                </CharString>
                <CharString name="aeacute">
                    37 callgsubr
201 -20 71 callsubr
hintmask 0101101111000000
326 705 -107 callgsubr
hintmask 1001011111000000
295 -258 17 callgsubr
hintmask 1010101111000000
65 callsubr
hintmask 1001011111000000
-23 -37 -36 -14 -32 hhcurveto
hintmask 0101011111000000
4 callsubr
hintmask 1010101111000000
2 callsubr
hintmask 0101011111000000
80 callgsubr
                </CharString>
                <CharString name="aeacute.sc">
                    -22 callsubr
360 725 -107 callgsubr
28 -253 -83 callgsubr
                </CharString>
                <CharString name="agrave">
                    -63 callsubr
125 -20 92 -20 -4 callsubr
hintmask 0011111110000000
426 700 -102 callsubr
hintmask 1001111110000000
-106 -522 -79 callsubr
hintmask 0101111110000000
112 -112 rmoveto
hintmask 0011111110000000
-92 callsubr
hintmask 1001111110000000
-41 callgsubr
                </CharString>
                <CharString name="agrave.sc">
                    -86 callgsubr
198 -20 35 callsubr
hintmask 00111110
443 723 -102 callsubr
hintmask 10011110
33 -657 -103 callsubr
                </CharString>
                <CharString name="amacron">
                    -63 callsubr
90 137 -4 callsubr
hintmask 00111111
482 802 -65 callsubr
hintmask 10011111
-201 -557 -93 callgsubr
                </CharString>
                <CharString name="amacron.sc">
                    -86 callgsubr
89 137 35 callsubr
hintmask 00111110
498 823 -65 callsubr
hintmask 10011110
-61 -690 -103 callsubr
                </CharString>
                <CharString name="ampersand">
                    154 -16 131 443 146 hstemhm
39 153 -61 167 hintmask 11100000
276 115 rmoveto
-52 -32 31 41 37 27 36 51 32 hvcurveto
33 -34 40 -39 45 -45 rrcurveto
-40 -38 -36 -19 -38 hhcurveto
295 -130 rmoveto
136 95 -49 49 -44 43 -39 38 rlinecurve
41 65 35 77 29 84 -140 15 rcurveline
-12 -46 -21 -58 -23 -51 rrcurveto
hintmask 11010000
-129 121 -57 51 35 vvcurveto
43 42 18 188 -6 vhcurveto
-14 146 rlineto
-292 4 -91 -106 -98 vvcurveto
-44 24 -42 46 -53 vhcurveto
hintmask 11100000
-103 -58 -59 -64 -91 vvcurveto
-96 72 -72 121 82 82 29 74 78 vhcurveto
31 -31 32 -34 34 -37 rrcurveto
endchar
                </CharString>
                <CharString name="ampersand.sc">
                    97 -14 120 370 134 hstemhm
34 150 -63 163 hintmask 11100000
255 106 rmoveto
-43 -28 25 34 30 23 29 43 26 hvcurveto
29 -28 34 -31 38 -36 rrcurveto
-34 -33 -31 -15 -32 hhcurveto
263 -119 rmoveto
134 83 -44 43 -40 37 -36 34 rlinecurve
37 56 32 65 27 71 -135 14 rcurveline
-11 -38 -18 -47 -20 -42 rrcurveto
hintmask 11010000
-110 99 -50 43 27 vvcurveto
35 37 14 164 -5 vhcurveto
-13 134 rlineto
-270 4 -81 -93 -83 vvcurveto
-38 22 -36 41 -46 vhcurveto
hintmask 11100000
-96 -50 -54 -58 -78 vvcurveto
-84 67 -62 112 75 74 26 61 72 vhcurveto
26 -26 28 -29 30 -31 rrcurveto
endchar
                </CharString>
                <CharString name="aogonek">
                    18 -14 125 -86 -21 230 97 108 136 hstemhm
57 152 61 134 -31 154 hintmask 01111100
515 -253 rmoveto
13 122 rlineto
-23 callgsubr
hintmask 10111010
-6 75 -6 99 100 vvcurveto
224 -79 72 -350 1 vhcurveto
-14 -136 228 -6 52 -19 7 -83 rlinecurve
-220 4 -94 -93 -109 vvcurveto
-91 58 -56 84 77 59 38 50 45 vhcurveto
11 -60 rlineto
hintmask 01111100
-86 -46 -35 -46 -47 13 callgsubr
hintmask 10111010
-242 364 rmoveto
-38 -26 22 38 48 25 26 139 -14 hvcurveto
-29 1 -27 1 -23 vhcurveto
-27 -35 -36 -14 -31 hhcurveto
endchar
                </CharString>
                <CharString name="aogonek.sc">
                    -68 callgsubr
                </CharString>
                <CharString name="approxequal">
                    43 99 136 -44 134 28 135 -44 136 -5 -20 hstemhm
49 517 hintmask 10101100
403 353 rmoveto
76 44 63 121 43 hvcurveto
-93 38 rlineto
-53 -25 -19 -34 -21 hhcurveto
hintmask 10010100
-41 -54 92 -86 hhcurveto
-80 -54 -70 -123 -44 hvcurveto
91 -39 rlineto
59 28 22 37 24 hhcurveto
hintmask 10101100
43 59 -91 87 hhcurveto
-254 vmoveto
76 44 63 122 43 hvcurveto
-90 38 rlineto
-54 -27 -19 -33 -22 hhcurveto
hintmask 01101100
-41 -54 90 -85 hhcurveto
-81 -54 -69 -123 -44 hvcurveto
94 -38 rlineto
59 27 21 37 23 hhcurveto
hintmask 10101100
43 59 -92 87 hhcurveto
endchar
                </CharString>
                <CharString name="aring">
                    -63 callsubr
52 250 -4 callsubr
hintmask 00111111
291 877 -80 callgsubr
hintmask 10011111
-10 -769 -93 callgsubr
                </CharString>
                <CharString name="aring.sc">
                    -86 callgsubr
52 250 35 callsubr
hintmask 00111110
307 899 -80 callgsubr
hintmask 10011110
130 -903 -103 callsubr
                </CharString>
                <CharString name="aringacute">
                    -63 callsubr
-4 callsubr
hintmask 00111110
152 996 -107 callgsubr
139 -119 -80 callgsubr
hintmask 10011110
-10 -769 -79 callsubr
hintmask 01011110
112 -112 rmoveto
hintmask 00111110
-92 callsubr
hintmask 10011110
-41 callgsubr
                </CharString>
                <CharString name="aringacute.sc">
                    -86 callgsubr
hstemhm
23 577 hintmask 00111100
168 1000 -107 callgsubr
139 -101 -80 callgsubr
hintmask 10011100
130 -903 -103 callgsubr
                </CharString>
                <CharString name="arrow.1_E">
                    123 268 130 hstem
48 632 vstem
310 18 rmoveto
370 317 -370 317 -87 -111 199 -145 -63 2 rlineto
-311 -130 311 hlineto
60 3 -196 -142 rlineto
endchar
                </CharString>
                <CharString name="arrow.1_N">
                    123 21 -21 707 -20 hstem
285 135 vstem
420 355 rmoveto
-4 81 138 -198 105 84 -305 385 -310 -385 106 -84 139 199 -4 -82 rlineto
-355 135 vlineto
endchar
                </CharString>
                <CharString name="arrow.1_S">
                    123 2 -21 707 -20 hstem
284 135 vstem
349 -19 rmoveto
310 385 -105 84 -139 -199 4 82 rlineto
355 -135 -355 vlineto
4 -80 -138 197 -106 -84 rlineto
endchar
                </CharString>
                <CharString name="arrow.1_W">
                    123 268 130 hstem
23 633 vstem
481 124 rmoveto
-200 147 63 -3 rlineto
312 130 -312 hlineto
-61 -2 198 142 -88 110 -370 -317 370 -318 rlineto
endchar
                </CharString>
                <CharString name="asciicircum">
                    43 567 -20 hstem
50 533 vstem
467 152 rmoveto
116 81 -259 334 -26 -3 -248 -332 106 -80 152 211 rlineto
endchar
                </CharString>
                <CharString name="asciitilde">
                    43 201 147 -19 147 hstemhm
27 570 hintmask 10100000
421 201 rmoveto
80 53 88 144 43 hvcurveto
-99 37 rlineto
-75 -28 -22 -47 -22 hhcurveto
hintmask 01100000
-42 -88 128 -88 hhcurveto
-79 -61 -94 -137 -41 hvcurveto
99 -38 rlineto
75 27 22 47 23 hhcurveto
hintmask 10100000
42 92 -128 89 hhcurveto
endchar
                </CharString>
                <CharString name="asterisk">
                    78 557 -20 65 -20 193 -20 hstem
56 551 vstem
422 236 rmoveto
92 56 -59 152 152 65 -25 104 -162 -11 -14 165 -108 8 -42 -160 -158 42 -42 -100 139 -92 -86 -137 81 -71 127 103 rlineto
endchar
                </CharString>
                <CharString name="asterisk.alt">
                    86 596 -20 27 -20 202 -20 hstemhm
51 566 hintmask 01110000
393 588 rmoveto
63 169 -136 28 -3 -182 rlineto
hintmask 10010000
-30 -7 rmoveto
-114 138 -92 -105 155 -94 rlineto
204 -44 rmoveto
177 32 -44 132 -160 -88 rlineto
-185 -59 rmoveto
-177 -32 44 -131 160 88 rlineto
126 -29 rmoveto
115 -138 93 104 -156 94 rlineto
-158 -52 rmoveto
-63 -169 138 -28 1 182 rlineto
endchar
                </CharString>
                <CharString name="at">
                    281 -174 124 116 121 448 128 hstem
76 136 110 148 151 147 vstem
698 -167 rmoveto
-2 122 rlineto
-393 -31 -91 121 242 vvcurveto
247 141 101 135 80 39 -32 -70 11 vhcurveto
-165 -15 -131 -69 -178 vvcurveto
-122 76 -83 96 43 48 16 38 46 vhcurveto
8 -50 139 14 rlineto
-5 74 -5 88 217 vvcurveto
196 -79 104 -178 -247 -188 -194 -301 -292 143 -190 479 47 vhcurveto
-138 354 rmoveto
-53 -37 35 74 73 38 42 113 -8 hvcurveto
-202 vlineto
-9 -22 -20 -5 -19 hhcurveto
endchar
                </CharString>
                <CharString name="atilde">
                    -63 callsubr
68 129 -82 -20 52 129 -4 callsubr
hintmask 0011110011000000
373 643 -74 callsubr
-35 -56 79 -67 hhcurveto
hintmask 0011101111000000
-74 callgsubr
hintmask 0011110011000000
20 callsubr
hintmask 1001101011000000
-92 -535 -79 callsubr
hintmask 0101101011000000
112 -112 rmoveto
hintmask 0011101011000000
-92 callsubr
hintmask 1001101011000000
-41 callgsubr
                </CharString>
                <CharString name="atilde.sc">
                    -75 callsubr
                </CharString>
                <CharString name="b">
                    56 -16 140 322 133 201 -20 33 -20 hstemhm
79 159 191 157 hintmask 11011100
257 -16 rmoveto
174 155 123 206 162 -94 104 -116 -56 -46 -24 -31 -36 hvcurveto
269 vlineto
hintmask 11101100
-159 -13 rlineto
-763 vlineto
hintmask 11011100
-22 53 56 -11 69 hhcurveto
59 140 rmoveto
-23 -26 4 9 -29 hvcurveto
288 vlineto
14 24 25 7 24 79 callsubr
endchar
                </CharString>
                <CharString name="b.sc">
                    -60 callsubr
                </CharString>
                <CharString name="backslash">
                    -56 -212 1026 hstem
-18 559 vstem
121 814 rmoveto
-139 -40 414 -986 145 25 rlineto
endchar
                </CharString>
                <CharString name="backslash.tab">
                    43 -208 1022 hstem
10 612 vstem
10 773 rmoveto
466 -981 146 23 -475 999 rlineto
endchar
                </CharString>
                <CharString name="bar">
                    -229 795 -20 hstem
101 150 vstem
101 795 rmoveto
-1000 150 1013 vlineto
endchar
                </CharString>
                <CharString name="bar.tab">
                    -135 795 -20 hstem
151 146 vstem
151 795 rmoveto
-1000 146 1013 vlineto
endchar
                </CharString>
                <CharString name="braceleft">
                    -99 -239 36 callsubr
-239 -53 callgsubr
                </CharString>
                <CharString name="braceleft.cap">
                    -99 -189 36 callsubr
-189 -53 callgsubr
                </CharString>
                <CharString name="braceright">
                    -99 699 -20 42 callsubr
-238 -52 callgsubr
                </CharString>
                <CharString name="braceright.cap">
                    -99 -189 1062 42 callsubr
-189 -52 callgsubr
                </CharString>
                <CharString name="bracketleft">
                    -106 -200 60 callsubr
86 152 vstem
86 -200 39 callgsubr
                </CharString>
                <CharString name="bracketleft.cap">
                    -106 -150 60 callsubr
86 152 vstem
86 -150 39 callgsubr
                </CharString>
                <CharString name="bracketright">
                    -106 -200 60 callsubr
238 151 vstem
55 -72 42 callgsubr
                </CharString>
                <CharString name="bracketright.cap">
                    -106 -150 60 callsubr
238 151 vstem
55 -22 42 callgsubr
                </CharString>
                <CharString name="breve">
                    -16 626 127 hstem
68 430 vstem
280 626 -106 callgsubr
endchar
                </CharString>
                <CharString name="breve.cap">
                    -16 626 127 hstem
68 430 vstem
280 626 -106 callgsubr
endchar
                </CharString>
                <CharString name="bullet">
                    -22 156 349 hstem
113 333 vstem
446 334 rmoveto
104 -69 67 -93 -93 -78 -69 -108 -103 70 -69 92 92 79 70 108 vhcurveto
endchar
                </CharString>
                <CharString name="bullet.alt">
                    -22 182 302 hstem
128 304 vstem
431 182 rmoveto
2 302 rlineto
-304 hlineto
-2 -302 rlineto
endchar
                </CharString>
                <CharString name="c">
                    -58 -9 26 callsubr
hstemhm
53 159 hintmask 01110000
53 272 15 callgsubr
hintmask 10110000
-43 callgsubr
hintmask 01110000
26 callgsubr
endchar
                </CharString>
                <CharString name="c.sc">
                    -33 callgsubr
10 callgsubr
hintmask 01110000
-181 97 -136 336 24 vhcurveto
endchar
                </CharString>
                <CharString name="cacute">
                    -58 -9 26 callsubr
200 -20 hstemhm
53 159 hintmask 01111000
137 702 -107 callgsubr
-84 -430 15 callgsubr
hintmask 10111000
-43 callgsubr
hintmask 01111000
26 callgsubr
endchar
                </CharString>
                <CharString name="cacute.sc">
                    -33 callgsubr
163 731 -107 callgsubr
331 -609 rmoveto
-84 callsubr
hintmask 01110000
-181 97 -136 336 24 vhcurveto
endchar
                </CharString>
                <CharString name="caron">
                    -16 785 -20 hstem
79 406 vstem
292 615 -100 callsubr
endchar
                </CharString>
                <CharString name="caron.alt">
                    -16 615 280 hstem
197 151 vstem
188 633 -66 callsubr
endchar
                </CharString>
                <CharString name="caron.alt.cap">
                    -16 615 280 hstem
197 151 vstem
188 633 -66 callsubr
endchar
                </CharString>
                <CharString name="caron.cap">
                    -16 785 -20 hstem
79 406 vstem
292 615 -100 callsubr
endchar
                </CharString>
                <CharString name="ccaron">
                    -58 -9 26 callsubr
203 -20 37 -20 hstemhm
53 159 hintmask 01101100
292 627 -52 callsubr
rlineto
hintmask 01110100
-70 75 -120 -101 -124 102 -92 -93 197 -153 rlineto
-223 -355 15 callgsubr
hintmask 10101100
-43 callgsubr
hintmask 01110100
26 callgsubr
endchar
                </CharString>
                <CharString name="ccaron.sc">
                    -33 callgsubr
318 657 -100 callsubr
192 -535 rmoveto
-84 callsubr
hintmask 01110000
-181 97 -136 336 24 vhcurveto
endchar
                </CharString>
                <CharString name="ccedilla">
                    -58 -282 115 158 26 callsubr
hstemhm
53 159 90 111 hintmask 10111000
53 272 15 callgsubr
hintmask 11011000
-43 callgsubr
hintmask 10111000
26 callgsubr
hintmask 10111100
154 -374 -88 callgsubr
                </CharString>
                <CharString name="ccedilla.sc">
                    -56 callgsubr
                </CharString>
                <CharString name="cdotaccent">
                    -58 -9 26 callsubr
90 callgsubr
53 159 -10.5 164 hintmask 01110100
363 651 -81 callgsubr
hintmask 01111000
-146 -379 15 callgsubr
hintmask 10111000
-43 callgsubr
hintmask 01111000
26 callgsubr
endchar
                </CharString>
                <CharString name="cdotaccent.sc">
                    -48 callgsubr
                </CharString>
                <CharString name="cedilla">
                    -16 -271 115 hstem
312 111 vstem
217 -91 -88 callgsubr
                </CharString>
                <CharString name="cedilla.cap">
                    -16 -271 115 hstem
312 111 vstem
217 -91 -88 callgsubr
                </CharString>
                <CharString name="cent">
                    43 30 134 237 153 134 -20 hstem
71 151 vstem
222 316 rmoveto
43 20 36 86 12 vhcurveto
-27 -202 rlineto
-54 24 -25 36 51 vvcurveto
292 -286 rmoveto
17 134 -47 2 -41 4 -36 6 rlinecurve
29 234 30 -1 34 -3 38 -5 rlinecurve
18 150 rlineto
2 -34 -31 1 -30 hhcurveto
19 134 rlineto
-137 hlineto
-16 -145 rlineto
-202 -34 -54 -110 -103 vvcurveto
-105 54 -81 143 -45 vhcurveto
-22 -157 rlineto
137 hlineto
13 131 36 -4 39 -3 43 -2 rlinecurve
endchar
                </CharString>
                <CharString name="check.1">
                    40 1 -21 hstem
51 542 vstem
593 723 rmoveto
-161 48 -52 -162 -48 -199 -38 -221 rlinecurve
-7 hlineto
-99 238 -137 -58 174 -389 139 7 66 268 75 242 88 226 rlinecurve
endchar
                </CharString>
                <CharString name="check.2">
                    40 1 -21 27 -21 608 -20 200 -20 hstemhm
64 517 hintmask 01111000
363 -14 rmoveto
152 33 -147 284 213 416 -156 55 -139 -348 -76 168 -146 -51 138 -261 rlineto
hintmask 10111000
-125 -269 104 -33 97 192 rlineto
endchar
                </CharString>
                <CharString name="circumflex">
                    -16 698 -20 hstem
79 406 vstem
393 622 -102 callgsubr
endchar
                </CharString>
                <CharString name="circumflex.cap">
                    -16 698 -20 hstem
79 406 vstem
393 622 -102 callgsubr
endchar
                </CharString>
                <CharString name="colon">
                    -177 0 82 callgsubr
100 33 callgsubr
-193.5 200 hintmask 11010000
305 9 callgsubr
                </CharString>
                <CharString name="colon.alt">
                    -138 54 82 callgsubr
122 199 -194 199 hintmask 11010000
325 435 72 callgsubr
hintmask 11100000
194 -381 72 callgsubr
endchar
                </CharString>
                <CharString name="colon.tab">
                    -135 0 82 callgsubr
121 33 callgsubr
-193.5 200 hintmask 11010000
326 9 callgsubr
                </CharString>
                <CharString name="colonmonetary">
                    43 522 145 hstemhm
53 141 65 105 -11.5 102 -35.5 103.5 hintmask 11101000
380 184 rmoveto
-23 5 -21 6 -18 6 27 300 rcurveline
20 4 21 3 24 3 rrcurveto
-216 -158 rmoveto
49 15 38 45 28 vhcurveto
-20 -222 rlineto
-27 26 -13 34 47 vvcurveto
hintmask 11010000
152 -435 rmoveto
104 hlineto
9 111 rlineto
hintmask 11101000
19 -2 19 -3 20 -2 30 137 rcurveline
-29 3 -27 4 -24 3 31 350 rcurveline
25 1 28 1 29 1 -7 145 rcurveline
-19 -1 -19 -1 -18 -1 11 105 rcurveline
-104 hlineto
-10 -117 -20 -3 -18 -3 -18 -4 rlinecurve
12 127 rlineto
-105 hlineto
-12 -158 rlineto
-156 -63 -44 -106 -111 vvcurveto
-119 48 -73 104 -47 vhcurveto
-18 -174 rlineto
hintmask 11010000
105 hlineto
13 140 17 -4 18 -4 19 -4 rlinecurve
endchar
                </CharString>
                <CharString name="comma">
                    -189 -173 374 hstem
122 175 vstem
84 22 callgsubr
                </CharString>
                <CharString name="comma.tab">
                    -135 -173 374 hstem
149 175 vstem
111 22 callgsubr
                </CharString>
                <CharString name="commaaccent">
                    -16 -325 256 hstem
203 168 vstem
188 -300 -100 callgsubr
                </CharString>
                <CharString name="commaaccent.cap">
                    -16 -325 256 hstem
203 168 vstem
188 -300 -100 callgsubr
                </CharString>
                <CharString name="commaaccent.rot">
                    -16 634 255 hstem
190 169 vstem
373 864 41 callsubr
endchar
                </CharString>
                <CharString name="copyright">
                    335 -42 95 96 105 174 116 91 95 hstem
69 104 112 121 336 105 vstem
847 349 rmoveto
234 -161 147 -213 -221 -183 -159 -231 -234 171 -148 223 211 173 160 231 vhcurveto
-674 -5 rmoveto
179 131 112 165 151 122 -115 -176 -179 -118 -112 -155 -161 -135 115 176 vhcurveto
417 -90 rmoveto
-132 -1 -52 24 80 vvcurveto
55 21 19 159 -3 vhcurveto
-10 116 rlineto
-217 -7 -74 -89 -104 vvcurveto
-118 75 -90 217 13 vhcurveto
endchar
                </CharString>
                <CharString name="d">
                    28 callgsubr
hintmask 10010111
326 117 17 callsubr
hintmask 01010111
93 -121 rmoveto
hintmask 00110111
56 callgsubr
hintmask 10011011
19 callsubr
                </CharString>
                <CharString name="d.sc">
                    -24 callgsubr
603 310 -70 callsubr
                </CharString>
                <CharString name="dagger">
                    -58 495 128.5 -123.5 128.5 151.5 -20 hstemhm
196 129 hintmask 01110000
316 160 rmoveto
hintmask 10110000
18 336 136 -2 7 128 88 callgsubr
hintmask 01110000
-153 vlineto
-138 3 -7 -129 145 -2 rlineto
-374 vlineto
22 -12 rlineto
endchar
                </CharString>
                <CharString name="daggerdbl">
                    -58 277 120.5 -116 121 100.5 120.5 -115.5 120.5 151.5 -20 hstemhm
196 143.5 -143 136 -135.5 123 hintmask 01011001
316 101 rmoveto
hintmask 10011001
8 177 138 -2 7 120 rlineto
hintmask 10101010
-139 3 5 105 135 -2 7 120 rlineto
hintmask 01101100
88 callgsubr
hintmask 01011100
-153 vlineto
-138 3 -7 -121 rlineto
hintmask 01011010
145 -2 1 -106 -147 3 -6 -121 rlineto
hintmask 01011001
153 -3 rlineto
-214 vlineto
22 -12 rlineto
endchar
                </CharString>
                <CharString name="dcaron">
                    28 callgsubr
84 151 hintmask 0011011110000000
630 633 -66 callsubr
hintmask 1001011110000000
-304 -516 17 callsubr
hintmask 0101011110000000
93 -121 rmoveto
hintmask 0011011110000000
56 callgsubr
hintmask 1001101110000000
19 callsubr
                </CharString>
                <CharString name="dcaron.sc">
                    -24 callgsubr
322 658 -100 callsubr
297 -348 -70 callsubr
                </CharString>
                <CharString name="dcroat">
                    56 -16 133 -100 -21 29 -21 432 136 51 97 53 -20 30 -20 hstemhm
51 157 189 158 hintmask 1001101110000000
326 117 rmoveto
-64 -54 55 116 100 42 48 73 22 25 -4 -8 27 hvcurveto
1 -112 1 -98 2 -74 rrcurveto
-15 -25 -26 -8 -24 hhcurveto
hintmask 0101101110000000
93 -121 rmoveto
hintmask 0011101110000000
146 8 rlineto
-8 118 -2 170 276 vvcurveto
54 65 98 -65 63 vlineto
hintmask 1001110110000000
-158 -10 rlineto
-53 -127 -97 127 -51 vlineto
-195 -151 -116 -206 -162 93 -104 117 62 50 29 37 37 hvcurveto
endchar
                </CharString>
                <CharString name="dcroat.sc">
                    -89 callsubr
                </CharString>
                <CharString name="degree">
                    43 316 119 211 119 hstem
92 125 190 126 vstem
533 545 rmoveto
136 -92 84 -120 -122 -107 -90 -139 -135 92 -85 120 122 107 90 139 vhcurveto
-126 -3 rmoveto
-66 -40 -41 -54 -56 -40 46 60 64 40 41 54 56 40 -45 -59 vhcurveto
endchar
                </CharString>
                <CharString name="dieresis">
                    -16 639 163 hstem
87.5 -29 callgsubr
vstem
479 639 -104 callsubr
endchar
                </CharString>
                <CharString name="dieresis.cap">
                    -16 639 163 hstem
87.5 -29 callgsubr
vstem
479 639 -104 callsubr
endchar
                </CharString>
                <CharString name="divide">
                    43 62 146 61 135 61 146 hstem
234 158.5 cntrmask 11100000
391 465 rmoveto
3 146 rlineto
-159 hlineto
-2 -146 rlineto
330 -61 rmoveto
-501 -135 501 hlineto
-173 -207 rmoveto
3 146 rlineto
-158 hlineto
-3 -146 rlineto
endchar
                </CharString>
                <CharString name="dollar">
                    40 -82 852 hstem
66 151 186 152 vstem
217 490 rmoveto
21 29 12 60 vhcurveto
-20 -94 rlineto
-40 23 -29 20 18 vvcurveto
186 -288 rmoveto
-22 -27 -12 -60 -1 vhcurveto
20 96 rlineto
39 -22 28 -20 -19 vvcurveto
-113 -284 rmoveto
23 125 rlineto
176 18 66 67 73 vvcurveto
75 -95 60 -90 48 vhcurveto
26 132 38 -5 43 -8 50 -10 rlinecurve
20 145 -36 5 -34 3 -32 2 rlinecurve
27 121 -140 1 -23 -123 rlineto
-177 -15 -66 -73 -73 vvcurveto
-74 97 -57 89 -48 vhcurveto
-28 -135 -41 4 -50 7 -57 9 rlinecurve
-28 -144 47 -5 43 -3 39 -1 rlinecurve
-27 -120 rlineto
endchar
                </CharString>
                <CharString name="dotaccent">
                    -16 639 163 hstem
200.5 164 vstem
362 639 -81 callgsubr
endchar
                </CharString>
                <CharString name="dotaccent.cap">
                    -16 639 163 hstem
200.5 164 vstem
362 639 -81 callgsubr
endchar
                </CharString>
                <CharString name="dotlessi">
                    -45 -28 callgsubr
51 callsubr
508 hmoveto
13 120 rlineto
-63 callgsubr
                </CharString>
                <CharString name="dotlessi.sc">
                    -58 callgsubr
0 callsubr
349 479 -97 callgsubr
                </CharString>
                <CharString name="e">
                    -34 callgsubr
11 callsubr
512 -13 -101 callgsubr
                </CharString>
                <CharString name="e.sc">
                    -30 77 callsubr
83 161 vstem
491 127 rmoveto
-95 callsubr
                </CharString>
                <CharString name="eacute">
                    -34 callgsubr
202 -20 11 callsubr
165 706 -107 callgsubr
347 -719 -101 callgsubr
                </CharString>
                <CharString name="eacute.sc">
                    -30 77 callsubr
83 161 vstem
139 725 -107 callgsubr
352 -598 rmoveto
-95 callsubr
                </CharString>
                <CharString name="ebreve">
                    -34 callgsubr
61 127 11 callsubr
308 640 -106 callgsubr
204 -653 -101 callgsubr
                </CharString>
                <CharString name="ebreve.sc">
                    -75 callgsubr
62 127 20 callgsubr
282 659 -106 callgsubr
209 -532 rmoveto
-95 callsubr
                </CharString>
                <CharString name="ecaron">
                    -34 callgsubr
194 -20 29 -20 37 -20 hstemhm
51 155 181 154 hintmask 11100111
320 629 70 callgsubr
hintmask 11110011
-120 -101 rlineto
hintmask 11101011
-124 102 -92 -93 197 -153 rlineto
208 -642 -101 callgsubr
                </CharString>
                <CharString name="ecaron.sc">
                    -75 callgsubr
195 -20 20 callgsubr
294 648 -100 callsubr
213 -521 rmoveto
-95 callsubr
                </CharString>
                <CharString name="ecircumflex">
                    -34 callgsubr
133 -20 11 callsubr
424 636 -102 callgsubr
213 -751 -101 callgsubr
                </CharString>
                <CharString name="ecircumflex.sc">
                    -30 77 callsubr
83 161 vstem
398 655 -102 callgsubr
218 -630 rmoveto
-95 callsubr
                </CharString>
                <CharString name="edieresis">
                    -34 callgsubr
90 callgsubr
51 155 -95.5 -29 callgsubr
-116.5 154 hintmask 11110110
502 653 -104 callsubr
hintmask 11111001
403 -666 -101 callgsubr
                </CharString>
                <CharString name="edieresis.sc">
                    -50 callsubr
                </CharString>
                <CharString name="edotaccent">
                    -34 callgsubr
90 callgsubr
51 155 23.5 164 -6.5 154 hintmask 11110100
391 653 -81 callgsubr
hintmask 11111010
285 -666 -101 callgsubr
                </CharString>
                <CharString name="edotaccent.sc">
                    -75 callgsubr
75 163 hstemhm
83 161 -41.5 164 hintmask 11110100
364 672 -81 callgsubr
291 -545 rmoveto
hintmask 11111000
-95 callsubr
                </CharString>
                <CharString name="egrave">
                    -34 callgsubr
125 -20 92 -20 11 callsubr
440 704 -102 callsubr
111 -647 -101 callgsubr
                </CharString>
                <CharString name="egrave.sc">
                    -75 callgsubr
198 -20 20 callgsubr
413 723 -102 callsubr
117 -526 rmoveto
-95 callsubr
                </CharString>
                <CharString name="eight">
                    43 -16 121 478 121 hstemhm
64 150 -140 150 177 147 -137 152 hintmask 11100100
300 -16 rmoveto
163 100 89 113 83 -65 52 -73 42 hvcurveto
hintmask 11011000
77 41 46 52 79 vvcurveto
104 -101 65 -126 -161 -86 -98 -97 -75 54 -51 65 -42 vhcurveto
hintmask 11100100
-80 -45 -49 -58 -78 vvcurveto
-107 101 -69 135 vhcurveto
hintmask 11011000
-76 541 rmoveto
31 30 27 57 63 27 -33 -45 -36 -21 -35 -37 -26 vhcurveto
-65 34 -54 34 49 vvcurveto
hintmask 11100100
91 -420 rmoveto
-72 -29 37 50 39 21 37 37 27 hvcurveto
73 -41 66 -36 -50 vvcurveto
-36 -38 -27 -58 vhcurveto
endchar
                </CharString>
                <CharString name="eight.den">
                    -11 88 284 89 hstemhm
3 -69 callsubr
hintmask 11100100
172 -11 -91 callsubr
                </CharString>
                <CharString name="eight.den_afrc">
                    -1 callsubr
hstemhm
104 -69 callsubr
hintmask 10111001
273 -244 -72 callgsubr
hintmask 10110110
-77 callsubr
vhcurveto
hintmask 11010101
-26 callgsubr
hintmask 10111001
-35 callsubr
hintmask 10110110
-94 callgsubr
hintmask 10111001
-96 callgsubr
                </CharString>
                <CharString name="eight.den_afrc2">
                    401 6 callgsubr
hstemhm
314 -69 callsubr
hintmask 10111001
483 -244 -72 callgsubr
hintmask 10110110
-77 callsubr
vhcurveto
hintmask 11010101
-26 callgsubr
hintmask 10111001
-35 callsubr
hintmask 10110110
-94 callgsubr
hintmask 10111001
-96 callgsubr
                </CharString>
                <CharString name="eight.inf">
                    -85 -178 88 284 89 hstemhm
71 -69 callsubr
hintmask 11100100
240 -178 -91 callsubr
                </CharString>
                <CharString name="eight.num">
                    239 88 284 89 hstemhm
71 -69 callsubr
hintmask 11100100
240 239 -91 callsubr
                </CharString>
                <CharString name="eight.num_afrc">
                    -18 461 88 139 -20 33 -20 152 89 hstemhm
104 -69 callsubr
hintmask 10111001
273 461 -72 callgsubr
hintmask 11010110
52 26 29 34 46 vvcurveto
58 callsubr
hintmask 11011001
-56 -25 -31 -35 -50 vvcurveto
hintmask 10111001
-68 64 -49 105 vhcurveto
hintmask 10110110
-94 callgsubr
hintmask 10111001
-96 callgsubr
                </CharString>
                <CharString name="eight.num_afrc2">
                    401 461 88 139 -20 33 -20 152 89 hstemhm
314 -69 callsubr
hintmask 10111001
483 461 -72 callgsubr
hintmask 11010110
52 26 29 34 46 vvcurveto
58 callsubr
hintmask 11011001
-56 -25 -31 -35 -50 vvcurveto
hintmask 10111001
-68 64 -49 105 vhcurveto
hintmask 10110110
-94 callgsubr
hintmask 10111001
-96 callgsubr
                </CharString>
                <CharString name="eight.small">
                    -11 88 284 89 hstemhm
37 -69 callsubr
hintmask 11100100
206 -11 -91 callsubr
                </CharString>
                <CharString name="eight.sup">
                    -85 350 88 139 -20 165 89 hstemhm
71 -69 callsubr
hintmask 11110010
240 350 -72 callgsubr
hintmask 11101100
52 26 29 34 46 vvcurveto
58 callsubr
hintmask 11110010
-35 callsubr
hintmask 11101100
-94 callgsubr
hintmask 11110010
-96 callgsubr
                </CharString>
                <CharString name="ellipsis">
                    566 0 188 hstem
99.5 33 callgsubr
176 33 callgsubr
175.5 33 callgsubr
vstem
1045 40 callgsubr
-176 40 callgsubr
-176 hmoveto
8 188 rlineto
-199 hlineto
-9 -188 rlineto
endchar
                </CharString>
                <CharString name="emacron">
                    -34 callgsubr
88 137 11 callsubr
495 804 -65 callsubr
17 -680 -101 callgsubr
                </CharString>
                <CharString name="emacron.sc">
                    -75 callgsubr
89 137 20 callgsubr
468 823 -65 callsubr
23 -559 rmoveto
-95 callsubr
                </CharString>
                <CharString name="emdash">
                    229 275 123 hstem
72 674 vstem
746 398 rmoveto
-674 -123 661 hlineto
endchar
                </CharString>
                <CharString name="emspace">
                    419 endchar
                </CharString>
                <CharString name="endash">
                    -29 275 123 hstem
66 427 vstem
493 398 rmoveto
-427 -123 415 hlineto
endchar
                </CharString>
                <CharString name="endash.tab">
                    43 275 123 hstem
68 495 vstem
563 398 rmoveto
-495 -123 483 hlineto
endchar
                </CharString>
                <CharString name="enspace">
                    -81 endchar
                </CharString>
                <CharString name="eogonek">
                    13 10 -21 24 -21 251 93 111 132 hstemhm
51 155 35 133 13 154 hintmask 10111110
485 -257 85 callgsubr
-84 9 -40 10 24 vvcurveto
19 30 25 108 37 vhcurveto
14 131 -220 4 -80 24 -17 91 rlinecurve
329 8 rlineto
hintmask 01111010
207 20 -72 125 -159 hhcurveto
-147 -129 -134 -177 -150 59 -104 232 -22 hvcurveto
hintmask 01111110
-71 -39 -30 -42 -42 vvcurveto
hintmask 10111110
-61 57 -52 187 -13 vhcurveto
hintmask 01111010
-186 704 rmoveto
60 24 -40 -71 4 hvcurveto
-55 -1 -76 -2 -50 -2 rrcurveto
86 5 30 30 58 hhcurveto
endchar
                </CharString>
                <CharString name="eogonek.sc">
                    -42 callsubr
                </CharString>
                <CharString name="equal">
                    43 150 136 107 136 84 callsubr
529 rmoveto
-473 -136 473 hlineto
-107 vmoveto
-473 -136 473 hlineto
endchar
                </CharString>
                <CharString name="eth">
                    43 -18 132 273 127 190 -20 22 -20 110 -20 hstemhm
50 155 213 151 hintmask 11011110
297 -18 rmoveto
146 126 112 206 126 -43 109 -90 100 hvcurveto
77 31 -32 87 -118 -47 -35 30 -40 30 -45 30 rlinecurve
hintmask 11101110
-102 -92 28 -19 26 -18 24 -19 rlinecurve
-98 -39 32 -87 142 57 20 -22 17 -21 15 -22 rlinecurve
-157 -9 -140 -93 -173 vvcurveto
hintmask 11011110
-161 111 -96 136 vhcurveto
19 132 rmoveto
-58 -53 52 93 106 59 49 145 -42 hvcurveto
6 -30 3 -30 -31 vvcurveto
-114 -36 -53 -66 vhcurveto
endchar
                </CharString>
                <CharString name="eth.sc">
                    -89 callsubr
                </CharString>
                <CharString name="exclam">
                    -187 0 173 hstem
101 184 vstem
252 286 rmoveto
54 467 rlineto
-202 hlineto
42 -467 rlineto
137 -286 rmoveto
4 173 rlineto
-184 hlineto
-4 -173 rlineto
endchar
                </CharString>
                <CharString name="exclamdown">
                    -187 517 173 hstem
109 185 vstem
111 690 rmoveto
-4 -173 rlineto
185 hlineto
4 173 rlineto
-153 -286 rmoveto
-55 -468 rlineto
202 hlineto
-42 468 rlineto
endchar
                </CharString>
                <CharString name="f">
                    23 callgsubr
152 122 -152 26 hlineto
80 12 7 174 4 vhcurveto
-9 156 rlineto
-255 -13 -80 27 callsubr
                </CharString>
                <CharString name="f.lig">
                    23 callgsubr
151 122 -151 26 hlineto
80 12 7 166 4 vhcurveto
-7 156 rlineto
-250 -13 -79 27 callsubr
                </CharString>
                <CharString name="f.sc">
                    -3 callsubr
                </CharString>
                <CharString name="figurespace">
                    -31 endchar
                </CharString>
                <CharString name="five">
                    43 5 -21 564.5 139.5 hstem
118 139.5 142.5 147 vstem
547 236 rmoveto
88 -68 78 -225 32 vhcurveto
7 115 253 -1 12 140 rlineto
-397 hlineto
-22 -355 rlineto
212 -25 81 -36 -46 vvcurveto
-57 -73 -20 -239 -18 vhcurveto
9 -147 rlineto
315 17 135 105 130 vvcurveto
endchar
                </CharString>
                <CharString name="five.den">
                    -13 -30 callsubr
40 48 callsubr
vstem
349 146 -101 callsubr
                </CharString>
                <CharString name="five.den_afrc">
                    -19 callsubr
hstem
141 48 callsubr
vstem
450 -87 -101 callsubr
                </CharString>
                <CharString name="five.den_afrc2">
                    401 4 callgsubr
hstem
351 48 callsubr
vstem
660 -87 -101 callsubr
                </CharString>
                <CharString name="five.inf">
                    -85 -180 -30 callsubr
108 48 callsubr
vstem
417 -21 -101 callsubr
                </CharString>
                <CharString name="five.num">
                    237 -30 callsubr
108 48 callsubr
vstem
417 396 -101 callsubr
                </CharString>
                <CharString name="five.num_afrc">
                    -18 459 -30 callsubr
141 48 callsubr
vstem
-56 callsubr
endchar
                </CharString>
                <CharString name="five.num_afrc2">
                    401 459 -30 callsubr
351 48 callsubr
vstem
660 -14 callsubr
endchar
                </CharString>
                <CharString name="five.small">
                    -13 -30 callsubr
74 48 callsubr
vstem
383 146 -101 callsubr
                </CharString>
                <CharString name="five.sup">
                    -85 348 -30 callsubr
108 48 callsubr
vstem
417 507 -101 callsubr
                </CharString>
                <CharString name="fiveeighths">
                    73 callsubr
256 110 14 89 133.5 104.5 19 -20 hstemhm
108 48 callsubr
278 -69 callsubr
hintmask 0111011101010000
401 -71 callgsubr
103 364 rmoveto
hintmask 1011101101010000
-106 callsubr
hintmask 0111011101010000
-55 callsubr
hintmask 1001101110010000
447 -407 -72 callgsubr
hintmask 1001101101100000
52 26 29 34 46 vvcurveto
58 callsubr
hintmask 1001101110010000
-35 callsubr
hintmask 1001101101100000
-94 callgsubr
hintmask 1001101110010000
-96 callgsubr
                </CharString>
                <CharString name="fiveeighths.afrc">
                    -1 callsubr
71 101 70 -70 callgsubr
hstemhm
104 115 -108 120 -90 48 callsubr
-112 121 hintmask 1011111001100000
-56 callsubr
-390 -330 -37 callsubr
hintmask 1011111100010000
213 -633 -72 callgsubr
hintmask 1011111010100000
-77 callsubr
vhcurveto
hintmask 1101111010100000
-26 callgsubr
hintmask 1011111100100000
-56 -25 -31 -35 -50 vvcurveto
hintmask 1011111100010000
-68 64 -49 105 vhcurveto
hintmask 1011111010100000
-94 callgsubr
hintmask 1011111100010000
-96 callgsubr
                </CharString>
                <CharString name="fivesixths">
                    539 -11 95 -82 -21 212 79 -35 -70 callgsubr
19 -20 hstemhm
108 48 callsubr
276 115 130 113 hintmask 0101011111000000
411 -71 callgsubr
93 364 rmoveto
hintmask 1001101111000000
-106 callsubr
hintmask 0101011111000000
-55 callsubr
hintmask 1010101111000000
454 -407 -105 callsubr
                </CharString>
                <CharString name="fivesixths.afrc">
                    -18 -244 89 callsubr
249 101 70 -70 callgsubr
hstemhm
102 115 -76 48 callsubr
-103 113 hintmask 1111101100000000
-56 callsubr
-390 -330 -37 callsubr
hintmask 1111110010000000
220 -633 -105 callsubr
                </CharString>
                <CharString name="four">
                    43 21 -21 117 138 430 -20 30 -20 hstemhm
366 145 hintmask 11011000
574 117 rmoveto
12 138 rlineto
-75 233 hlineto
-145 -17 rlineto
-216 -168 vlineto
hintmask 11101000
113 430 rlineto
hintmask 11011000
-170 10 -49 -195 -24 -227 6 -156 rlinecurve
292 -117 145 117 hlineto
endchar
                </CharString>
                <CharString name="four.den">
                    53 callsubr
210.5 111 hintmask 10100000
365 -16 callgsubr
                </CharString>
                <CharString name="four.den_afrc">
                    -18 -158 16 callgsubr
hstem
84 callgsubr
vstem
466 -159 -82 callgsubr
                </CharString>
                <CharString name="four.den_afrc2">
                    401 -158 16 callgsubr
hstem
521.5 111 vstem
676 -159 -82 callgsubr
                </CharString>
                <CharString name="four.inf">
                    -85 -92 16 callgsubr
21.5 -21 hstemhm
61 callgsubr
hintmask 10100000
433 -93 rmoveto
7 100 -51 -1 1 134 -112 -11 1 -123 rlineto
hintmask 01100000
-98 1 69 262 -128 8 rlineto
hintmask 10100000
-43 callsubr
200 2 rcurveline
0 callgsubr
                </CharString>
                <CharString name="four.num">
                    325 25 callgsubr
149 -20 28 -20 hstemhm
61 callgsubr
hintmask 11011000
433 324 rmoveto
7 100 -51 -1 1 134 -112 -11 1 -123 -98 1 rlineto
hintmask 11101000
69 262 rlineto
hintmask 11011000
-128 8 -43 callsubr
rlinecurve
200 2 0 callgsubr
                </CharString>
                <CharString name="four.num_afrc">
                    -18 547 25 callgsubr
hstem
84 callgsubr
vstem
-11 callgsubr
endchar
                </CharString>
                <CharString name="four.num_afrc2">
                    401 547 25 callgsubr
hstem
521.5 111 vstem
676 546 -82 callgsubr
                </CharString>
                <CharString name="four.small">
                    53 callsubr
244.5 111 hintmask 10100000
399 -16 callgsubr
                </CharString>
                <CharString name="four.sup">
                    -85 436 16 callgsubr
262.5 -20 hstem
61 callgsubr
vstem
433 435 -82 callgsubr
                </CharString>
                <CharString name="fourfifths">
                    60 callgsubr
344 16 callgsubr
-90 104.5 119 -20 157 -20 33 -20 hstemhm
61 callgsubr
342.5 48 callsubr
hintmask 0101101111000000
401 -71 callgsubr
hintmask 1001101111000000
727 114 rmoveto
-106 callsubr
-55 callsubr
hintmask 0110101111000000
-608 178 rmoveto
7 100 -51 -1 1 134 -112 -11 1 -123 -98 1 69 262 rlineto
hintmask 0110110111000000
-128 8 -43 callsubr
rlinecurve
200 2 0 callgsubr
                </CharString>
                <CharString name="fourfifths.afrc">
                    -19 callsubr
83 101 158 25 callgsubr
hstemhm
141 104 66.5 111 -86.5 114 hintmask 01111110
-11 callgsubr
-362 -259 -37 callsubr
hintmask 11111101
390 -476 -101 callsubr
                </CharString>
                <CharString name="fourperemspace">
                    -331 endchar
                </CharString>
                <CharString name="fraction">
                    -298 2 -21 726 -20 hstem
-104 489 vstem
-17 -71 callgsubr
endchar
                </CharString>
                <CharString name="fraction.afrc">
                    -18 288 101 hstem
60 443 vstem
60 288 -37 callsubr
endchar
                </CharString>
                <CharString name="fraction.afrc2">
                    401 288 101 hstem
61 870 vstem
61 288 rmoveto
870 101 -870 hlineto
endchar
                </CharString>
                <CharString name="fraction.tab">
                    -298 2 -21 726 -20 hstem
-104 489 vstem
-17 -71 callgsubr
endchar
                </CharString>
                <CharString name="g">
                    18 callgsubr
hstem
51 156 183 159 vstem
136 -197 rmoveto
-85 callgsubr
                </CharString>
                <CharString name="g.sc">
                    2 callgsubr
hstem
49 163 197 147 vstem
-23 callsubr
endchar
                </CharString>
                <CharString name="gbreve">
                    18 callgsubr
61 127 hstem
51 156 183 159 vstem
330 638 -106 callgsubr
-194 -835 rmoveto
-85 callgsubr
                </CharString>
                <CharString name="gbreve.sc">
                    2 callgsubr
61 127 hstem
49 163 197 147 vstem
333 668 -106 callgsubr
224 -660 -97 callsubr
endchar
                </CharString>
                <CharString name="gcommaaccent">
                    18 callgsubr
hstemhm
51 156 29 169 -15 159 hintmask 11111000
419 876 41 callsubr
-283 -1073 rmoveto
hintmask 11110100
-85 callgsubr
                </CharString>
                <CharString name="gcommaaccent.sc">
                    -57 callgsubr
                </CharString>
                <CharString name="gdotaccent">
                    18 callgsubr
90 callgsubr
51 156 44.5 164 -25.5 159 hintmask 10111100
413 651 -81 callgsubr
-113 -848 rmoveto
hintmask 11111010
-85 callgsubr
                </CharString>
                <CharString name="gdotaccent.sc">
                    2 callgsubr
90 callgsubr
49 163 42.5 164 -9.5 147 hintmask 11111000
416 681 -81 callgsubr
hintmask 11110100
305 -673 -97 callsubr
endchar
                </CharString>
                <CharString name="germandbls">
                    88 -10 137 -127 127 532 138 hstemhm
74 158 72 157 -57 160 -75 161 hintmask 10111000
461 399 rmoveto
hintmask 01110100
49 103 51 121 vvcurveto
84 -60 93 -143 -185 -102 -129 -166 vhcurveto
-502 158 535 vlineto
92 27 32 64 55 26 -36 -40 vhcurveto
hintmask 10111000
-70 -100 -53 -83 vvcurveto
hintmask 10111010
-130 185 -18 -61 vvcurveto
-38 -45 -9 -126 9 vhcurveto
-6 -140 rlineto
264 -5 74 94 92 vvcurveto
hintmask 10111000
142 -189 24 62 vvcurveto
endchar
                </CharString>
                <CharString name="germandbls.sc">
                    464 -9 -73 callsubr
78 175 85 173 78 175 hintmask 01011111
576 126 rmoveto
hintmask 10101111
-85 callsubr
hintmask 01011111
-8 136 rlineto
-281 13 -97 -95 -101 -143 251 -37 -71 vvcurveto
-40 -64 -18 -182 12 vhcurveto
-511 hmoveto
hintmask 10101111
-85 callsubr
hintmask 01011111
-8 136 rlineto
-281 13 -97 -95 -101 -143 251 -37 -71 vvcurveto
-40 -64 -18 -182 12 vhcurveto
endchar
                </CharString>
                <CharString name="grave">
                    -16 690 -20 hstem
119 336 vstem
455 690 -102 callsubr
endchar
                </CharString>
                <CharString name="grave.cap">
                    -16 690 -20 hstem
119 336 vstem
455 690 -102 callsubr
endchar
                </CharString>
                <CharString name="greater">
                    43 39 584 hstem
403 142 vstem
146 39 rmoveto
399 215 rlineto
156 vlineto
-393 213 -66 -133 317 -152 rlineto
-12 vlineto
-318 -154 rlineto
endchar
                </CharString>
                <CharString name="greaterequal">
                    43 -1 133 hstem
378 162.5 vstem
87 274 rmoveto
43 -123 411 164 -1 134 -397 204 -56 -125 291 -138 rlineto
-8 vlineto
-302 -250 rmoveto
-133 473 133 vlineto
endchar
                </CharString>
                <CharString name="guillemotleft">
                    214 -3 -21 hstem
59 688 vstem
283 -24 -17 callsubr
                </CharString>
                <CharString name="guillemotleft.cap">
                    214 35 614 hstem
59 688 vstem
283 35 -17 callsubr
                </CharString>
                <CharString name="guillemotright">
                    214 -2 -21 614 -20 hstem
47 688 vstem
504 -23 -24 callsubr
-103 211 -206 -215 -199 rlineto
-236 -106 -24 callsubr
-104 210 -205 -215 -199 rlineto
endchar
                </CharString>
                <CharString name="guillemotright.cap">
                    214 36 614 hstem
47 688 vstem
504 36 -24 callsubr
-103 211 -206 -215 -199 rlineto
-236 -106 -24 callsubr
-104 210 -205 -215 -199 rlineto
endchar
                </CharString>
                <CharString name="guilsinglleft">
                    -133 -3 -21 hstem
59 342 vstem
283 -24 -26 callsubr
endchar
                </CharString>
                <CharString name="guilsinglleft.cap">
                    -133 35 614 hstem
59 342 vstem
283 35 -26 callsubr
endchar
                </CharString>
                <CharString name="guilsinglright">
                    -133 -2 -21 614 -20 hstem
47 342 vstem
158 -23 -24 callsubr
-104 211 -205 -216 -199 rlineto
endchar
                </CharString>
                <CharString name="guilsinglright.cap">
                    -133 36 614 hstem
47 342 vstem
158 36 -24 callsubr
-104 211 -205 -216 -199 rlineto
endchar
                </CharString>
                <CharString name="h">
                    67 40 callsubr
201 -20 33 -20 hstemhm
79 -18 callgsubr
hintmask 11011100
331 440 -20 callsubr
136 -65 57 -102 -72 -54 -27 -35 -43 vhcurveto
276 vlineto
hintmask 11101100
-159 -13 rlineto
-780 159 416 vlineto
hintmask 11011100
15 28 30 9 35 hhcurveto
endchar
                </CharString>
                <CharString name="h.sc">
                    -11 callsubr
                </CharString>
                <CharString name="hairspace">
                    -506 endchar
                </CharString>
                <CharString name="hbar">
                    67 21 -21 436 138 49 97 62 -20 30 -20 hstemhm
79 -18 callgsubr
hintmask 11101110
331 436 rmoveto
51 33 -25 -88 hvcurveto
-323 159 383 vlineto
135 -65 56 -102 -72 -54 -27 -34 -43 vhcurveto
110 127 97 -127 72 vlineto
hintmask 11110110
-159 -10 rlineto
-62 -65 -98 65 -622 159 412 vlineto
hintmask 11101110
15 28 30 9 35 hhcurveto
endchar
                </CharString>
                <CharString name="hbar.sc">
                    -42 callgsubr
                </CharString>
                <CharString name="hcoslug">
                    113 -100 100 6 12 -11 11 -11 18 -18 25 -25 41 -36 14 -13 10 -3 14 -11 9 0 16 -9 15 -15 20 -19 34 -19 19 -15 15 7 8 -1 13 -7 12 6 10 -9 43 -42 11 hstemhm
50 82 13 10 -10 22 -5 12 6 9 -2 16 -1 16 -2 9 12 13 -3 14 -14 56 -41 12 -1 9 4 16 -8 14 5 13 -6 7 8 17 -12 14 8 7 -5 15 -13 8 hintmask 001000000000001000001010001000100000100000010000
644 700 rmoveto
-594 hlineto
hintmask 100000000000000000001010000000001000000001000000
-800 594 vlineto
-397 528 rmoveto
-23 15 -14 23 -22 vhcurveto
11 17 7 16 17 vvcurveto
23 -12 15 -17 -16 -11 -12 -17 vhcurveto
65 -86 rmoveto
16 -16 12 -15 13 -15 19 33 5 24 -23 23 -9 -10 -14 -11 -19 -13 rrcurveto
-51 -123 rmoveto
15 12 3 9 11 hvcurveto
-28 35 -28 30 -18 17 rrcurveto
-11 -11 -5 -14 -15 vvcurveto
-31 22 -23 30 vhcurveto
121 45 rmoveto
-29 25 17 -12 20 hhcurveto
21 12 12 17 10 hvcurveto
7 -2 rlineto
-58 -2 -35 -36 -43 hhcurveto
-30 -22 11 34 -33 hvcurveto
-31 -28 -34 -14 -42 hhcurveto
-60 -49 40 53 42 29 31 53 18 hvcurveto
-21 22 -10 18 29 vvcurveto
43 42 42 67 62 33 -39 -35 -13 -3 -11 -6 -10 vhcurveto
27 1 20 -11 2 -27 rrcurveto
24 16 19 14 25 hhcurveto
28 22 -21 -31 -31 -22 -23 -28 -18 -16 10 15 -9 hvcurveto
-15 -9 -16 -13 -15 -20 rrcurveto
hintmask 000000000000000000001000000000000001000000000000
-96 -140 rmoveto
-11 13 -7 vlineto
hintmask 000000000000000000100000000000000001000000000000
-13 -20 hlineto
-3 1 -2 3 2 2 2 5 1 vhcurveto
5 -2 rlineto
hintmask 100000000000000000100000000000000100000000000000
-2 -9 -4 -4 -8 -8 -4 5 0 hflex1
20 -7 7 7 9 vlineto
hintmask 000000000000001000000000010000000000000000000000
-100 -28 rmoveto
hintmask 000000000000000000100000010001000000000000000000
45 callgsubr
hintmask 000000000000001000000000000001000000000000000000
-12 -9 -9 -12 vhcurveto
hintmask 000000000000001000000000010000000000000000000000
-12 -9 8 13 hvcurveto
hintmask 000000000000000000100010000100000000000000100000
29 hmoveto
43 callgsubr
43 callsubr
176 -1 rmoveto
0 8 -2 5 -5 -6 -2 -6 0 hflex1
0 -8 2 -5 6 5 2 5 0 hflex1
-160 -12 rmoveto
6 hlineto
hintmask 000000000000000000100000000001000000000000000000
25 -6 7 vlineto
hintmask 000000000000000000001000000000100000000000000000
17 -10 hlineto
hintmask 000000000000000000001000000000000100000000000000
7 3 4 4 7 hhcurveto
9 3 -6 -8 hvcurveto
hintmask 000000000000000000100000000000000100000000000000
-19 6 -7 vlineto
hintmask 100000000000000000100000000000100000000000000000
-22 7 4 18 hlineto
4 -2 3 -4 -4 -3 -4 -6 vhcurveto
-15 4 -7 vlineto
hintmask 000000000000001000000010000000000000000000000000
-22 hlineto
hintmask 000000000000000010000010000000000000000000000000
-94 7 rmoveto
7 hlineto
hintmask 000000000000000000010010000000000000000000000000
41 -7 7 vlineto
hintmask 000000000000000000001000000100000000000000000000
51 hlineto
hintmask 000000000000000000100000000100000000000000000000
-20 -8 vlineto
hintmask 000000000000000000010001000000000000000000000000
11 -2 -2 2 -7 hhcurveto
-12 -18 4 hlineto
5 0 1 7 1 hvcurveto
7 hlineto
hintmask 000000000000000010000000010000000000000000000000
-23 -7 vlineto
7 -1 0 1 -5 hhcurveto
-4 hlineto
hintmask 000000000000000010000001000000000000000000000000
-16 10 -7 vlineto
hintmask 000000000000001000000010000000000000000000000000
-30 hlineto
hintmask 000000000000000000100000000000000001000000000000
177 14 rmoveto
7 hlineto
hintmask 000000000000000000000100000000000000010000000000
-6 4 3 -3 5 hhcurveto
3 2 2 2 hvcurveto
hintmask 000000000000000000000100000000000001000000000000
8 -24 -5 16 vvcurveto
6 5 6 9 5 4 -2 -3 2 vhcurveto
2 5 rlineto
6 hlineto
hintmask 100000000000000001000000000000000000000100000000
-13 -7 vlineto
4 -3 -3 3 -4 hhcurveto
-3 -2 -2 -2 hvcurveto
-8 24 6 -16 vvcurveto
-7 -5 -6 -9 vhcurveto
hintmask 100000000000000000000000000000000000010000000000
-7 -3 3 2 -3 hvcurveto
-1 -4 rlineto
-7 hlineto
hintmask 000000000000000000000100000000000000000100000000
50 51 rmoveto
-6 7 hlineto
hintmask 000000000000000000001000000000000000000000100000
18 hlineto
hintmask 100000000000000000000100000000000000000000100000
-27 vlineto
6 2 5 3 6 hhcurveto
9 6 -8 -12 -9 -4 -12 -12 -7 -4 3 5 -3 hvcurveto
-4 -8 rlineto
-6 hlineto
53 -8 rmoveto
4 3 3 5 1 hvcurveto
-4 10 -12 23 0 vvcurveto
-5 7 hlineto
hintmask 000000000000000000001000000000000000000000000000
25 -7 -6 hlineto
hintmask 100000000000100000001000000000000000000000100000
9 -20 8 20 rlineto
-5 7 17 -7 -5 hlineto
-13 -31 rlineto
-10 -4 -5 -6 -9 hhcurveto
-7 -4 4 5 4 3 3 4 hvcurveto
hintmask 100000000000000000000100000000000000000000100000
7 1 -7 -3 -3 hvcurveto
hintmask 000000000010000000000000000000000000000000000000
59 -32 rmoveto
-7 -5 vlineto
hintmask 000000100000000000000000000000000000000000000000
-3 -6 -3 -4 -3 -4 rrcurveto
2 -3 2 -2 2 2 1 1 1 hflex1
5 -1 rlineto
81 callgsubr
-7 -2 -3 -5 -8 hhcurveto
-5 0 -3 1 -4 5 -4 -4 -5 -2 -6 flex1
-12 -6 6 8 hvcurveto
hintmask 000010000000000000000000000000000000000000000000
8 6 5 7 2 vhcurveto
-4 4 -2 3 5 vvcurveto
7 7 7 10 9 5 -6 -6 vhcurveto
-6 -4 -3 -7 -3 vhcurveto
hintmask 000000100000000000000000000000000000000000000000
5 -5 3 -4 4 -4 2 2 3 4 1 3 rrcurveto
-6 7 hlineto
hintmask 100000000001000000000000000000000000100000000000
-152 6 rmoveto
14 5 hlineto
-3 -3 2 4 2 1 1 0 hvcurveto
0 -1 1 -2 -3 -3 -2 -10 vhcurveto
175 -15 rmoveto
80 callsubr
18 13 12 14 vhcurveto
7 5 -3 -4 4 hvcurveto
1 6 rlineto
8 hlineto
-22 -8 vlineto
hintmask 000000000010000000000000000000000000000000000000
12 -4 -3 4 -8 hhcurveto
-8 -6 -6 -16 hvcurveto
hintmask 010000000000000000000000000000000000000000000000
-15 6 -7 10 8 5 7 9 1 vhcurveto
8 hlineto
81 callgsubr
-14 -1 -8 -9 -15 hhcurveto
hintmask 100000000001000000000000000000000000100000000000
-18 -11 11 17 hvcurveto
hintmask 000001000000000000000000000000000000000000000000
-38 6 rmoveto
3 2 2 3 4 vvcurveto
3 -2 3 -4 -3 -2 -2 -3 -3 2 -3 4 -4 vhcurveto
hintmask 001000000000000000000000000000010000000000000000
-184 -15 rmoveto
hintmask 010000000000000000000000000000010000000000000000
71 callgsubr
hintmask 100000000000010000000000000010000010000000000000
58 callgsubr
hintmask 001000000000000000000000000000000010000000000000
14 6 -9 -13 -1 hvcurveto
hintmask 100000000010000000000000001000010000000000000000
-84 2 rmoveto
45 callgsubr
-12 -9 -9 -12 -12 -9 8 13 vhcurveto
336 hmoveto
80 callsubr
45 callgsubr
81 callgsubr
-12 -9 -9 -12 vhcurveto
hintmask 100000000010000000000000001000010000000000000000
-12 -9 8 13 hvcurveto
hintmask 001000000000000000000000000000000000000010000000
-185 -2 rmoveto
hintmask 010000000000000000000000000000000000000010000000
71 callgsubr
hintmask 100000000000010000000000000000000000001000010000
58 callgsubr
hintmask 001000000000000000000000000000000000000000010000
14 6 -9 -13 -1 hvcurveto
hintmask 000000010000000000000000000000010000000000000000
-119 5 rmoveto
hintmask 000000000100000000000000000000010000000000000000
14 hlineto
hintmask 000000010000000000000000000000010000000000000000
79 callgsubr
hintmask 001000000000000000000000000010000000000000000000
-29 -3 rmoveto
hintmask 000000000010000000000000000010000000000000000000
43 callgsubr
hintmask 001000000000000000000000000010000000000000000000
43 callsubr
46 callgsubr
336 hmoveto
80 callsubr
43 callgsubr
46 callgsubr
43 callsubr
hintmask 000000010000000000000000000000000000000010000000
-214 3 rmoveto
hintmask 000000000100000000000000000000000000000010000000
14 hlineto
hintmask 000000010000000000000000000000000000000010000000
79 callgsubr
hintmask 001000000000000000000000000000000010000000000000
-64 -16 rmoveto
6 hlineto
hintmask 000000000100000000000000000000000010000000000000
25 -7 7 7 1 vlineto
hintmask 001000000000000100000000000000000010001000000000
13 9 6 10 3 4 -1 -1 2 vhcurveto
10 2 rlineto
-52 6 -7 vlineto
hintmask 100000000000000000000000000000000000100000000000
-23 7 5 hlineto
hintmask 000010000000000000000000000000000000100000000000
25 -14 vlineto
hintmask 001000000000000000000000000000000000100000000000
-25 5 -7 vlineto
hintmask 100000000000000000000000000000000010000000000000
-23 hlineto
hintmask 001000000000000000000000000000000000001000000000
92 7 rmoveto
6 hlineto
hintmask 000000000100000000000000000000000000000000010000
25 -6 7 vlineto
hintmask 000000000000010000000000000000000000000000000000
18 -10 hlineto
8 3 4 3 5 hhcurveto
5 3 -3 -5 -4 -3 -3 -4 -3 -3 2 4 hvcurveto
1 vlineto
-2 -3 -4 -5 -2 hvcurveto
46 callgsubr
-16 8 -7 vlineto
hintmask 100000000000000000000000000000000000001000000000
-26 hlineto
46 callgsubr
69 9 rmoveto
hintmask 000100000000000000000000000000000000000000000000
-5 6 -4 5 -5 5 rrcurveto
-2 -2 -2 -3 -4 vvcurveto
-6 4 -4 6 vhcurveto
46 callgsubr
2 3 1 2 3 hvcurveto
hintmask 001000000000000000000010000000000000000000000000
-313 -2 rmoveto
8 hlineto
hintmask 000000000010000000000010000000000000000000000000
41 -8 7 vlineto
hintmask 000000000000001000000000100000000000000000000000
29 -7 -8 hlineto
hintmask 000000000010000000000000100000000000000000000000
-16 22 16 -8 7 vlineto
hintmask 001000000000001000000000001000000000000000000000
29 -7 -8 -41 8 -7 hlineto
hintmask 100000000000000000000000100000000000000000000000
-29 7 8 hlineto
hintmask 000100000000000000000000100000000000000000000000
18 -22 vlineto
hintmask 001000000000000000000000100000000000000000000000
-18 8 -7 vlineto
hintmask 100000000000000000000010000000000000000000000000
-29 hlineto
459 6 rmoveto
0 -4 -3 -3 -4 -4 -3 3 0 hflex1
0 4 3 3 4 4 3 -3 0 hflex1
endchar
                </CharString>
                <CharString name="hungarumlaut">
                    -16 628 275 hstem
111 473 vstem
111 675 -86 callsubr
endchar
                </CharString>
                <CharString name="hungarumlaut.cap">
                    -16 628 275 hstem
111 473 vstem
111 675 -86 callsubr
endchar
                </CharString>
                <CharString name="hyphen">
                    -140 267 139 hstem
66 316 vstem
382 406 rmoveto
-316 -139 304 hlineto
endchar
                </CharString>
                <CharString name="hyphen.tab">
                    43 267 139 hstem
115 401 vstem
516 406 rmoveto
-401 -139 389 hlineto
endchar
                </CharString>
                <CharString name="i">
                    -38 callgsubr
                </CharString>
                <CharString name="i.dot">
                    -38 callgsubr
                </CharString>
                <CharString name="i.sc">
                    -58 callgsubr
0 callsubr
349 479 -97 callgsubr
                </CharString>
                <CharString name="iacute">
                    -45 -28 callgsubr
51 callsubr
126 692 -107 callgsubr
382 -692 rmoveto
13 120 rlineto
-63 callgsubr
                </CharString>
                <CharString name="iacute.sc">
                    -58 callgsubr
0 callsubr
130 725 -107 callgsubr
219 -246 -97 callgsubr
                </CharString>
                <CharString name="ibreve">
                    -45 -28 callgsubr
63 127 51 callsubr
269 626 -106 callgsubr
239 -626 rmoveto
13 120 rlineto
-63 callgsubr
                </CharString>
                <CharString name="ibreve.sc">
                    -58 callgsubr
62 127 0 callsubr
272 659 -106 callgsubr
77 -180 -97 callgsubr
                </CharString>
                <CharString name="icircumflex">
                    -45 -28 callgsubr
135 -20 51 callsubr
385 622 -102 callgsubr
248 -724 rmoveto
13 120 rlineto
-63 callgsubr
                </CharString>
                <CharString name="icircumflex.sc">
                    -58 callgsubr
0 callsubr
389 655 38 callsubr
-278 -97 callgsubr
                </CharString>
                <CharString name="idieresis">
                    -45 -28 callgsubr
75 callgsubr
71.5 157 -18.5 158 -60.5 157 hintmask 11100100
463 639 rmoveto
3 163 rlineto
hintmask 11101000
-157 hlineto
-3 -163 rlineto
hintmask 11110000
-79 hmoveto
3 163 rlineto
-157 hlineto
-3 -163 rlineto
438 -639 rmoveto
13 120 rlineto
hintmask 11101000
-63 callgsubr
                </CharString>
                <CharString name="idieresis.sc">
                    -58 callgsubr
75 163 hstemhm
74.5 157 -43.5 161 -38.5 157 hintmask 11110100
466 672 -104 callsubr
hintmask 11101000
276 -193 -97 callgsubr
                </CharString>
                <CharString name="idotaccent.sc">
                    -58 callgsubr
75 163 hstemhm
188 161 -155.5 164 hintmask 11101000
355 672 -81 callgsubr
hintmask 11110000
158 -193 -97 callgsubr
                </CharString>
                <CharString name="igrave">
                    -45 -28 callgsubr
127 -20 51 callsubr
401 690 -102 callsubr
146 -620 rmoveto
13 120 rlineto
-63 callgsubr
                </CharString>
                <CharString name="igrave.sc">
                    -58 callgsubr
198 -20 0 callsubr
404 723 38 callgsubr
-174 -97 callgsubr
                </CharString>
                <CharString name="imacron">
                    -45 -28 callgsubr
90 137 51 callsubr
456 790 -65 callsubr
52 -653 rmoveto
13 120 rlineto
-63 callgsubr
                </CharString>
                <CharString name="imacron.sc">
                    -58 callgsubr
89 137 0 callsubr
459 823 -65 callsubr
-110 -207 -97 callgsubr
                </CharString>
                <CharString name="iogonek">
                    -45 -28 callgsubr
75 callgsubr
130 133 -55.5 164 -161.5 158 hintmask 11101000
367 639 rmoveto
9 163 55 callgsubr
-9 -163 rlineto
188 -774 rmoveto
hintmask 11110000
-86 11 -42 12 31 vvcurveto
20 20 25 72 36 vhcurveto
153 hlineto
70 callsubr
hintmask 11100100
-152 443 -304 hlineto
-11 -116 157 -8 rlineto
-319 vlineto
hintmask 11110000
-154 -120 157 hlineto
-59 -39 -24 -39 -41 35 callgsubr
                </CharString>
                <CharString name="iogonek.sc">
                    -45 callsubr
                </CharString>
                <CharString name="j">
                    -121 -194 149 488 120 75 callgsubr
201.5 164 -156.5 158 hintmask 11110000
363 639 -81 callgsubr
hintmask 11101000
168 -554 rmoveto
478 -306 vlineto
-11 -116 159 -8 rlineto
-387 vlineto
-85 -10 -8 -160 -4 vhcurveto
-4 -149 rlineto
261 14 71 111 154 vvcurveto
endchar
                </CharString>
                <CharString name="j.sc">
                    -13 callgsubr
                </CharString>
                <CharString name="k">
                    13 callsubr
-21 callsubr
endchar
                </CharString>
                <CharString name="k.sc">
                    -13 callsubr
-67 callsubr
endchar
                </CharString>
                <CharString name="kcommaaccent">
                    13 callsubr
2 168 -21 callsubr
hintmask 0011010101000000
-64 -536 -100 callgsubr
                </CharString>
                <CharString name="kcommaaccent.sc">
                    -13 callsubr
-2 168 -67 callsubr
hintmask 00111010
-62 -547 -100 callgsubr
                </CharString>
                <CharString name="l">
                    -14 callgsubr
vstem
21 callgsubr
endchar
                </CharString>
                <CharString name="l.sc">
                    37 callsubr
469 -163 -597 hlineto
endchar
                </CharString>
                <CharString name="lacute">
                    -14 callgsubr
vstem
117 907 -107 callgsubr
342 -907 rmoveto
-32 callsubr
endchar
                </CharString>
                <CharString name="lacute.sc">
                    -12 callsubr
132 725 -107 callgsubr
346 -725 rmoveto
-39 callsubr
endchar
                </CharString>
                <CharString name="lcaron">
                    -14 callgsubr
83 151 vstem
412 633 -66 callsubr
47 -633 rmoveto
-32 callsubr
endchar
                </CharString>
                <CharString name="lcaron.sc">
                    -56 0 128 469 -20 134 -20 hstem
83 163 97 151 vstem
334 449 -66 callsubr
144 -449 rmoveto
-39 callsubr
endchar
                </CharString>
                <CharString name="lcommaaccent">
                    -72 0 120 537.5 120.5 hstemhm
179 159 -158 168 hintmask 11100000
21 callgsubr
hintmask 11010000
118 -300 -100 callgsubr
                </CharString>
                <CharString name="lcommaaccent.sc">
                    -22 callgsubr
                </CharString>
                <CharString name="ldot">
                    -62 0 120 162 165 210.5 120.5 hstem
179 159 103 143.5 vstem
21 callgsubr
533 282 rmoveto
9 165 rlineto
-143 hlineto
-10 -165 rlineto
endchar
                </CharString>
                <CharString name="ldot.sc">
                    -20 callgsubr
                </CharString>
                <CharString name="less">
                    43 40 584 hstem
79 142 vstem
480 624 rmoveto
-401 -215 rlineto
-155 vlineto
392 -214 68 134 -318 152 rlineto
12 vlineto
318 154 rlineto
endchar
                </CharString>
                <CharString name="lessequal">
                    43 -1 133 hstem
85 164 246 54 vstem
86 449 rmoveto
-2 -134 411 -164 44 125 -290 109 rlineto
8 vlineto
292 138 -55 122 rlineto
63 -521 rmoveto
-473 -133 473 hlineto
endchar
                </CharString>
                <CharString name="lslash">
                    -14 callgsubr
vstem
459 hmoveto
61 callsubr
272 hlineto
99 49 -24 100 -75 -37 rlineto
274 -283 vlineto
-11 -116 135 -9 rlineto
-228 vlineto
-104 -51 24 -100 80 40 rlineto
-194 85 callsubr
endchar
                </CharString>
                <CharString name="lslash.sc">
                    -16 callsubr
                </CharString>
                <CharString name="m">
                    346 30 callgsubr
hstemhm
81 159 152 150 152 159 cntrmask 00001110
hintmask 11001110
321 440 rmoveto
50 21 -25 -89 hvcurveto
-326 150 395 vlineto
8 0 7 -1 7 vhcurveto
15 25 26 8 30 hhcurveto
51 21 -25 -89 hvcurveto
-326 159 389 vlineto
hintmask 10101110
129 -54 61 -102 -75 -55 -35 -42 -44 vhcurveto
52 -23 -44 25 -64 hhcurveto
-71 -54 -33 -41 -41 hvcurveto
hintmask 10011110
-9 62 rlineto
hintmask 10101110
-32 callgsubr
hintmask 11001110
165 -1 143 -3 107 vhcurveto
16 25 27 9 33 hhcurveto
endchar
                </CharString>
                <CharString name="m.sc">
                    -40 callsubr
                </CharString>
                <CharString name="macron">
                    29 callsubr
                </CharString>
                <CharString name="macron.cap">
                    29 callsubr
                </CharString>
                <CharString name="minus">
                    43 269 135 84 callsubr
404 rmoveto
-473 -135 473 hlineto
endchar
                </CharString>
                <CharString name="mu">
                    70 -174 -21 181 136 -115 -21 27 -21 25 -27 callsubr
hstemhm
74 -18 callgsubr
hintmask 1000010011100000
233 -182 rmoveto
hintmask 1001000011100000
-4 174 rlineto
hintmask 1010000011100000
-4 14 16 -2 18 hhcurveto
65 49 34 41 36 hvcurveto
hintmask 1000100011100000
9 -65 rlineto
hintmask 1000010101100000
144 8 rlineto
-8 127 -3 173 259 vvcurveto
-159 hlineto
hintmask 1100000011100000
-165 2 -143 3 -106 vhcurveto
-17 -30 -31 -10 -37 hhcurveto
-51 -33 21 75 hvcurveto
350 vlineto
hintmask 1000011001100000
-159 -9 rlineto
-754 vlineto
endchar
                </CharString>
                <CharString name="multiply">
                    43 584 -20 hstem
60 506 vstem
466 83 rmoveto
100 99 -156 156 151 151 -96 95 -150 -150 -155 155 -100 -100 155 -155 -151 -150 96 -97 151 151 rlineto
endchar
                </CharString>
                <CharString name="n">
                    24 callsubr
hstemhm
81 159 177 159 hintmask 11001100
333 440 -20 callsubr
hintmask 10101100
7 callgsubr
hintmask 10011100
-9 63 rlineto
hintmask 10101100
-32 callgsubr
hintmask 11001100
-9 callgsubr
endchar
                </CharString>
                <CharString name="n.sc">
                    98 21 -21 597 1 callgsubr
9 callsubr
endchar
                </CharString>
                <CharString name="nacute">
                    24 callsubr
236 59 callsubr
hintmask 10101110
181 708 -107 callgsubr
hintmask 11001110
152 -268 -20 callsubr
hintmask 10101110
7 callgsubr
hintmask 10011110
-9 63 rlineto
hintmask 10101110
-32 callgsubr
hintmask 11001110
-9 callgsubr
endchar
                </CharString>
                <CharString name="nacute.sc">
                    98 21 -21 597 1 callgsubr
200 725 -107 callgsubr
230 -725 rmoveto
-87 callsubr
endchar
                </CharString>
                <CharString name="naira">
                    43 21 -21 163 126 -119 98 107 126 -97 98 186 -20 hstemhm
99 125.5 197 119.5 hintmask 10101111
222 427 rmoveto
6 hlineto
71 -159 rlineto
-76 hlineto
195 -15 rmoveto
-66 151 rlineto
71 hlineto
1 -151 rlineto
-199 -253 rmoveto
-1 170 rlineto
120 hlineto
76 -170 rlineto
121 hlineto
hintmask 11010111
163 64 126 -64 86 65 126 -65 187 -120 vlineto
hintmask 10101111
1 -186 rlineto
-113 hlineto
-82 186 rlineto
-128 hlineto
hintmask 11010111
-187 -66 -126 66 -86 -65 -126 65 -163 vlineto
endchar
                </CharString>
                <CharString name="ncaron">
                    24 callsubr
228 -20 29 59 callsubr
hintmask 10100111
336 631 70 callgsubr
hintmask 10101011
-120 -101 rlineto
hintmask 11000111
-124 102 -92 -93 197 -153 rlineto
13 -191 -20 callsubr
hintmask 10100111
7 callgsubr
hintmask 10010111
-9 63 rlineto
hintmask 10100111
-32 callgsubr
hintmask 11000111
-9 callgsubr
endchar
                </CharString>
                <CharString name="ncaron.sc">
                    74 callgsubr
215 1 callgsubr
354 648 -100 callsubr
92 -648 rmoveto
-87 callsubr
endchar
                </CharString>
                <CharString name="ncommaaccent">
                    24 callsubr
hstemhm
81 159 17 168 -8 159 hintmask 11001010
333 440 -20 callsubr
hintmask 10101010
7 callgsubr
hintmask 10011010
-9 63 rlineto
hintmask 10101010
-32 callgsubr
hintmask 11001010
-9 callgsubr
hintmask 10101100
-91 -740 -100 callgsubr
                </CharString>
                <CharString name="ncommaaccent.sc">
                    -39 callgsubr
                </CharString>
                <CharString name="nine">
                    43 -3 -21 290 107 207 124 hstem
60 146 209 148 vstem
194 -24 rmoveto
256 108 113 152 194 vvcurveto
179 -100 95 -148 -137 -118 -92 -148 -177 182 -73 157 92 vhcurveto
-28 -76 -72 -58 -170 -63 rrcurveto
77 369 rmoveto
68 38 34 56 64 51 -49 -116 vhcurveto
-6 0 -6 -6 vvcurveto
-125 -52 -84 37 96 vvcurveto
endchar
                </CharString>
                <CharString name="nine.den">
                    1 -21 185 48 callgsubr
1 8 callsubr
87 -20 -99 callsubr
                </CharString>
                <CharString name="nine.den_afrc">
                    -18 -68 48 callgsubr
102 8 callsubr
188 -253 -99 callsubr
                </CharString>
                <CharString name="nine.den_afrc2">
                    401 -68 48 callgsubr
312 8 callsubr
398 -253 -99 callsubr
                </CharString>
                <CharString name="nine.inf">
                    -85 -2 48 callgsubr
69 8 callsubr
155 -187 -99 callsubr
                </CharString>
                <CharString name="nine.num">
                    415 48 callgsubr
69 8 callsubr
155 230 -99 callsubr
                </CharString>
                <CharString name="nine.num_afrc">
                    -18 637 48 callgsubr
102 8 callsubr
188 452 -99 callsubr
                </CharString>
                <CharString name="nine.num_afrc2">
                    401 637 48 callgsubr
312 8 callsubr
398 452 -99 callsubr
                </CharString>
                <CharString name="nine.small">
                    1 -21 185 48 callgsubr
35 8 callsubr
121 -20 -99 callsubr
                </CharString>
                <CharString name="nine.sup">
                    -85 526 48 callgsubr
69 8 callsubr
155 341 -99 callsubr
                </CharString>
                <CharString name="notequal">
                    43 15 -21 156 136 107 136 156 -20 84 callsubr
150 rmoveto
136 -188 vlineto
39 107 rlineto
149 136 -101 hlineto
43 120 -120 36 -56 -156 rlineto
-239 -136 190 hlineto
-38 -107 rlineto
-152 -136 103 hlineto
-43 -121 121 -35 56 156 rlineto
endchar
                </CharString>
                <CharString name="ntilde">
                    24 callsubr
100 129 -82 -20 52 129 68 callsubr
hintmask 1010100110000000
403 647 -74 callsubr
-35 -56 79 -67 hhcurveto
hintmask 1010011110000000
-74 callgsubr
hintmask 1010100110000000
20 callsubr
hintmask 1100011110000000
-70 -207 -20 callsubr
hintmask 1010011110000000
7 callgsubr
hintmask 1001011110000000
-9 63 rlineto
hintmask 1010011110000000
-32 callgsubr
hintmask 1100011110000000
-9 callgsubr
endchar
                </CharString>
                <CharString name="ntilde.sc">
                    74 callgsubr
87 50 callsubr
83 145 223 146 hintmask 11100110
421 34 callsubr
hintmask 11011110
-74 callgsubr
hintmask 11100110
20 callsubr
hintmask 11011110
9 -664 rmoveto
-87 callsubr
endchar
                </CharString>
                <CharString name="numbersign">
                    43 21 -21 163 131 102 132 160 -20 hstem
157 106 97 106 vstem
355 294 rmoveto
-97 hlineto
10 102 rlineto
97 hlineto
-40 -396 rmoveto
106 hlineto
17 163 rlineto
99 hlineto
14 131 rlineto
-100 hlineto
10 102 rlineto
99 hlineto
14 132 rlineto
-99 hlineto
16 160 rlineto
-106 hlineto
-16 -160 rlineto
-97 hlineto
16 160 rlineto
-106 hlineto
-16 -160 rlineto
-97 hlineto
-14 -132 rlineto
97 hlineto
-10 -102 rlineto
-96 hlineto
-14 -131 rlineto
97 hlineto
-17 -163 rlineto
106 hlineto
17 163 rlineto
97 hlineto
endchar
                </CharString>
                <CharString name="numero">
                    594 0 120 71 118 270 121 -12 -20 hstemhm
92 139.5 218 139.5 75 144 170 144 hintmask 11101111
872 191 rmoveto
143 107 108 160 152 -82 89 -128 -140 -108 -110 -158 -156 79 -85 129 hvcurveto
24 118 rmoveto
-58 -30 46 102 82 23 40 58 60 29 -43 -101 -84 -26 -42 -56 hvcurveto
-461 -309 rmoveto
154 hlineto
hintmask 11011111
688 -141 vlineto
3 -393 rlineto
-5 hlineto
-179 393 rlineto
-175 -688 141 hlineto
-3 439 rlineto
5 hlineto
873 -439 rmoveto
120 -429 65 callgsubr
                </CharString>
                <CharString name="o">
                    -5 callsubr
12 callgsubr
299 -16 -98 callsubr
                </CharString>
                <CharString name="o.sc">
                    -68 callsubr
317 -14 -107 callsubr
                </CharString>
                <CharString name="oacute">
                    -5 callsubr
202 -20 12 callgsubr
184 706 -107 callgsubr
115 -722 -98 callsubr
                </CharString>
                <CharString name="oacute.sc">
                    -68 callsubr
203 737 -107 callgsubr
114 -751 -107 callsubr
                </CharString>
                <CharString name="obreve">
                    -5 callsubr
61 127 12 callgsubr
326 640 -106 callgsubr
-27 -656 -98 callsubr
                </CharString>
                <CharString name="obreve.sc">
                    93 -14 128 369 127 61 78 callgsubr
345 671 -106 callgsubr
-28 -685 -107 callsubr
                </CharString>
                <CharString name="ocircumflex">
                    -5 callsubr
133 -20 12 callgsubr
443 636 -102 callgsubr
-19 -754 -98 callsubr
                </CharString>
                <CharString name="ocircumflex.sc">
                    -68 callsubr
462 667 -102 callgsubr
-20 -783 -107 callsubr
                </CharString>
                <CharString name="odieresis">
                    -5 callsubr
90 callgsubr
51 160 -82.5 -29 callgsubr
-87.5 159 hintmask 11101100
520 653 -55 callgsubr
172 -669 -98 callsubr
                </CharString>
                <CharString name="odieresis.sc">
                    -67 callgsubr
                </CharString>
                <CharString name="oe">
                    387 -16 129 -126 133 123 93 111 132 -129 129 hstemhm
51 160 219 154 176 154 hintmask 10101111
329 113 rmoveto
-72 -46 67 116 107 40 47 66 68 45 -67 -116 -107 -38 -47 -63 hvcurveto
hintmask 01110111
344 334 rmoveto
59 24 -40 -71 4 hvcurveto
-53 -1 -74 -2 -49 -2 rrcurveto
86 5 28 30 56 hhcurveto
212 -460 rmoveto
14 133 -217 4 -78 24 -17 91 rlinecurve
324 8 rlineto
hintmask 10101111
207 20 -73 125 -151 hhcurveto
-73 -67 -35 -57 -48 hvcurveto
59 -42 -64 33 -75 hhcurveto
-153 -134 -128 -185 -178 102 -104 139 80 74 37 63 52 hvcurveto
hintmask 01110111
61 -68 117 -35 209 6 rrcurveto
endchar
                </CharString>
                <CharString name="oe.sc">
                    -51 callgsubr
                </CharString>
                <CharString name="ogonek">
                    -17 callgsubr
                </CharString>
                <CharString name="ogonek.cap">
                    -17 callgsubr
                </CharString>
                <CharString name="ograve">
                    -5 callsubr
125 -20 92 -20 12 callgsubr
458 704 -102 callsubr
-120 -650 -98 callsubr
                </CharString>
                <CharString name="ograve.sc">
                    -68 callsubr
477 735 -102 callsubr
-121 -679 -107 callsubr
                </CharString>
                <CharString name="ohungarumlaut">
                    -5 callsubr
107 -20 23 -20 hstemhm
51 160 223 159 hintmask 11011100
139 689 rmoveto
71 -46 64 56 69 82 44 66 rlinecurve
-140 70 -24 -67 -45 -97 -39 -64 rlinecurve
hintmask 11101100
222 -3 rmoveto
73 -44 65 56 69 79 44 68 rlinecurve
-147 61 -24 -70 -40 -84 -40 -66 rlinecurve
-62 -702 -98 callsubr
                </CharString>
                <CharString name="ohungarumlaut.sc">
                    -68 callsubr
158 720 -86 callsubr
-63 -731 -107 callsubr
                </CharString>
                <CharString name="omacron">
                    -5 callsubr
88 137 12 callgsubr
513 804 -65 callsubr
-214 -683 -98 callsubr
                </CharString>
                <CharString name="omacron.sc">
                    93 -14 128 369 127 88 137 -50 callgsubr
532 835 -65 callsubr
-215 -712 -107 callsubr
                </CharString>
                <CharString name="one">
                    43 0 135 346 229 -12 -20 32 -20 hstemhm
267 152 hintmask 10011000
557 hmoveto
12 135 rlineto
-150 575 hlineto
hintmask 10101000
-152 -12 rlineto
-82 vlineto
-168 -16 rlineto
hintmask 11001000
4 -119 rlineto
164 -346 -171 -135 hlineto
endchar
                </CharString>
                <CharString name="one.den">
                    0 55 callsubr
hstem
139 117 vstem
352 21 callsubr
                </CharString>
                <CharString name="one.den_afrc">
                    -18 -233 55 callsubr
hstem
240 117 vstem
453 -233 -18 callsubr
                </CharString>
                <CharString name="one.den_afrc2">
                    401 -233 55 callsubr
hstem
450 117 vstem
663 -233 -18 callsubr
                </CharString>
                <CharString name="one.inf">
                    -85 -167 55 callsubr
hstem
207 117 vstem
420 -167 -18 callsubr
                </CharString>
                <CharString name="one.num">
                    250 55 callsubr
66 -20 29 -20 hstemhm
207 117 hintmask 11011000
420 250 rmoveto
33 callsubr
350 hlineto
hintmask 11101000
-92 callgsubr
endchar
                </CharString>
                <CharString name="one.num_afrc">
                    -18 472 55 callsubr
hstem
240 117 vstem
453 472 -18 callsubr
                </CharString>
                <CharString name="one.num_afrc2">
                    401 472 55 callsubr
hstem
450 117 vstem
663 472 -18 callsubr
                </CharString>
                <CharString name="one.small">
                    0 55 callsubr
hstem
173 117 vstem
386 21 callsubr
                </CharString>
                <CharString name="one.sup">
                    -85 361 55 callsubr
hstem
207 117 vstem
420 361 -18 callsubr
                </CharString>
                <CharString name="oneeighth">
                    73 callsubr
269 102 9 89 84 -12 callgsubr
371 -69 callsubr
hintmask 0110100110000000
413 -71 callgsubr
94 22 callsubr
hintmask 1010101010000000
350 vlineto
hintmask 1010110011001000
-92 callgsubr
773 -261 -72 callgsubr
hintmask 1010100110010000
52 26 29 34 46 vvcurveto
hintmask 1011100110110000
58 callsubr
hintmask 1010100111000000
-56 -25 -31 -35 -50 vvcurveto
hintmask 1010110011001000
-68 64 -49 105 vhcurveto
hintmask 1011100110110000
-94 callgsubr
hintmask 1010100111001000
-96 callgsubr
                </CharString>
                <CharString name="oneeighth.afrc">
                    -1 callsubr
71 83 callsubr
104 115 -108 120 9 117 -19 112 -112 121 hintmask 1011111001000000
-61 callsubr
hintmask 1011111100010000
213 -633 -72 callgsubr
hintmask 1011111010100000
-77 callsubr
vhcurveto
hintmask 1101111011000000
-26 callgsubr
hintmask 1011111101000000
-56 -25 -31 -35 -50 vvcurveto
hintmask 1011111100010000
-68 64 -49 105 vhcurveto
hintmask 1011111010100000
-94 callgsubr
hintmask 1011111100010000
-96 callgsubr
                </CharString>
                <CharString name="onefifth">
                    60 callgsubr
269 102 -18.5 104.5 96 -12 callgsubr
408 48 callsubr
hintmask 0110100110000000
410 -71 callgsubr
97 22 callsubr
hintmask 0110101010000000
350 vlineto
hintmask 1010110010100000
-92 callgsubr
950 -104 rmoveto
hintmask 1001100111100000
-106 callsubr
hintmask 1010110010100000
-55 callsubr
endchar
                </CharString>
                <CharString name="onefifth.afrc">
                    -19 callsubr
83 83 callsubr
141 104 -5 117 -21 114 hintmask 11111010
-61 callsubr
hintmask 11111101
390 -476 -101 callsubr
                </CharString>
                <CharString name="onehalf">
                    539 0 104 -102 -21 269 102 -12 110 84 -12 callgsubr
583 123 hintmask 0110100110000000
401 -71 callgsubr
106 22 callsubr
hintmask 1010101010000000
350 vlineto
hintmask 1010110011000000
-92 callgsubr
948 -250 rmoveto
54 callsubr
-21 callgsubr
hintmask 1001100111000000
-94 callsubr
endchar
                </CharString>
                <CharString name="onehalf.afrc">
                    -18 -233 28 callsubr
71 44 callsubr
-41 123 hintmask 11111100
-61 callsubr
388 -622 rmoveto
54 callsubr
hintmask 11111010
-21 callgsubr
-94 callsubr
endchar
                </CharString>
                <CharString name="onequarter">
                    41 callgsubr
76.5 102 182 -12 callgsubr
578.5 111 hintmask 0101100111000000
410 -71 callgsubr
97 22 callsubr
hintmask 1001101011000000
350 vlineto
hintmask 1001110011000000
-92 callgsubr
966 -176 rmoveto
7 100 -51 -1 1 134 -112 -11 1 -123 -98 1 69 262 -128 8 rlineto
hintmask 0011100111000000
-43 callsubr
200 2 rcurveline
hintmask 1001100111000000
0 callgsubr
                </CharString>
                <CharString name="onequarter.afrc">
                    -18 -158 16 callgsubr
347.5 44 callsubr
-45.5 111 hintmask 11111000
-61 callsubr
hintmask 11110100
406 -548 -82 callgsubr
                </CharString>
                <CharString name="onesixth">
                    539 -11 95 -82 -21 212 79 -22 102 182 -12 callgsubr
369 115 130 113 hintmask 0101100111100000
424 -71 callgsubr
83 22 callsubr
hintmask 1001101011100000
350 vlineto
hintmask 1001110011100000
-92 callgsubr
780 -261 rmoveto
99 81 64 94 hvcurveto
hintmask 1010100111100000
125 -137 34 -100 -68 vhcurveto
14 52 47 27 127 39 -38 101 rcurveline
-184 -54 -87 -101 -127 vvcurveto
hintmask 1001110011100000
-121 72 -65 106 vhcurveto
10 95 rmoveto
-40 -32 29 67 -1 hvcurveto
hintmask 1010100111100000
77 28 53 -18 -51 vvcurveto
hintmask 1001110011100000
-36 -22 -19 -35 vhcurveto
endchar
                </CharString>
                <CharString name="onesixth.afrc">
                    -18 -244 89 callsubr
249 83 callsubr
102 115 23 117 -10 113 hintmask 11111010
-61 callsubr
hintmask 11111101
220 -633 -105 callsubr
                </CharString>
                <CharString name="onethird">
                    539 -13 108 -93 -21 269 102 -18 104 96 -12 callgsubr
598 120 hintmask 0110100110000000
401 -71 callgsubr
106 22 callsubr
hintmask 1010101010000000
350 vlineto
hintmask 1010110011000000
-92 callgsubr
631 -263 rmoveto
-83 callsubr
hintmask 1001100111000000
-104 callgsubr
endchar
                </CharString>
                <CharString name="onethird.afrc">
                    69 callsubr
83 44 callsubr
-26 120 hintmask 11111100
-61 callsubr
71 -635 rmoveto
hintmask 11111010
-83 callsubr
-104 callgsubr
endchar
                </CharString>
                <CharString name="ordfeminine">
                    -16 107 103 60 96 80 79 59 112 hstem
100 122 108 124 vstem
269 366 rmoveto
-29 -18 10 31 32 18 16 90 -9 hvcurveto
1 -25 0 -21 1 -18 rrcurveto
-10 -21 -22 -6 -20 hhcurveto
76 -88 rmoveto
117 5 rlineto
-4 55 -4 71 78 vvcurveto
156 -60 52 -262 1 vhcurveto
-10 -112 159 -3 40 -8 8 -48 rlinecurve
-159 -70 -67 -79 -66 48 -43 70 52 39 21 26 29 hvcurveto
-241 -107 rmoveto
-103 371 103 vlineto
endchar
                </CharString>
                <CharString name="ordmasculine">
                    -16 107 103 60 105 218 105 hstem
81 125 155 125 vstem
81 472 rmoveto
-130 75 -72 110 121 99 92 134 128 -76 74 -110 -119 -100 -93 -133 vhcurveto
206 -97 rmoveto
-53 -28 34 84 69 22 31 52 54 27 -34 -84 -69 -24 -31 -50 hvcurveto
187 -268 rmoveto
103 -380 -103 vlineto
endchar
                </CharString>
                <CharString name="oslash">
                    64 callgsubr
hstemhm
51 158 227 157 hintmask 10010110
209 295 -25 callsubr
hintmask 10001110
67 callgsubr
hintmask 00110110
31 callsubr
hintmask 01010110
88 -58 39 55 rlineto
hintmask 10010110
-15 32 37 -8 40 hhcurveto
endchar
                </CharString>
                <CharString name="oslash.sc">
                    -31 callsubr
212 308 -95 callgsubr
                </CharString>
                <CharString name="oslashacute">
                    64 callgsubr
247 -20 hstemhm
51 158 227 157 hintmask 10010111
184 708 -107 callgsubr
25 -413 -25 callsubr
hintmask 10001111
67 callgsubr
hintmask 00110111
31 callsubr
hintmask 01010111
88 -58 39 55 rlineto
hintmask 10010111
-15 32 37 -8 40 hhcurveto
endchar
                </CharString>
                <CharString name="oslashacute.sc">
                    -31 callsubr
198 739 -107 callgsubr
14 -431 -95 callgsubr
                </CharString>
                <CharString name="otilde">
                    -5 callsubr
66 50 callsubr
51 160 223 159 hintmask 11100110
405 645 -74 callsubr
-35 -56 79 -67 hhcurveto
hintmask 11011110
-74 callgsubr
hintmask 11100110
20 callsubr
hintmask 11011110
-106 -661 -98 callsubr
                </CharString>
                <CharString name="otilde.sc">
                    93 -14 128 369 127 66 63 callgsubr
64 callsubr
244 165 hintmask 11101100
424 676 -74 callsubr
hhcurveto
hintmask 11011100
-35 -56 79 -67 hhcurveto
-74 callgsubr
hintmask 11101100
20 callsubr
-107 -690 -107 callsubr
                </CharString>
                <CharString name="p">
                    72 callsubr
-20 20 -12 -20 hstemhm
82 158 189 157 hintmask 11010110
316 124 rmoveto
-22 -26 4 8 -28 hvcurveto
hintmask 11100110
-1 123 -1 95 -2 69 rrcurveto
15 26 25 8 24 hhcurveto
64 54 -55 -117 hvcurveto
hintmask 11010110
-103 -41 -47 -72 vhcurveto
-76 -306 rmoveto
166 vlineto
195 151 120 209 162 -92 104 -118 -62 -50 -29 -37 -37 hvcurveto
hintmask 11001110
-8 54 rlineto
hintmask 11010110
-147 -8 rlineto
7 -106 3 -151 -308 vvcurveto
-189 vlineto
endchar
                </CharString>
                <CharString name="p.sc">
                    -36 callsubr
                </CharString>
                <CharString name="paragraph">
                    219 88 126 344 144 hstemhm
67 153 107 139 -120 118 97 140 hintmask 11101100
561 214 rmoveto
-35 1 -32 3 -30 4 rrcurveto
336 vlineto
29 32 -1 -3 36 hvcurveto
-341 -159 rmoveto
63 33 57 93 27 vhcurveto
-290 vlineto
-82 33 -44 51 59 vvcurveto
hintmask 11110100
246 -512 rmoveto
209 vlineto
-2 30 32 -2 33 hhcurveto
-195 vlineto
140 14 rlineto
795 vlineto
-407 1 -227 -128 -202 vvcurveto
-120 93 -93 167 -44 vhcurveto
-246 vlineto
endchar
                </CharString>
                <CharString name="parenleft">
                    -107 -233 1051 hstem
60 154 vstem
333 818 -10 callsubr
                </CharString>
                <CharString name="parenleft.cap">
                    -107 773 -20 hstem
60 154 vstem
333 867 -10 callsubr
                </CharString>
                <CharString name="parenright">
                    -107 -233 88 callsubr
-233 -10 callgsubr
                </CharString>
                <CharString name="parenright.cap">
                    -107 -184 88 callsubr
-184 -10 callgsubr
                </CharString>
                <CharString name="percent">
                    317 5 -21 23 -21 716 -20 22 -20 hstemhm
97 273 -273 703 -272 272 hintmask 01011000
97 544 rmoveto
-92 55 -56 72 80 66 63 96 92 -55 57 -73 -78 -67 -64 -96 vhcurveto
124 -558 rmoveto
hintmask 01100100
542 644 -85 72 -543 -643 rlineto
hintmask 10010010
665 86 rmoveto
91 -55 56 -72 -80 -65 -63 -96 -92 54 -57 74 78 66 64 97 vhcurveto
endchar
                </CharString>
                <CharString name="period">
                    -181 0 188 hstem
100 33 callgsubr
vstem
295 40 callgsubr
endchar
                </CharString>
                <CharString name="period.tab">
                    -135 0 188 hstem
123 33 callgsubr
vstem
318 40 callgsubr
endchar
                </CharString>
                <CharString name="periodcentered">
                    -179 240 188 hstem
101.5 33 callgsubr
vstem
300 240 rmoveto
2 51 callgsubr
-1 -188 rlineto
endchar
                </CharString>
                <CharString name="periodcentered.tab">
                    -138 240 188 hstem
122.5 33 callgsubr
vstem
321 240 rmoveto
2 51 callgsubr
-1 -188 rlineto
endchar
                </CharString>
                <CharString name="peso">
                    43 21 -21 371 129 -114 105 78 130 -11 -20 hstemhm
97 146 hintmask 10110100
243 491 rmoveto
78 vlineto
92 8 57 -27 20 -59 rrcurveto
-169 -174 rmoveto
69 173 vlineto
-18 -66 -59 -16 -96 13 rrcurveto
hintmask 11001100
367 54 rmoveto
129 -49 vlineto
-20 160 -156 68 -288 -40 rrcurveto
-188 -66 -129 66 -371 146 179 vlineto
152 19 115 58 39 115 rrcurveto
endchar
                </CharString>
                <CharString name="plus">
                    43 269 135 hstem
242 142 vstem
563 269 rmoveto
135 -179 186 -142 -186 -180 -135 180 -187 142 187 vlineto
endchar
                </CharString>
                <CharString name="plusminus">
                    43 38 136 150 136 hstem
242 142 vstem
556 38 rmoveto
136 -172 150 172 136 -172 178 -142 -178 -173 -136 173 -150 -173 -136 vlineto
endchar
                </CharString>
                <CharString name="published">
                    333 -42 95 102 177 98 95 110 95 hstem
69 103 153 113 78 111 115 -38 callsubr
264 -189 rmoveto
5 0 35 1 45 vhcurveto
110 14 80 47 95 vvcurveto
96 -99 51 -203 -23 vhcurveto
-365 vlineto
191 224 rmoveto
-43 -29 -11 -49 7 vhcurveto
37 0 35 26 vvcurveto
51 8 27 -27 -32 vvcurveto
endchar
                </CharString>
                <CharString name="q">
                    55 -174 -21 178 134 322 140 hstem
51 156 192 158 vstem
399 -195 rmoveto
158 13 rlineto
728 vlineto
23 -53 -56 10 -66 hhcurveto
-176 -155 -124 -206 -162 93 -104 117 56 46 24 32 36 hvcurveto
-74 78 rmoveto
-64 -54 55 116 104 41 47 72 23 27 -5 -8 29 hvcurveto
-287 vlineto
-14 -25 -25 -8 -24 hhcurveto
endchar
                </CharString>
                <CharString name="q.sc">
                    -54 callgsubr
                </CharString>
                <CharString name="question">
                    -23 0 170 433 -20 hstemhm
147 184.5 -0.5 170 hintmask 11100000
77 603 rmoveto
hintmask 11010000
216 -18 38 -24 -33 vvcurveto
-52 -135 -43 -7 -159 vhcurveto
112 -4 rlineto
17 138 183 39 127 vvcurveto
92 -89 76 -320 13 vhcurveto
hintmask 11100000
237 -755 rmoveto
5 170 rlineto
-185 hlineto
-4 -170 rlineto
endchar
                </CharString>
                <CharString name="questiondown">
                    -22 519 169 hstemhm
57 170 -1 185 hintmask 10100000
228 688 rmoveto
-4 -169 rlineto
185 hlineto
4 169 rlineto
67 -603 rmoveto
hintmask 11000000
-215 18 -38 24 33 vvcurveto
53 135 42 7 159 vhcurveto
-112 5 rlineto
-17 -139 -183 -39 -126 vvcurveto
-93 88 -76 321 -13 vhcurveto
endchar
                </CharString>
                <CharString name="quotedbl">
                    40 410 343 hstem
112 173 85 172.5 vstem
484 410 rmoveto
60 282 -3 61 rlineto
-174 hlineto
6 -343 rlineto
-147 hmoveto
59 callgsubr
                </CharString>
                <CharString name="quotedblbase">
                    84 -173 373 hstem
124 171 102 173 vstem
89 -150 49 callgsubr
-6 -150 -44 -83 rlinecurve
268 2 rmoveto
79 -25 98 89 68 162 -47 122 rlinecurve
-187 -6 45 -108 -8 -153 -48 -81 rlinecurve
endchar
                </CharString>
                <CharString name="quotedblleft">
                    84 396 373 hstem
95 173 103 170 vstem
577 746 rmoveto
-81 23 -94 -93 -64 -162 50 -118 rlinecurve
187 7 -49 110 6 150 45 83 rlinecurve
-269 -2 rmoveto
-79 25 -98 -90 -68 -161 47 -122 rlinecurve
187 6 -45 108 8 152 48 82 rlinecurve
endchar
                </CharString>
                <CharString name="quotedblright">
                    77 384 373 hstem
129 170 103 172 vstem
93 407 49 callgsubr
-5 -150 -45 -83 rlinecurve
268 2 rmoveto
80 -25 97 90 68 161 -46 122 rlinecurve
-188 -6 45 -108 -7 -152 -49 -82 rlinecurve
endchar
                </CharString>
                <CharString name="quoteleft">
                    -189 395 374 hstem
95 175 vstem
308 744 rmoveto
-79 25 -99 -86 -66 -163 46 -125 rlinecurve
192 8 -49 116 11 147 44 78 rlinecurve
endchar
                </CharString>
                <CharString name="quoteright">
                    -196 385 374 hstem
126 176 vstem
88 410 rmoveto
79 -25 99 86 67 162 -46 126 rlinecurve
-193 -8 49 -116 -10 -148 -45 -77 rlinecurve
endchar
                </CharString>
                <CharString name="quotesinglbase">
                    -193 -173 373 hstem
122 172 vstem
84 -148 rmoveto
80 -25 96 92 66 161 -49 120 rlinecurve
-187 -7 47 -109 -7 -150 -46 -82 rlinecurve
endchar
                </CharString>
                <CharString name="quotesingle">
                    -266 410 343 hstem
91 173 vstem
205 410 rmoveto
59 callgsubr
                </CharString>
                <CharString name="r">
                    -9 -28 callgsubr
24 -20 hstemhm
178 158 hintmask 11010000
465 hmoveto
-15 callsubr
rrcurveto
hintmask 10110000
-3 174 rlineto
hintmask 11010000
10 callsubr
                </CharString>
                <CharString name="r.sc">
                    -66 callgsubr
152 159 hintmask 10011010
432 -8 -89 callgsubr
                </CharString>
                <CharString name="racute">
                    -9 -28 callgsubr
24 -20 218 -20 hstemhm
178 158 hintmask 11011000
170 710 -107 callgsubr
295 -710 rmoveto
-15 callsubr
rrcurveto
hintmask 10111000
-3 174 rlineto
hintmask 11011000
10 callsubr
                </CharString>
                <CharString name="racute.sc">
                    -66 callgsubr
152 159 hintmask 00111010
152 734 -107 callgsubr
hintmask 10011010
280 -742 -89 callgsubr
                </CharString>
                <CharString name="rcaron">
                    -9 -28 callgsubr
24 -20 210 -20 29 -20 hstemhm
178 158 hintmask 11001100
325 633 70 callgsubr
hintmask 11010100
-120 -101 rlineto
hintmask 10101100
-124 102 -92 -93 197 -153 rlineto
156 -633 rmoveto
-15 callsubr
-3 174 rcurveline
hintmask 11001100
10 callsubr
                </CharString>
                <CharString name="rcaron.sc">
                    -66 callgsubr
152 159 hintmask 00111010
307 657 -100 callsubr
hintmask 10011010
141 -665 -89 callgsubr
                </CharString>
                <CharString name="rcommaaccent">
                    -9 -28 callgsubr
24 -20 hstemhm
178 158 -152 168 hintmask 11010000
465 hmoveto
-15 callsubr
rrcurveto
hintmask 10110000
-3 174 rlineto
hintmask 11010000
-46 callgsubr
hintmask 11001000
108 -300 -100 callgsubr
                </CharString>
                <CharString name="rcommaaccent.sc">
                    -66 callgsubr
7 168 -23 159 hintmask 1001101000000000
432 -8 rmoveto
hintmask 0011011010000000
173 16 -158 256 rlineto
62 40 44 50 74 vvcurveto
125 -112 79 -358 -35 vhcurveto
hintmask 0101101010000000
-597 159 187 vlineto
76 2 rlineto
-76 291 rmoveto
103 8 49 -29 -66 vvcurveto
-42 -21 -33 -37 -24 vhcurveto
-94 -2 rlineto
hintmask 0011100100000000
-8 -600 -100 callgsubr
                </CharString>
                <CharString name="registered">
                    126 198 74 167 168 80 74 hstem
74 80 95 84 221 80 vstem
634 487 rmoveto
168 -118 106 -160 -167 -115 -118 -171 -168 110 -106 167 160 123 118 171 vhcurveto
-80 -8 rmoveto
-131 -81 -76 -119 -120 -80 76 131 132 80 76 120 119 81 -76 -132 vhcurveto
-155 -128 rmoveto
90 8 -67 97 rlineto
27 21 20 28 27 vvcurveto
40 -39 52 -181 -22 vhcurveto
-247 84 84 12 vlineto
endchar
                </CharString>
                <CharString name="registered.alt">
                    333 -42 95 207.5 83.5 90 95 106 95 hstem
69 103 139 112 77 114 128 -38 callsubr
345 -190 rmoveto
119 10 -86 148 rlineto
38 25 26 34 44 vvcurveto
81 -71 50 -232 -23 vhcurveto
-365 112 102 vlineto
40 1 rlineto
-40 173 rmoveto
54 6 23 -17 -31 vvcurveto
-21 -8 -14 -15 -12 vhcurveto
-54 -2 rlineto
endchar
                </CharString>
                <CharString name="ring">
                    -16 616 250 hstem
145 290 vstem
289 866 -80 callgsubr
endchar
                </CharString>
                <CharString name="ring.cap">
                    -16 616 250 hstem
145 290 vstem
289 866 -80 callgsubr
endchar
                </CharString>
                <CharString name="ruble">
                    43 0 218 -109 109 58 115 177 129 -9 -20 hstemhm
117 152 164 151 hintmask 10110110
433 483 rmoveto
-70 -42 -19 -122 -2 vhcurveto
176 vlineto
111 4 53 -26 -63 vvcurveto
hintmask 01110110
33 -374 rmoveto
hintmask 10101110
11 109 rlineto
-208 63 hlineto
201 17 114 65 137 vvcurveto
163 -158 57 -309 -32 vhcurveto
-297 -70 -115 70 vlineto
hintmask 01110110
-53 -70 -114 70 vlineto
hintmask 10110110
-109 152 vlineto
hintmask 01110110
109 vlineto
endchar
                </CharString>
                <CharString name="rupee">
                    376 -12 135 -135 139 -106 -21 224 112 108 130 -8 132 -10 -20 hstemhm
84 149 134 149 43 154 35 157 hintmask 1001101110000000
27 callgsubr
hintmask 0011010110000000
19 callgsubr
hintmask 0101101111100000
637 239 rmoveto
-231 13 -80 -98 -89 -135 189 -47 -54 vvcurveto
-38 -46 -9 -128 10 vhcurveto
hintmask 1001101111100000
-6 -139 rlineto
266 -5 71 87 85 141 -192 58 53 vvcurveto
34 44 11 118 -14 vhcurveto
endchar
                </CharString>
                <CharString name="rupeeindia">
                    43 -1 -21 381 106 87 136 -132 -20 hstemhm
78 480 hintmask 11101000
558 70 rmoveto
-142 91 -73 46 -71 25 94 27 61 47 26 53 rrcurveto
84 106 -76 hlineto
-9 34 -21 30 -32 23 rrcurveto
140 hlineto
10 136 rlineto
-452 hlineto
hintmask 11011000
-8 -132 135 -13 62 -33 22 -45 rlinecurve
-217 -106 218 hlineto
-22 -45 -59 -29 -126 -5 -24 -115 rcurveline
139 -37 41 -24 183 -126 rrcurveto
endchar
                </CharString>
                <CharString name="s">
                    -64 -12 15 callsubr
hstemhm
60 167 69 171 hintmask 10111000
432 574 69 callgsubr
hintmask 01111000
-9 callsubr
hintmask 10111000
-47 callsubr
endchar
                </CharString>
                <CharString name="s.sc">
                    -46 -9 -73 callsubr
78 175 hintmask 01011100
65 126 -87 callgsubr
                </CharString>
                <CharString name="sacute">
                    -64 -12 15 callsubr
204 -20 hstemhm
60 167 69 171 hintmask 10111100
127 703 -107 callgsubr
305 -129 69 callgsubr
hintmask 01111100
-9 callsubr
hintmask 10111100
-47 callsubr
endchar
                </CharString>
                <CharString name="sacute.sc">
                    -46 -9 -73 callsubr
78 175 hintmask 10011100
137 733 -107 callgsubr
hintmask 01011100
-72 -607 -87 callgsubr
                </CharString>
                <CharString name="scaron">
                    -64 -12 15 callsubr
206 -20 37 -20 hstemhm
60 167 69 171 hintmask 10101110
281 627 -52 callsubr
rlineto
hintmask 01110110
-70 75 -120 -101 -124 102 -92 -93 197 -153 rlineto
167 -53 83 callgsubr
-9 callsubr
hintmask 10101110
-47 callsubr
endchar
                </CharString>
                <CharString name="scaron.sc">
                    -46 -9 -73 callsubr
78 175 hintmask 10011100
292 659 -100 callsubr
hintmask 01011100
-211 -533 -87 callgsubr
                </CharString>
                <CharString name="scedilla">
                    -64 -286 115 159 15 callsubr
hstemhm
60 167 26 111 -68 171 hintmask 11011010
432 574 69 callgsubr
hintmask 10111010
-9 callsubr
hintmask 11011010
-47 callsubr
hintmask 11011100
-279 -540 -88 callgsubr
                </CharString>
                <CharString name="scedilla.sc">
                    -46 -284 115 160 -73 callsubr
29 111 -62 175 hintmask 10101101
65 126 rmoveto
hintmask 11010101
-85 callsubr
hintmask 10101101
-8 136 rlineto
-281 13 -97 -95 -101 -143 251 -37 -71 vvcurveto
-40 -64 -18 -182 12 vhcurveto
hintmask 11001110
102 -230 -88 callgsubr
                </CharString>
                <CharString name="schwa">
                    13 -15 131 112 93 123 132 hstem
53 154 181 156 vstem
267 -15 rmoveto
147 130 134 177 183 -91 109 -371 -12 hvcurveto
-14 -132 220 -4 80 -24 17 -91 rlinecurve
-329 -8 rlineto
-207 -20 73 -125 158 hhcurveto
28 131 rmoveto
-59 -25 40 72 -4 hvcurveto
55 1 76 2 50 2 rrcurveto
-87 -5 -30 -30 -58 hhcurveto
endchar
                </CharString>
                <CharString name="scommaaccent">
                    -64 -12 15 callsubr
hstemhm
60 167 -49 168 -50 171 hintmask 10101000
432 574 rmoveto
hintmask 01110100
62 callsubr
-9 callsubr
hintmask 10110100
-47 callsubr
hintmask 10101000
-274 -745 -100 callgsubr
                </CharString>
                <CharString name="scommaaccent.sc">
                    -46 -9 -73 callsubr
-55 168 -35 175 hintmask 01010010
65 126 rmoveto
hintmask 10101010
-85 callsubr
hintmask 01011010
-8 136 rlineto
-281 13 -97 -95 -101 -143 251 -37 -71 vvcurveto
hintmask 01010010
-40 -64 -18 -182 12 vhcurveto
hintmask 10010100
98 -433 -100 callgsubr
                </CharString>
                <CharString name="section">
                    47 -128 130 567 130 hstemhm
49 140 -94 164 110 164 -95 141 hintmask 11100100
189 293 rmoveto
22 36 24 51 17 vhcurveto
82 -28 80 -19 -30 vvcurveto
-23 -37 -24 -50 -17 vhcurveto
-83 28 -79 20 30 vvcurveto
hintmask 11011000
344 -227 rmoveto
48 -36 34 -49 26 vhcurveto
hintmask 11010100
74 33 57 48 63 130 -320 21 50 vvcurveto
22 47 40 225 -16 vhcurveto
-8 134 rlineto
-318 15 -110 -120 -89 vvcurveto
-48 36 -34 48 -26 vhcurveto
hintmask 11101000
-73 -32 -57 -47 -62 -131 320 -24 -49 vvcurveto
-22 -50 -40 -222 16 vhcurveto
-5 -134 rlineto
hintmask 11011000
331 -15 110 120 89 vvcurveto
endchar
                </CharString>
                <CharString name="semicolon">
                    -174 381 182 hstemhm
107 33 callgsubr
-6.5 14 hintmask 11000000
305 -8 callgsubr
                </CharString>
                <CharString name="semicolon.tab">
                    -135 381 182 hstemhm
127 33 callgsubr
-6.5 14 hintmask 11000000
325 -8 callgsubr
                </CharString>
                <CharString name="servicemark">
                    420 271 103 -59 162 62 149 -95 104 -101 92 -92 101 hstemhm
61 137 43 138 61 112 246.5 114.5 hintmask 0110000011000000
636 315 67 callsubr
117 hlineto
hintmask 0100100011000000
411 -158 vlineto
52 callsubr
hintmask 1010000111000000
-4 262 rlineto
5 hlineto
-490 -165 rmoveto
-103 vlineto
225 -6 89 67 69 vvcurveto
hintmask 1001001111000000
95 -181 44 36 vvcurveto
18 31 6 120 -7 vhcurveto
hintmask 1000011111000000
-6 104 rlineto
-206 9 -76 -68 -69 -94 180 -43 -34 vvcurveto
hintmask 1010000111000000
-21 -48 -10 -128 7 vhcurveto
endchar
                </CharString>
                <CharString name="seven">
                    43 11 -21 38 -21 537 144 hstemhm
81 483 hintmask 10110000
299 -10 rmoveto
65 187 90 192 110 179 rrcurveto
140 -472 vlineto
-11 -144 rlineto
324 hlineto
3 -7 rlineto
hintmask 01110000
-112 -173 -91 -177 -65 -180 rrcurveto
endchar
                </CharString>
                <CharString name="seven.den">
                    12 -21 33 -21 329 106 hstemhm
15 343 hintmask 10110000
183 -9 rmoveto
43 117 59 114 73 112 rrcurveto
104 -334 vlineto
-9 -106 rlineto
216 hlineto
3 -7 rlineto
hintmask 01110000
-3 callgsubr
rrcurveto
endchar
                </CharString>
                <CharString name="seven.den_afrc">
                    -18 99 106 hstem
116 343 vstem
284 -242 -71 callsubr
                </CharString>
                <CharString name="seven.den_afrc2">
                    401 99 106 hstem
326 343 vstem
494 -242 -71 callsubr
                </CharString>
                <CharString name="seven.inf">
                    -85 165 68 callgsubr
-176 -71 callsubr
                </CharString>
                <CharString name="seven.num">
                    582 68 callgsubr
241 -71 callsubr
                </CharString>
                <CharString name="seven.num_afrc">
                    -18 804 106 hstem
116 343 vstem
5 callgsubr
endchar
                </CharString>
                <CharString name="seven.num_afrc2">
                    401 804 106 hstem
326 343 vstem
494 463 -71 callsubr
                </CharString>
                <CharString name="seven.small">
                    12 -21 33 -21 329 106 hstemhm
49 343 hintmask 10110000
217 -9 rmoveto
43 117 59 114 73 112 rrcurveto
104 -334 vlineto
-9 -106 rlineto
216 hlineto
3 -7 rlineto
hintmask 01110000
-3 callgsubr
rrcurveto
endchar
                </CharString>
                <CharString name="seven.sup">
                    -85 693 68 callgsubr
352 -71 callsubr
                </CharString>
                <CharString name="seveneighths">
                    73 callsubr
380 89 132 106 19 -20 hstemhm
695 -69 callsubr
hintmask 0110101010000000
373 -71 callgsubr
-35 209 rmoveto
43 117 59 114 73 112 rrcurveto
hintmask 1011010010000000
104 -334 vlineto
-9 -106 rlineto
216 hlineto
3 -7 -3 callgsubr
rlinecurve
740 -264 -72 callgsubr
hintmask 1011001100000000
52 26 29 34 46 vvcurveto
58 callsubr
hintmask 1011010010000000
-35 callsubr
hintmask 1011001100000000
-94 callgsubr
hintmask 1011010010000000
-96 callgsubr
                </CharString>
                <CharString name="seveneighths.afrc">
                    -1 callsubr
71 101 415 106 hstemhm
104 -69 callsubr
hintmask 1011110101000000
5 callgsubr
-97 -187 -37 callsubr
hintmask 1011111001000000
213 -633 -72 callgsubr
hintmask 1011110110000000
-77 callsubr
vhcurveto
hintmask 1101110101000000
-26 callgsubr
hintmask 1011111001000000
-35 callsubr
hintmask 1011110110000000
-94 callgsubr
hintmask 1011111001000000
-96 callgsubr
                </CharString>
                <CharString name="six">
                    43 -16 125 206 107 291 -20 hstem
62 147 210 146 vstem
310 -16 rmoveto
136 119 92 149 177 -183 72 -157 -92 hvcurveto
27 77 73 58 170 63 -64 133 rcurveline
-257 -109 -112 -152 -193 vvcurveto
-179 100 -96 148 vhcurveto
15 125 rmoveto
-65 -51 49 115 hvcurveto
6 0 6 6 vvcurveto
125 53 85 -38 -95 vvcurveto
-68 -38 -34 -56 vhcurveto
endchar
                </CharString>
                <CharString name="six.den">
                    -11 89 callsubr
hstem
1 8 callgsubr
179 -11 -105 callsubr
                </CharString>
                <CharString name="six.den_afrc">
                    -18 -244 89 callsubr
hstem
102 8 callgsubr
280 -244 -105 callsubr
                </CharString>
                <CharString name="six.den_afrc2">
                    401 -244 89 callsubr
hstem
312 8 callgsubr
490 -244 -105 callsubr
                </CharString>
                <CharString name="six.inf">
                    -85 -178 89 callsubr
hstem
69 8 callgsubr
247 -178 -105 callsubr
                </CharString>
                <CharString name="six.num">
                    239 89 callsubr
185 -20 hstem
69 8 callgsubr
247 239 -105 callsubr
                </CharString>
                <CharString name="six.num_afrc">
                    -18 461 95 109 45 hstem
102 8 callgsubr
280 461 -105 callsubr
                </CharString>
                <CharString name="six.num_afrc2">
                    401 461 95 109 45 hstem
312 8 callgsubr
490 461 -105 callsubr
                </CharString>
                <CharString name="six.small">
                    -11 89 callsubr
hstem
35 8 callgsubr
213 -11 -105 callsubr
                </CharString>
                <CharString name="six.sup">
                    -85 350 95 109 45 hstem
69 8 callgsubr
247 350 -105 callsubr
                </CharString>
                <CharString name="slash">
                    -56 774 -20 hstem
-15 558 vstem
405 814 rmoveto
-420 -1001 144 -25 414 986 rlineto
endchar
                </CharString>
                <CharString name="slash.tab">
                    43 -210 1023 hstem
-15 607 vstem
592 766 rmoveto
-136 47 -471 -994 144 -29 rlineto
endchar
                </CharString>
                <CharString name="space">
                    -276 endchar
                </CharString>
                <CharString name="sterling">
                    43 0 132.5 -132.5 135 146 115 148 160 hstemhm
67 487 hintmask 01111000
546 136 rmoveto
-264 -2 17 147 rlineto
173 hlineto
11 115 rlineto
-170 hlineto
20 142 26 8 195 -2 -9 160 rcurveline
-289 -13 -72 -84 -26 -211 rrcurveto
-76 hlineto
-11 -115 rlineto
75 hlineto
hintmask 10111000
-14 -148 -65 -1 rlineto
hintmask 01111000
-132 479 vlineto
endchar
                </CharString>
                <CharString name="t">
                    45 callsubr
hstem
123 159 vstem
441 -8 -49 callgsubr
endchar
                </CharString>
                <CharString name="t.sc">
                    -25 21 -21 468 129 hstem
198 163 vstem
361 468 39 callsubr
                </CharString>
                <CharString name="tcaron">
                    45 callsubr
hstem
123 159 75 151 vstem
348 658 -66 callsubr
93 -666 -49 callgsubr
endchar
                </CharString>
                <CharString name="tcaron.sc">
                    -25 callgsubr
                </CharString>
                <CharString name="tcommaaccent">
                    45 callsubr
hstemhm
123 159 -74 168 hintmask 11110000
441 -8 -49 callgsubr
hintmask 11101000
-248 -299 -100 callgsubr
                </CharString>
</ttFont>
